<svg xmlns="http://www.w3.org/2000/svg" viewBox="0 0 1024 1024"><defs><style>.cls-1{fill:#1093f9;}.cls-2{fill:#ccc;}.cls-3{fill:#f2f2f2;}.cls-4{fill:#f28877;}.cls-5{fill:#a0d257;}</style></defs><title>toornamen icon (3)</title><g id="Layer_50" data-name="Layer 50"><polygon class="cls-1" points="787.69 505.49 256.24 505.49 256.24 441.58 262.97 441.58 262.97 498.77 780.96 498.77 780.96 441.58 787.69 441.58 787.69 505.49"/><rect class="cls-1" x="518.6" y="502.13" width="6.73" height="75.79"/><rect class="cls-2" x="178.88" y="98.5" width="181.63" height="332.99" rx="20.87" ry="20.87"/><path class="cls-2" d="M461,560.26H606.85a20.87,20.87,0,0,1,20.87,20.87V878.37a14.89,14.89,0,0,1-14.89,14.89H461a14.89,14.89,0,0,1-14.89-14.89V575.15A14.89,14.89,0,0,1,461,560.26Z"/><path class="cls-2" d="M718.49,98.5H864.37a20.87,20.87,0,0,1,20.87,20.87V416.61a14.89,14.89,0,0,1-14.89,14.89H718.49a14.89,14.89,0,0,1-14.89-14.89V113.39A14.89,14.89,0,0,1,718.49,98.5Z"/><rect class="cls-3" x="168.79" y="108.59" width="181.63" height="332.99" rx="14.89" ry="14.89"/><rect class="cls-3" x="693.51" y="108.59" width="181.63" height="332.99" rx="14.89" ry="14.89"/><rect class="cls-3" x="435.99" y="570.36" width="181.63" height="332.99" rx="14.89" ry="14.89"/><rect class="cls-2" x="209.15" y="148.95" width="30.27" height="201.81" rx="14.96" ry="14.96"/><rect class="cls-2" x="279.79" y="148.95" width="30.27" height="201.81" rx="14.96" ry="14.96"/><circle class="cls-4" cx="224.29" cy="386.09" r="15.14"/><circle class="cls-5" cx="294.93" cy="386.09" r="15.14"/><rect class="cls-2" x="476.36" y="600.63" width="30.27" height="201.81" rx="14.96" ry="14.96"/><rect class="cls-2" x="546.99" y="600.63" width="30.27" height="201.81" rx="14.96" ry="14.96"/><circle class="cls-4" cx="491.49" cy="837.76" r="15.14"/><circle class="cls-5" cx="562.13" cy="837.76" r="15.14"/><rect class="cls-2" x="733.87" y="148.95" width="30.27" height="201.81" rx="14.96" ry="14.96"/><rect class="cls-2" x="804.51" y="148.95" width="30.27" height="201.81" rx="14.96" ry="14.96"/><circle class="cls-4" cx="749.01" cy="386.09" r="15.14"/><circle class="cls-5" cx="819.64" cy="386.09" r="15.14"/><polygon class="cls-1" points="757.66 531.64 226.22 531.64 226.22 467.74 232.95 467.74 232.95 524.92 750.94 524.92 750.94 467.74 757.66 467.74 757.66 531.64"/><rect class="cls-1" x="488.58" y="528.28" width="6.73" height="75.79"/><path class="cls-2" d="M163.74,124.65H309.62a20.87,20.87,0,0,1,20.87,20.87V442.76a14.89,14.89,0,0,1-14.89,14.89H163.74a14.89,14.89,0,0,1-14.89-14.89V139.54a14.89,14.89,0,0,1,14.89-14.89Z"/><rect class="cls-2" x="416.06" y="586.41" width="181.63" height="332.99" rx="20.87" ry="20.87"/><rect class="cls-2" x="673.58" y="124.65" width="181.63" height="332.99" rx="20.87" ry="20.87"/><rect class="cls-3" x="138.77" y="134.74" width="181.63" height="332.99" rx="14.89" ry="14.89"/><rect class="cls-3" x="663.49" y="134.74" width="181.63" height="332.99" rx="14.89" ry="14.89"/><rect class="cls-3" x="405.97" y="596.51" width="181.63" height="332.99" rx="14.89" ry="14.89"/><rect class="cls-2" x="179.13" y="170.3" width="30.27" height="173.7" rx="14.96" ry="14.96"/><rect class="cls-2" x="249.76" y="170.3" width="30.27" height="173.7" rx="14.96" ry="14.96"/><circle class="cls-4" cx="194.27" cy="412.24" r="15.14"/><circle class="cls-5" cx="264.9" cy="412.24" r="15.14"/><rect class="cls-2" x="446.33" y="624.49" width="30.27" height="178.51" rx="14.96" ry="14.96"/><rect class="cls-2" x="516.97" y="624.49" width="30.27" height="178.51" rx="14.96" ry="14.96"/><circle class="cls-4" cx="461.47" cy="863.91" r="15.14"/><circle class="cls-5" cx="532.1" cy="863.91" r="15.14"/><rect class="cls-2" x="703.85" y="170.3" width="30.27" height="173.7" rx="14.96" ry="14.96"/><rect class="cls-2" x="774.48" y="170.3" width="30.27" height="173.7" rx="14.96" ry="14.96"/><circle class="cls-4" cx="718.98" cy="412.24" r="15.14"/><circle class="cls-5" cx="789.62" cy="412.24" r="15.14"/></g></svg>