<svg xmlns="http://www.w3.org/2000/svg" viewBox="0 0 1024 1024"><defs><style>.cls-1{fill:#1093f9;}.cls-2{fill:#ccc;}.cls-3{fill:#f2f2f2;}.cls-4{fill:#f28877;}.cls-5{fill:#a0d257;}</style></defs><title>toornamen icon (3)</title><g id="Layer_48" data-name="Layer 48"><polygon class="cls-1" points="781.15 514.24 781.15 450.73 774.2 450.73 774.2 509.77 239.38 509.77 239.38 450.73 232.43 450.73 232.43 516.72 774.32 516.72 774.32 592.5 781.15 592.5 781.15 514.24"/><path class="cls-2" d="M167.45,96.5H317.3a22.8,22.8,0,0,1,22.8,22.8V425.43a14.89,14.89,0,0,1-14.89,14.89H167.45a14.89,14.89,0,0,1-14.89-14.89v-314A14.89,14.89,0,0,1,167.45,96.5Z"/><path class="cls-2" d="M709.33,574.27H859.18a22.8,22.8,0,0,1,22.8,22.8V903.19a14.89,14.89,0,0,1-14.89,14.89H709.33a14.89,14.89,0,0,1-14.89-14.89v-314A14.89,14.89,0,0,1,709.33,574.27Z"/><path class="cls-2" d="M709.21,96.5H859.06a22.8,22.8,0,0,1,22.8,22.8V425.43A14.89,14.89,0,0,1,867,440.31H709.21a14.89,14.89,0,0,1-14.89-14.89v-314A14.89,14.89,0,0,1,709.21,96.5Z"/><rect class="cls-3" x="142.14" y="106.92" width="187.53" height="343.81" rx="14.89" ry="14.89"/><rect class="cls-3" x="683.91" y="106.92" width="187.53" height="343.81" rx="14.89" ry="14.89"/><rect class="cls-3" x="684.02" y="584.69" width="187.53" height="343.81" rx="14.89" ry="14.89"/><rect class="cls-2" x="183.81" y="148.59" width="31.26" height="179.35" rx="15.63" ry="15.63"/><rect class="cls-2" x="256.74" y="148.59" width="31.26" height="179.35" rx="15.63" ry="15.63"/><circle class="cls-4" cx="199.44" cy="393.43" r="15.63"/><circle class="cls-5" cx="272.37" cy="393.43" r="15.63"/><rect class="cls-2" x="725.7" y="615.83" width="31.26" height="184.31" rx="15.63" ry="15.63"/><rect class="cls-2" x="798.63" y="615.83" width="31.26" height="184.31" rx="15.63" ry="15.63"/><circle class="cls-4" cx="741.33" cy="860.78" r="15.63"/><circle class="cls-5" cx="814.26" cy="860.78" r="15.63"/><rect class="cls-2" x="725.58" y="148.59" width="31.26" height="179.35" rx="15.63" ry="15.63"/><rect class="cls-2" x="798.51" y="148.59" width="31.26" height="179.35" rx="15.63" ry="15.63"/><circle class="cls-4" cx="741.21" cy="393.43" r="15.63"/><circle class="cls-5" cx="814.14" cy="393.43" r="15.63"/></g></svg>