<svg xmlns="http://www.w3.org/2000/svg" viewBox="0 0 1024 1024"><defs><style>.cls-1{fill:#ccc;}.cls-2{fill:#f2f2f2;}.cls-3{fill:#a0d257;}.cls-4{fill:#f28877;}</style></defs><title>toornamen icon (4)</title><g id="Layer_57" data-name="Layer 57"><rect class="cls-1" x="247.72" y="94.13" width="548.92" height="829.81" rx="36.96" ry="36.96"/><rect class="cls-2" x="227.37" y="109.06" width="554.02" height="820.81" rx="26.95" ry="26.95"/><rect class="cls-1" x="289.45" y="156.05" width="65.86" height="222.52" rx="32.93" ry="32.93"/><circle class="cls-3" cx="322.38" cy="833.94" r="32.93"/><rect class="cls-1" x="410.45" y="156.05" width="65.86" height="283.95" rx="32.93" ry="32.93"/><circle class="cls-3" cx="443.38" cy="833.94" r="32.93"/><rect class="cls-1" x="533.45" y="156.05" width="65.86" height="260.92" rx="32.93" ry="32.93"/><circle class="cls-3" cx="566.38" cy="833.94" r="32.93"/><rect class="cls-1" x="653.45" y="156.05" width="65.86" height="184.13" rx="32.93" ry="32.93"/><circle class="cls-4" cx="686.38" cy="833.94" r="32.93"/><circle class="cls-3" cx="322.38" cy="731.94" r="32.93"/><circle class="cls-4" cx="443.38" cy="731.94" r="32.93"/><circle class="cls-4" cx="566.38" cy="731.94" r="32.93"/><circle class="cls-4" cx="686.38" cy="731.94" r="32.93"/><circle class="cls-3" cx="322.38" cy="625.94" r="32.93"/><circle class="cls-3" cx="443.38" cy="625.94" r="32.93"/><circle class="cls-3" cx="566.38" cy="625.94" r="32.93"/><circle class="cls-3" cx="686.38" cy="625.94" r="32.93"/><circle class="cls-4" cx="322.38" cy="523.94" r="32.93"/><circle class="cls-4" cx="443.38" cy="523.94" r="32.93"/><circle class="cls-3" cx="566.38" cy="523.94" r="32.93"/><circle class="cls-3" cx="686.38" cy="523.94" r="32.93"/></g></svg>