<svg xmlns="http://www.w3.org/2000/svg" viewBox="0 0 1024 1024"><defs><style>.cls-1{fill:#56f3bf;}.cls-2{fill:#ccc;}.cls-3{fill:#f2f2f2;}.cls-4{fill:#e6c302;}.cls-5{fill:#cd8032;}</style></defs><title>toornamen icon (3)</title><g id="Layer_54" data-name="Layer 54"><polygon class="cls-1" points="821.47 515.02 183.94 515.02 183.94 438.36 192.01 438.36 192.01 506.95 813.4 506.95 813.4 438.36 821.47 438.36 821.47 515.02"/><rect class="cls-1" x="498.67" y="510.99" width="8.07" height="90.92"/><rect class="cls-2" x="75.14" y="116.5" width="254.44" height="312.23" rx="26.27" ry="26.27"/><rect class="cls-3" x="67" y="125.87" width="254.44" height="312.23" rx="21.15" ry="21.15"/><rect class="cls-2" x="210.05" y="163.72" width="28.38" height="163.99" rx="12.21" ry="12.21"/><rect class="cls-2" x="263.63" y="163.72" width="28.38" height="138.67" rx="12.21" ry="12.21"/><circle class="cls-2" cx="224.24" cy="386.07" r="14.19"/><circle class="cls-4" cx="277.82" cy="386.07" r="14.19"/><rect class="cls-2" x="102.86" y="163.72" width="28.38" height="147.11" rx="12.21" ry="12.21"/><rect class="cls-2" x="156.44" y="163.72" width="28.38" height="180.87" rx="12.21" ry="12.21"/><circle class="cls-5" cx="170.63" cy="386.07" r="14.19"/><rect class="cls-2" x="390.01" y="585.9" width="254.44" height="312.23" rx="26.27" ry="26.27"/><rect class="cls-3" x="381.87" y="595.27" width="254.44" height="312.23" rx="21.15" ry="21.15"/><rect class="cls-2" x="524.92" y="633.12" width="28.38" height="163.99" rx="12.21" ry="12.21"/><rect class="cls-2" x="578.5" y="633.12" width="28.38" height="138.67" rx="12.21" ry="12.21"/><circle class="cls-2" cx="539.11" cy="855.46" r="14.19"/><circle class="cls-4" cx="592.69" cy="855.46" r="14.19"/><rect class="cls-2" x="417.73" y="633.12" width="28.38" height="147.11" rx="12.21" ry="12.21"/><rect class="cls-2" x="471.31" y="633.12" width="28.38" height="180.87" rx="12.21" ry="12.21"/><circle class="cls-5" cx="485.5" cy="855.46" r="14.19"/><rect class="cls-2" x="702.56" y="116.5" width="254.44" height="312.23" rx="26.27" ry="26.27"/><rect class="cls-3" x="694.42" y="125.87" width="254.44" height="312.23" rx="21.15" ry="21.15"/><rect class="cls-2" x="837.46" y="163.72" width="28.38" height="163.99" rx="12.21" ry="12.21"/><rect class="cls-2" x="891.04" y="163.72" width="28.38" height="138.67" rx="12.21" ry="12.21"/><circle class="cls-2" cx="851.65" cy="386.07" r="14.19"/><circle class="cls-4" cx="905.24" cy="386.07" r="14.19"/><rect class="cls-2" x="730.28" y="163.72" width="28.38" height="147.11" rx="12.21" ry="12.21"/><rect class="cls-2" x="783.86" y="163.72" width="28.38" height="180.87" rx="12.21" ry="12.21"/><circle class="cls-5" cx="798.05" cy="386.07" r="14.19"/></g></svg>