<svg xmlns="http://www.w3.org/2000/svg" viewBox="0 0 1024 1024"><defs><style>.cls-1{fill:#56f3bf;}.cls-2{fill:#ccc;}.cls-3{fill:#f2f2f2;}.cls-4{fill:#e6c302;}.cls-5{fill:#cd8032;}</style></defs><title>toornamen icon (3)</title><g id="Layer_55" data-name="Layer 55"><polygon class="cls-1" points="836.25 498.81 197.64 498.81 197.64 422.01 205.72 422.01 205.72 490.72 828.16 490.72 828.16 422.01 836.25 422.01 836.25 498.81"/><rect class="cls-1" x="512.9" y="494.76" width="8.08" height="91.08"/><rect class="cls-2" x="88.67" y="99.61" width="254.87" height="312.75" rx="26.27" ry="26.27"/><rect class="cls-3" x="80.51" y="109.01" width="254.87" height="312.75" rx="21.15" ry="21.15"/><rect class="cls-2" x="223.79" y="146.92" width="28.43" height="164.26" rx="12.21" ry="12.21"/><rect class="cls-2" x="277.47" y="146.92" width="28.43" height="138.91" rx="12.21" ry="12.21"/><circle class="cls-2" cx="238.01" cy="369.63" r="14.22"/><circle class="cls-4" cx="291.68" cy="369.63" r="14.22"/><rect class="cls-2" x="116.43" y="146.92" width="28.43" height="147.36" rx="12.21" ry="12.21"/><rect class="cls-2" x="170.1" y="146.92" width="28.43" height="181.17" rx="12.21" ry="12.21"/><circle class="cls-5" cx="184.32" cy="369.63" r="14.22"/><rect class="cls-2" x="404.06" y="569.8" width="254.87" height="312.75" rx="26.27" ry="26.27"/><rect class="cls-3" x="395.91" y="579.19" width="254.87" height="312.75" rx="21.15" ry="21.15"/><rect class="cls-2" x="539.19" y="617.1" width="28.43" height="164.26" rx="12.21" ry="12.21"/><rect class="cls-2" x="592.86" y="617.1" width="28.43" height="138.91" rx="12.21" ry="12.21"/><circle class="cls-2" cx="553.41" cy="839.82" r="14.22"/><circle class="cls-4" cx="607.08" cy="839.82" r="14.22"/><rect class="cls-2" x="431.83" y="617.1" width="28.43" height="147.36" rx="12.21" ry="12.21"/><rect class="cls-2" x="485.5" y="617.1" width="28.43" height="181.17" rx="12.21" ry="12.21"/><circle class="cls-5" cx="499.71" cy="839.82" r="14.22"/><rect class="cls-2" x="717.13" y="99.61" width="254.87" height="312.75" rx="26.27" ry="26.27"/><rect class="cls-3" x="708.98" y="109.01" width="254.87" height="312.75" rx="21.15" ry="21.15"/><rect class="cls-2" x="852.26" y="146.92" width="28.43" height="164.26" rx="12.21" ry="12.21"/><rect class="cls-2" x="905.93" y="146.92" width="28.43" height="138.91" rx="12.21" ry="12.21"/><circle class="cls-2" cx="866.48" cy="369.63" r="14.22"/><circle class="cls-4" cx="920.15" cy="369.63" r="14.22"/><rect class="cls-2" x="744.9" y="146.92" width="28.43" height="147.36" rx="12.21" ry="12.21"/><rect class="cls-2" x="798.57" y="146.92" width="28.43" height="181.17" rx="12.21" ry="12.21"/><circle class="cls-5" cx="812.78" cy="369.63" r="14.22"/><polygon class="cls-1" points="807.74 531.25 169.13 531.25 169.13 454.45 177.22 454.45 177.22 523.16 799.65 523.16 799.65 454.45 807.74 454.45 807.74 531.25"/><rect class="cls-1" x="484.39" y="527.21" width="8.08" height="91.08"/><rect class="cls-2" x="60.16" y="132.05" width="254.87" height="312.75" rx="26.27" ry="26.27"/><rect class="cls-3" x="52" y="141.45" width="254.87" height="312.75" rx="21.15" ry="21.15"/><rect class="cls-2" x="195.29" y="179.36" width="28.43" height="164.26" rx="12.21" ry="12.21"/><rect class="cls-2" x="248.96" y="179.36" width="28.43" height="138.91" rx="12.21" ry="12.21"/><circle class="cls-2" cx="209.5" cy="402.07" r="14.22"/><circle class="cls-4" cx="263.17" cy="402.07" r="14.22"/><rect class="cls-2" x="87.92" y="179.36" width="28.43" height="147.36" rx="12.21" ry="12.21"/><rect class="cls-2" x="141.59" y="179.36" width="28.43" height="181.17" rx="12.21" ry="12.21"/><circle class="cls-5" cx="155.81" cy="402.07" r="14.22"/><rect class="cls-2" x="375.56" y="602.24" width="254.87" height="312.75" rx="26.27" ry="26.27"/><rect class="cls-3" x="367.4" y="611.63" width="254.87" height="312.75" rx="21.15" ry="21.15"/><rect class="cls-2" x="510.68" y="649.54" width="28.43" height="164.26" rx="12.21" ry="12.21"/><rect class="cls-2" x="564.35" y="649.54" width="28.43" height="138.91" rx="12.21" ry="12.21"/><circle class="cls-2" cx="524.9" cy="872.26" r="14.22"/><circle class="cls-4" cx="578.57" cy="872.26" r="14.22"/><rect class="cls-2" x="403.32" y="649.54" width="28.43" height="147.36" rx="12.21" ry="12.21"/><rect class="cls-2" x="456.99" y="649.54" width="28.43" height="181.17" rx="12.21" ry="12.21"/><circle class="cls-5" cx="471.21" cy="872.26" r="14.22"/><rect class="cls-2" x="688.63" y="132.05" width="254.87" height="312.75" rx="26.27" ry="26.27"/><rect class="cls-3" x="680.47" y="141.45" width="254.87" height="312.75" rx="21.15" ry="21.15"/><rect class="cls-2" x="823.75" y="179.36" width="28.43" height="164.26" rx="12.21" ry="12.21"/><rect class="cls-2" x="877.42" y="179.36" width="28.43" height="138.91" rx="12.21" ry="12.21"/><circle class="cls-2" cx="837.97" cy="402.07" r="14.22"/><circle class="cls-4" cx="891.64" cy="402.07" r="14.22"/><rect class="cls-2" x="716.39" y="179.36" width="28.43" height="147.36" rx="12.21" ry="12.21"/><rect class="cls-2" x="770.06" y="179.36" width="28.43" height="181.17" rx="12.21" ry="12.21"/><circle class="cls-5" cx="784.28" cy="402.07" r="14.22"/></g></svg>