<svg xmlns="http://www.w3.org/2000/svg" viewBox="0 0 1008 711"><defs><style>.cls-1{stroke:#000;stroke-miterlimit:10;stroke-width:5px;}</style></defs><title>icon-join-outline2</title><g id="Layer_12" data-name="Layer 12"><path d="M857.4,533.44H828a155,155,0,0,1,2.37,27.06v85.34a33.49,33.49,0,0,1-33.49,33.49H225.09a33.53,33.53,0,0,1-33.54-33.49V560.5a154.85,154.85,0,0,1,3.85-34.44l.12-.49c.14-.64.29-1.27.45-1.89,0-.15.07-.3.11-.44.09-.38.18-.76.28-1.13a1.9,1.9,0,0,1,.07-.25c.18-.73.38-1.46.58-2.18.28-1.05.58-2.12.9-3.16a1.17,1.17,0,0,1,0-.17c.29-1,.6-2,.92-3s.67-2.08,1-3.1.69-2,1-2.95l.14-.4c.34-.93.69-1.86,1.05-2.77s.8-2,1.22-3,.72-1.71,1.09-2.57l.27-.61c.84-1.9,1.73-3.8,2.65-5.67.47-1,1-1.92,1.46-2.88s.92-1.76,1.39-2.63a1.66,1.66,0,0,1,.13-.22q.75-1.42,1.57-2.81.68-1.19,1.39-2.38c.25-.42.49-.83.75-1.24s.43-.72.65-1.06l.06-.09q.35-.58.73-1.16v0c.46-.74.95-1.49,1.43-2.22l0,0c.59-.89,1.19-1.78,1.8-2.66s1.22-1.75,1.85-2.62,1.25-1.73,1.89-2.58,1.29-1.7,1.94-2.54,1.29-1.62,1.94-2.43l.11-.13c.66-.81,1.32-1.6,2-2.4s1.31-1.54,2-2.3l.11-.12c.59-.67,1.19-1.32,1.8-2l.22-.24c.53-.59,1.08-1.17,1.64-1.75h0c.36-.39.73-.76,1.09-1.14l.11-.11c.56-.58,1.13-1.16,1.71-1.73s1-1,1.56-1.52l0,0,1.2-1.14.32-.3c.37-.36.74-.72,1.13-1.06l.2-.18c.62-.57,1.24-1.14,1.88-1.7l.25-.22.73-.64q.94-.84,1.91-1.65c.13-.12.26-.22.4-.33.71-.6,1.42-1.19,2.14-1.77l.35-.28q1.15-.93,2.32-1.83t2.2-1.68l.7-.51.06,0,.31-.23c.6-.44,1.21-.88,1.82-1.31,1.79-1.28,3.6-2.5,5.44-3.69l.08,0,.1-.07c.71-.45,1.41-.92,2.13-1.35l.33-.2c.91-.57,1.83-1.13,2.76-1.67s1.63-1,2.47-1.43l.38-.21.24-.14c.84-.47,1.67-.93,2.52-1.38s1.89-1,2.85-1.5,1.83-.93,2.75-1.37,2.13-1,3.2-1.51,1.89-.85,2.83-1.26c.78-.35,1.58-.68,2.37-1l.08,0,1.42-.58.21-.09c.69-.28,1.38-.55,2.07-.81l.22-.09,1.92-.72,1-.38c.83-.3,1.68-.6,2.52-.88l.39-.13.35-.12c.66-.22,1.31-.44,2-.65l.1,0,.48-.15.32-.11q1.45-.45,2.93-.87c1-.31,2.1-.6,3.16-.88.82-.22,1.65-.44,2.48-.64l1.56-.38,2.38-.55c1.08-.24,2.17-.46,3.25-.68s1.9-.37,2.85-.54l1-.17,2.73-.44.11,0c.89-.14,1.78-.26,2.68-.38l.91-.13.24,0h0c.89-.12,1.79-.22,2.69-.32s1.6-.17,2.42-.24l1.52-.14.46,0,2.35-.17c.76-.06,1.54-.1,2.31-.14h.32c.51,0,1-.06,1.53-.07h.13c.85,0,1.69-.06,2.54-.08,1.14,0,2.29,0,3.44,0h46.63q-5.53-4.68-10.69-9.86a178.82,178.82,0,0,1-16.63-19.14H346.23A183.83,183.83,0,0,0,177,489c-1.13,2.67-2.19,5.37-3.19,8.07a181,181,0,0,0-8,29,184.73,184.73,0,0,0-3.22,34.44v85.34a62.59,62.59,0,0,0,62.54,62.49h571.8a62.57,62.57,0,0,0,62.49-62.49V560.5A185.09,185.09,0,0,0,857.4,533.44ZM681.68,405.94c1.16,0,2.3.1,3.45.16h.13l.72,0c.95.06,1.88.13,2.81.21.6,0,1.21.1,1.81.16s1.42.14,2.13.21l2.69.32q3.36.42,6.67,1c.83.14,1.65.29,2.47.44l1.39.27q7.42,1.46,14.57,3.64l1.7.52c.65.2,1.3.41,1.93.63l1.16.39c.95.32,1.89.64,2.81,1l.76.27,2.42.91,2.18.86,1.31.53c.79.33,1.6.67,2.39,1l2.18,1,1.71.79,1.69.8c1,.47,2,1,2.94,1.45l1.45.75c.48.24,1,.5,1.44.76s1,.54,1.53.82q2.12,1.16,4.2,2.39l.88.53c.77.46,1.54.93,2.3,1.41l1.58,1q3.57,2.26,7,4.74c.67.47,1.33,1,2,1.46s1.14.85,1.71,1.3l.51.4a.2.2,0,0,1,.08.06q1.17.9,2.32,1.83,1.8,1.44,3.54,2.95c.43.35.84.72,1.26,1.08s.88.76,1.31,1.16,1.11,1,1.65,1.49l1.55,1.46a148.25,148.25,0,0,1,10.78,11.26c.38.43.75.87,1.12,1.31,1.31,1.54,2.6,3.11,3.84,4.72.66.84,1.31,1.69,1.94,2.54.26.34.5.67.74,1q.74,1,1.45,2c.55.78,1.1,1.56,1.63,2.35q1.31,1.89,2.53,3.83c.34.52.67,1,1,1.58.72,1.12,1.4,2.26,2.08,3.41.27.46.54.92.8,1.38l.7,1.22,1.13,2c.3.54.59,1.09.88,1.64.46.88.92,1.76,1.36,2.65l.12.22c.36.72.71,1.43,1.05,2.16.1.19.19.4.28.6.18.36.36.73.52,1.09s.36.76.53,1.15c.35.75.69,1.52,1,2.27q1.1,2.51,2.1,5.07c.25.61.48,1.22.72,1.84.46,1.2.91,2.42,1.33,3.64.08.22.15.44.22.66h30.43q-1.83-6.41-4.15-12.69c-1-2.71-2.06-5.4-3.19-8.07A183.54,183.54,0,0,0,675.7,376.82H650.61A180,180,0,0,1,634,396q-5.16,5.16-10.68,9.85h52.4Q678.71,405.82,681.68,405.94Z"/><path class="cls-1" d="M996.37,366.23a147.26,147.26,0,0,0-6.56-23.7c-.81-2.2-1.68-4.41-2.6-6.59A149.9,149.9,0,0,0,849,244.33h-20.5A147.29,147.29,0,0,1,814.89,260q-4.22,4.22-8.72,8H849c1.63,0,3.26,0,4.88.1.95,0,1.88.08,2.81.14h.11l.58,0c.77,0,1.54.1,2.3.17.49,0,1,.08,1.48.14s1.16.11,1.73.17l2.19.26q2.76.33,5.45.81c.68.11,1.35.23,2,.36l1.14.22q6.06,1.2,11.9,3l1.38.43,1.59.51.95.32c.77.26,1.54.52,2.29.8l.63.22,2,.74,1.79.71c.36.14.71.28,1.06.44.65.26,1.31.54,2,.82l1.78.78,1.39.65,1.38.66c.8.39,1.61.78,2.4,1.19l1.19.61,1.18.63,1.25.67c1.15.64,2.29,1.29,3.42,2l.73.44c.63.38,1.25.75,1.88,1.15l1.29.81q2.91,1.86,5.69,3.88c.54.39,1.09.77,1.62,1.19s.94.7,1.4,1.05l.42.33a.15.15,0,0,1,.07,0c.64.48,1.27,1,1.89,1.49,1,.78,1.94,1.59,2.89,2.41.35.29.69.59,1,.89s.72.62,1.07.95.91.8,1.35,1.22.84.78,1.26,1.19a119.9,119.9,0,0,1,8.81,9.19c.31.36.62.72.92,1.08,1.07,1.25,2.12,2.54,3.13,3.85.54.69,1.06,1.38,1.59,2.08.21.28.42.54.61.82.41.54.8,1.09,1.19,1.63s.9,1.28,1.33,1.92c.71,1,1.39,2.06,2.07,3.12l.81,1.29c.58.92,1.14,1.85,1.69,2.78.22.39.44.75.66,1.13l.57,1,.93,1.67.72,1.34c.38.72.74,1.44,1.11,2.17,0,.06.07.12.1.18.29.58.57,1.17.86,1.76l.23.49c.14.29.29.59.43.89l.44.94c.28.62.56,1.24.83,1.86q.9,2,1.71,4.14c.21.49.4,1,.59,1.5.38,1,.74,2,1.09,3,.17.49.34,1,.5,1.47q1.2,3.54,2.18,7.16c.16.59.33,1.19.47,1.79a.27.27,0,0,1,0,.13c.13.45.24.92.35,1.38.16.65.31,1.29.46,1.93a127.09,127.09,0,0,1,3.14,28.12v69.71A27.36,27.36,0,0,1,948,491.42H877.67q2.33,8.06,3.89,16.31c.46,2.45.88,4.91,1.24,7.38H948a51.11,51.11,0,0,0,51-51V394.36A150.42,150.42,0,0,0,996.37,366.23Z"/><path d="M857.4,533.44H828q-.65-3.73-1.48-7.38c-.18-.79-.37-1.58-.56-2.36-.14-.57-.28-1.14-.43-1.7a.72.72,0,0,0,0-.15c-.18-.73-.38-1.46-.58-2.18-.8-3-1.69-5.89-2.68-8.77-.13-.38-.26-.76-.4-1.14h30.43q2.33,8.06,3.89,16.31C856.63,528.51,857,531,857.4,533.44Z"/><path class="cls-1" d="M833,82.82a131.5,131.5,0,0,0-66.54-68.39c-1.09-.49-2.18-1-3.3-1.44a131.5,131.5,0,0,0-102.18,0q-4.54,1.91-8.89,4.17a130.69,130.69,0,0,0-18.2,11.32,133.58,133.58,0,0,0-14.6,12.63A130.46,130.46,0,0,0,594.87,74.8l1.13.46c1.35.58,2.7,1.16,4,1.78a157,157,0,0,1,14,7.23c.7-1.4,1.44-2.78,2.2-4.15l.51-.9c.29-.51.58-1,.89-1.51l.78-1.31q1.09-1.77,2.23-3.48l.85-1.25.19-.29.85-1.21q2.12-3,4.42-5.78L628.13,63h0c.38-.46.78-.92,1.18-1.38s.8-.91,1.21-1.35q2.31-2.57,4.78-5l.72-.7,1.19-1.12c.65-.6,1.3-1.19,2-1.77,1-.88,2-1.74,3-2.58l.9-.73q3.65-3,7.56-5.6c.36-.25.73-.49,1.09-.73.73-.48,1.48-1,2.23-1.43l1.12-.69,1.09-.66c.39-.24.79-.46,1.19-.71l1.59-.89c.54-.3,1.07-.59,1.61-.87a110.09,110.09,0,0,1,96.57-3.14l1.33.61c.41.19.8.38,1.2.58.81.38,1.6.77,2.39,1.18l1,.51q1.9,1,3.76,2.08c.36.19.71.41,1.06.62s.75.44,1.13.69.75.45,1.13.69c.74.46,1.49.94,2.23,1.43.33.21.67.44,1,.67l.16.11c.36.24.7.46,1,.71a110.92,110.92,0,0,1,10.37,8.16c.44.4.89.79,1.32,1.2.86.78,1.7,1.58,2.52,2.39.27.25.52.5.78.76.75.75,1.49,1.51,2.22,2.28l1.32,1.42c1.57,1.71,3.08,3.48,4.53,5.29.26.33.53.66.78,1,.59.73,1.16,1.48,1.72,2.23l.7.95c.53.73,1.05,1.47,1.57,2.2.21.29.41.58.6.87q2.67,3.93,5,8.09l.82,1.51c.32.58.62,1.16.92,1.73s.49,1,.73,1.46c.66,1.32,1.29,2.65,1.89,4,.25.54.49,1.08.72,1.63s.47,1.1.7,1.66.39,1,.57,1.43.28.7.41,1,.36.95.53,1.43.44,1.2.64,1.8.43,1.24.63,1.87h0c.2.6.39,1.2.57,1.8,0,.07,0,.14.07.22.15.51.3,1,.44,1.52,0,.12.07.24.11.36.17.61.34,1.22.5,1.83s.28,1.08.42,1.62q.73,2.9,1.29,5.85c.06.27.11.55.15.82.1.51.17,1,.26,1.52s.18,1.12.27,1.68.16,1,.22,1.54.11.74.15,1.12c.14,1,.24,2,.35,3.08,0,.34.07.68.1,1,.07.72.13,1.43.17,2.16,0,.39.06.78.08,1.18s0,.52,0,.77c0,.08,0,.15,0,.21,0,.49,0,1,.06,1.49,0,.7,0,1.38.06,2.08s0,1.39,0,2.09,0,1.31,0,2c0,.24,0,.47,0,.7,0,1.27-.08,2.52-.15,3.77,0,.43,0,.85-.08,1.28s0,.59-.07.89-.06.83-.1,1.25c-.09.92-.17,1.84-.29,2.76,0,.4-.09.79-.15,1.18a2.24,2.24,0,0,1,0,.36c0,.41-.1.81-.16,1.22s-.13.91-.2,1.36c-.15,1-.31,2-.49,2.95-.08.47-.16,1-.27,1.43s-.19,1-.3,1.55c-.25,1.17-.51,2.33-.79,3.48-.23,1-.49,1.94-.75,2.9-.14.52-.29,1-.44,1.57a110,110,0,0,1-124.53,77.6,157.6,157.6,0,0,1-3.91,21,132.5,132.5,0,0,0,22.89,2A130.81,130.81,0,0,0,797,234q4.08-3.45,7.88-7.26a132.09,132.09,0,0,0,12.25-14.12A130.36,130.36,0,0,0,833,185a127,127,0,0,0,5.32-15.08,128.38,128.38,0,0,0,4.17-21,133.58,133.58,0,0,0,.84-15A130.52,130.52,0,0,0,833,82.82Z"/><path class="cls-1" d="M9,394.36v69.71a51.11,51.11,0,0,0,51,51h65.16c.36-2.47.77-4.93,1.24-7.38q1.57-8.24,3.89-16.31H60a27.36,27.36,0,0,1-27.36-27.36V394.36a127.09,127.09,0,0,1,3.14-28.12c.15-.65.3-1.29.46-1.93.11-.46.22-.93.35-1.38a.27.27,0,0,1,0-.13c.15-.6.31-1.2.47-1.79q1-3.63,2.18-7.16c.16-.48.33-1,.5-1.47.35-1,.72-2,1.09-3,.19-.5.38-1,.59-1.5q.81-2.09,1.71-4.14c.27-.62.55-1.24.83-1.86l.44-.94c.14-.3.28-.6.43-.89l.23-.49c.29-.59.57-1.18.86-1.76,0-.07.07-.13.1-.18.37-.73.73-1.45,1.11-2.17l.72-1.34.93-1.67.57-1c.21-.38.44-.74.66-1.13.55-.94,1.11-1.87,1.69-2.78l.81-1.29c.68-1.06,1.36-2.1,2.07-3.12.44-.65.89-1.29,1.33-1.92s.78-1.09,1.19-1.63c.19-.28.4-.54.61-.82.52-.7,1-1.39,1.59-2.08,1-1.31,2.06-2.6,3.13-3.85.3-.37.61-.73.92-1.08a119.9,119.9,0,0,1,8.81-9.19c.42-.41.83-.8,1.26-1.19s.9-.82,1.35-1.22.72-.64,1.07-.95.68-.6,1-.89c.95-.82,1.91-1.62,2.89-2.41.63-.5,1.26-1,1.89-1.49a.15.15,0,0,1,.07,0l.42-.33c.46-.36.94-.72,1.4-1.05s1.08-.8,1.62-1.19q2.78-2,5.69-3.88l1.29-.81c.63-.4,1.25-.77,1.88-1.15l.73-.44c1.13-.67,2.27-1.31,3.42-2l1.25-.67,1.18-.63,1.19-.61c.78-.41,1.6-.8,2.4-1.19l1.38-.66,1.39-.65,1.78-.78c.65-.28,1.31-.56,2-.82.36-.15.71-.3,1.06-.44l1.79-.71,2-.74.63-.22c.75-.28,1.52-.54,2.29-.8l.95-.32,1.59-.51,1.38-.43q5.83-1.75,11.9-3l1.14-.22c.67-.13,1.34-.25,2-.36q2.7-.48,5.45-.81l2.19-.26c.57-.07,1.15-.13,1.73-.17s1-.1,1.48-.14c.76-.08,1.53-.13,2.3-.17l.58,0h.11c.94-.06,1.87-.11,2.81-.14,1.62-.07,3.25-.1,4.88-.1h42.8q-4.51-3.83-8.72-8a147.29,147.29,0,0,1-13.58-15.64H159A150.12,150.12,0,0,0,20.79,335.94c-.92,2.18-1.79,4.39-2.6,6.59a147.26,147.26,0,0,0-6.56,23.7A150.42,150.42,0,0,0,9,394.36Z"/><path class="cls-1" d="M164.71,133.92a133.58,133.58,0,0,0,.84,15,128.38,128.38,0,0,0,4.17,21A127,127,0,0,0,175,185a130.36,130.36,0,0,0,15.87,27.59,132.09,132.09,0,0,0,12.25,14.12Q207,230.49,211,234A130.81,130.81,0,0,0,296,265.12a132.5,132.5,0,0,0,22.89-2,157.6,157.6,0,0,1-3.91-21,110,110,0,0,1-124.53-77.6c-.15-.52-.3-1-.44-1.57-.26-1-.52-1.92-.75-2.9-.28-1.15-.54-2.31-.79-3.48-.11-.51-.2-1-.3-1.55s-.19-1-.27-1.43c-.18-1-.35-2-.49-2.95q-.12-.68-.2-1.36c-.07-.41-.12-.81-.16-1.22a2.24,2.24,0,0,1,0-.36c-.06-.39-.11-.78-.15-1.18-.12-.92-.2-1.84-.29-2.76,0-.42-.07-.83-.1-1.25s0-.59-.07-.89-.06-.85-.08-1.28c-.08-1.25-.13-2.5-.15-3.77,0-.22,0-.45,0-.7,0-.66,0-1.31,0-2s0-1.4,0-2.09,0-1.38.06-2.08c0-.49,0-1,.06-1.49,0-.07,0-.14,0-.21,0-.25,0-.52,0-.77s0-.79.08-1.18c0-.73.11-1.44.17-2.16,0-.34.06-.68.1-1,.11-1,.21-2.06.35-3.08,0-.38.1-.75.15-1.12s.14-1,.22-1.54.16-1.12.27-1.68.16-1,.26-1.52c0-.27.1-.55.15-.82q.57-2.94,1.29-5.85c.14-.54.28-1.08.42-1.62s.33-1.22.5-1.83c0-.12.07-.24.11-.36.15-.5.29-1,.44-1.52,0-.08,0-.15.07-.22.18-.6.37-1.2.57-1.8h0c.2-.63.42-1.25.63-1.87s.42-1.2.64-1.8.35-1,.53-1.43.26-.7.41-1,.38-1,.57-1.43.45-1.11.7-1.66.46-1.09.72-1.63c.6-1.35,1.23-2.68,1.89-4,.24-.49.49-1,.73-1.46s.6-1.15.92-1.73l.82-1.51q2.33-4.16,5-8.09c.19-.29.39-.58.6-.87.51-.73,1-1.48,1.57-2.2l.7-.95c.56-.75,1.13-1.5,1.72-2.23.25-.33.52-.66.78-1,1.45-1.81,3-3.58,4.53-5.29l1.32-1.42c.73-.77,1.47-1.53,2.22-2.28.26-.26.51-.51.78-.76.82-.81,1.66-1.6,2.52-2.39.44-.41.88-.8,1.32-1.2a110.92,110.92,0,0,1,10.37-8.16c.34-.24.68-.46,1-.71l.16-.11c.33-.23.67-.45,1-.67.74-.49,1.49-1,2.23-1.43.38-.23.74-.47,1.13-.69s.75-.46,1.13-.69.71-.43,1.06-.62q1.86-1.07,3.76-2.08l1-.51c.79-.41,1.58-.8,2.39-1.18.4-.2.79-.39,1.2-.58l1.33-.61a110.09,110.09,0,0,1,96.57,3.14c.54.28,1.07.57,1.61.87l1.59.89c.4.24.8.46,1.19.71l1.09.66,1.12.69c.75.47,1.5.95,2.23,1.43.37.24.73.48,1.09.73q3.9,2.62,7.56,5.6l.9.73c1,.84,2,1.7,3,2.58.66.58,1.31,1.17,2,1.77L372,54.6l.72.7q2.47,2.41,4.78,5c.41.44.81.9,1.21,1.35s.8.92,1.18,1.38h0l1.15,1.4q2.31,2.81,4.42,5.78l.85,1.21.19.29.85,1.25q1.15,1.71,2.23,3.48l.78,1.31c.31.5.6,1,.89,1.51l.51.9c.76,1.36,1.51,2.75,2.2,4.15A157,157,0,0,1,408,77c1.33-.62,2.68-1.2,4-1.78l1.13-.46a130.46,130.46,0,0,0-24.38-33.68,133.58,133.58,0,0,0-14.6-12.63,130.69,130.69,0,0,0-18.2-11.32q-4.35-2.25-8.89-4.17a131.5,131.5,0,0,0-102.18,0c-1.11.46-2.2.95-3.3,1.44a131.13,131.13,0,0,0-76.86,119.49Z"/><path d="M508.79,107.25A134.91,134.91,0,1,1,373.9,242.18,134.95,134.95,0,0,1,508.79,107.25m0-26.25a160.76,160.76,0,1,0,62.75,12.68A160.13,160.13,0,0,0,508.79,81Z"/></g></svg>