<?xml version="1.0" encoding="utf-8"?>
<!-- Generator: Adobe Illustrator 19.1.0, SVG Export Plug-In . SVG Version: 6.00 Build 0)  -->
<svg version="1.1" id="Layer_1" xmlns="http://www.w3.org/2000/svg" xmlns:xlink="http://www.w3.org/1999/xlink" x="0px" y="0px"
	 viewBox="0 0 512 512" style="enable-background:new 0 0 512 512;" xml:space="preserve">
<style type="text/css">
	.st0{fill:#F61C0D;}
	.st1{fill:#3A559F;}
	.st2{fill:#76A9EA;}
	.st3{fill:url(#SVGID_1_);}
	.st4{fill:#FFFFFF;}
</style>
<circle class="st1" cx="256" cy="256" r="256"/>
<g>
	<path class="st4" d="M324,120.1l-35.3-0.1c-39.6,0-65.2,26.3-65.2,66.9v30.9H188c-3.1,0-5.5,2.5-5.5,5.5v44.7
		c0,3.1,2.5,5.5,5.5,5.5h35.5v112.8c0,3.1,2.5,5.5,5.5,5.5h46.3c3.1,0,5.5-2.5,5.5-5.5V273.6h41.5c3.1,0,5.5-2.5,5.5-5.5l0-44.7
		c0-1.5-0.6-2.9-1.6-3.9c-1-1-2.5-1.6-3.9-1.6h-41.5v-26.2c0-12.6,3-19,19.4-19l23.8,0c3.1,0,5.5-2.5,5.5-5.5v-41.5
		C329.5,122.6,327,120.1,324,120.1z"/>
</g>
</svg>
