<svg xmlns="http://www.w3.org/2000/svg" viewBox="0 0 1024 1024"><defs><style>.cls-1{fill:#f5f5f5;}</style></defs><title>toornamen icon</title><g id="Layer_84" data-name="Layer 84"><path class="cls-1" d="M654,459.77H358.84a20,20,0,1,1,0-40H654a20,20,0,0,1,0,40Z"/><path class="cls-1" d="M654,368.77H358.84a20,20,0,1,1,0-40H654a20,20,0,0,1,0,40Z"/><path class="cls-1" d="M512,0C229.21,0,0,229.25,0,512s229.21,512,512,512,512-229.25,512-512S794.75,0,512,0Zm0,205.49,50.49,42h-101ZM289.3,301.84c0-12,8.88-21.73,19.84-21.73H710.19c11,0,19.85,9.73,19.85,21.73V466.17L519.12,594.94a16.85,16.85,0,0,1-18.91,0L289.3,466.17ZM793,752.55h0a50.25,50.25,0,0,1-50.25,50.25H281.26A50.26,50.26,0,0,1,231,752.55V487.18a49.83,49.83,0,0,1,.79-8.6L497,644c.32.2.67.34,1,.52s.71.39,1.07.56a27.62,27.62,0,0,0,5.77,2.26l.61.13a28.66,28.66,0,0,0,6.55.82h0a28.11,28.11,0,0,0,6.55-.82l.61-.13A27.84,27.84,0,0,0,525,645c.36-.17.72-.36,1.07-.56s.68-.32,1-.52L792.21,478.58a49.83,49.83,0,0,1,.79,8.6Z"/></g></svg>