<svg xmlns="http://www.w3.org/2000/svg" viewBox="0 0 1024 1024"><defs><style>.cls-1{fill:#f75b37;}</style></defs><title>toornamen icon (3)</title><g id="Layer_45" data-name="Layer 45"><path class="cls-1" d="M512,0C229.21,0,0,229.25,0,512s229.21,512,512,512,512-229.25,512-512S794.75,0,512,0ZM671.08,267c52.63,0,95.29,42.89,95.29,95.81s-42.66,95.81-95.29,95.81-95.29-42.89-95.29-95.81S618.45,267,671.08,267Zm-286-53.4c60.44,0,109.43,49.26,109.43,110s-49,110-109.43,110-109.43-49.26-109.43-110S324.67,213.55,385.1,213.55ZM623.3,664.78c0,17.48-11.29,31.66-25.19,31.66H385.55v0h-2.3v0H170.69c-13.91,0-25.19-14.18-25.19-31.66V584.08c0-80.78,52-146.24,116.21-146.24H299c22.93,23.61,52.18,37.74,84.11,37.74h2.66c31.92,0,61.18-14.13,84.11-37.74h37.26c64.2,0,116.21,65.47,116.21,146.24Zm233.26,31.67H671.47v0h-2v0H645.54a67.47,67.47,0,0,0,7.76-31.67v-80.7c0-30.8-6.51-60.48-18.73-86.63a94.2,94.2,0,0,0,34.74,6.66h2.31c27.8,0,53.28-12.3,73.24-32.86h32.45c55.9,0,101.19,57,101.19,127.35v70.27C878.5,684.1,868.67,696.45,856.56,696.45Z"/></g></svg>