<svg xmlns="http://www.w3.org/2000/svg" viewBox="0 0 1024 1024"><title>toornamen icon (2)</title><g id="Layer_29" data-name="Layer 29"><path d="M512,0C229.22,0,0,229.26,0,512s229.22,512,512,512,512-229.22,512-512S794.74,0,512,0ZM423.72,265.66a19.41,19.41,0,0,1,19.41-19.43h20.56a49.78,49.78,0,0,1,99.55,0h21.31A19.43,19.43,0,0,1,604,265.66V347a19.43,19.43,0,0,1-19.41,19.43H443.13A19.42,19.42,0,0,1,423.72,347Zm307.1,521.92c0,16-12.38,29.71-28.42,29.71H324.53c-16,0-29-13.67-29-29.71V322.65a29,29,0,0,1,29-29h71.14v39.62c0,26.28,20.75,63.17,47.06,63.17H584.29c26.25,0,47.75-20.8,47.75-47.09v-55.7h70.38c16,0,28.41,13,28.41,29v81.53L638.89,536l-245.17.63a21.37,21.37,0,0,0,0,42.73H608.66L569.4,635.44H393.72a21.36,21.36,0,0,0,0,42.72H538.86l-1.5,2.16a36,36,0,0,0-6.37,24.2l3.57,42a36.39,36.39,0,0,0,46.16,32l40.69-11.11a36.86,36.86,0,0,0,20.26-14.22l89.15-126.6ZM575.89,674.44l58,40.43-15.36,22A8.31,8.31,0,0,1,614,740.1L573,751.3a7.7,7.7,0,0,1-2.14.31,8.36,8.36,0,0,1-4.68-1.52,8.1,8.1,0,0,1-3.44-6l-3.63-42.24a8,8,0,0,1,1.39-5.38ZM812,456.52l-155.38,227-57.94-40.41L754,416.09a13.71,13.71,0,0,1,19.12-3.4l35.41,24.68A13.69,13.69,0,0,1,812,456.52Z"/><path d="M393.72,480.53H633.25a21.36,21.36,0,0,0,0-42.72H393.72a21.36,21.36,0,0,0,0,42.72Z"/><path d="M513.49,224.3a22.22,22.22,0,0,0-22.23,21.95h44.41A22.18,22.18,0,0,0,513.49,224.3Z"/></g></svg>