<svg xmlns="http://www.w3.org/2000/svg" viewBox="0 0 1024 1024"><title>toornamen icon (2)</title><g id="Layer_37" data-name="Layer 37"><path d="M512,0C229.21,0,0,229.25,0,512s229.21,512,512,512,512-229.25,512-512S794.75,0,512,0ZM672.73,661.76H656.1a5.54,5.54,0,0,0-5.54,5.54V787.23H277.67C225,787.23,182,744.15,182,691.51V316.71C182,264.07,225,221,277.67,221h374.8c52.64,0,95.71,43.07,95.71,95.71V562a77.71,77.71,0,0,0-75.45,77.59ZM842,785.86A17.16,17.16,0,0,1,824.9,803h-120a17.16,17.16,0,0,1-17.14-17.14V678.69A4.29,4.29,0,0,1,692,674.4h12.86V657.26a60,60,0,1,1,120,0V674.4h12.86a4.29,4.29,0,0,1,4.29,4.29ZM764.89,623a34.34,34.34,0,0,0-34.3,34.3V674.4h68.59V657.26A34.33,34.33,0,0,0,764.89,623ZM782,725.84a17.15,17.15,0,0,0-34.29,0,16.92,16.92,0,0,0,7,13.79L752,763.95a4.3,4.3,0,0,0,4.26,4.76h17.15a4.28,4.28,0,0,0,4.26-4.76L775,739.63A16.94,16.94,0,0,0,782,725.84Z"/><rect x="389.77" y="353.02" width="249.71" height="37.29"/><path d="M637,355.52v32.29H392.27V355.52H637m5-5H387.27v42.29H642V350.52Z"/><rect x="389.77" y="481.99" width="249.71" height="37.29"/><path d="M637,484.49v32.29H392.27V484.49H637m5-5H387.27v42.29H642V479.49Z"/><rect x="389.77" y="608.75" width="249.71" height="37.29"/><path d="M637,611.25v32.29H392.27V611.25H637m5-5H387.27v42.29H642V606.25Z"/><circle cx="318.09" cy="370.01" r="34.09"/><circle cx="318.09" cy="500.01" r="34.09"/><circle cx="318.09" cy="631.01" r="34.09"/><path d="M783,724.84a17.15,17.15,0,1,0-34.29,0,17,17,0,0,0,7,13.79L753.05,763a4.29,4.29,0,0,0,4.26,4.76h17.15a4.29,4.29,0,0,0,4.26-4.76L776,738.63A17,17,0,0,0,783,724.84Z"/><path d="M765.89,622a34.33,34.33,0,0,0-34.29,34.29V673.4h68.59V656.26A34.33,34.33,0,0,0,765.89,622Z"/><path d="M513-1C230.21-1,1,228.25,1,511s229.21,512,512,512,512-229.25,512-512S795.75-1,513-1ZM673.73,660.76H657.1a5.55,5.55,0,0,0-5.54,5.54V786.23H278.67C226,786.23,183,743.15,183,690.51V315.71C183,263.07,226,220,278.67,220h374.8c52.64,0,95.72,43.07,95.72,95.72V561a77.71,77.71,0,0,0-75.45,77.59ZM843,784.86A17.16,17.16,0,0,1,825.9,802h-120a17.16,17.16,0,0,1-17.15-17.15V677.69A4.29,4.29,0,0,1,693,673.4h12.86V656.26a60,60,0,1,1,120,0V673.4h12.86a4.29,4.29,0,0,1,4.29,4.29Z"/><path d="M638,349.52H388.27v42.29H643V349.52Z"/><path d="M393.27,478.49h-5v42.29H643V478.49H393.27Z"/><path d="M393.27,605.25h-5v42.29H643V605.25H393.27Z"/><circle cx="319.09" cy="369.01" r="34.09"/><circle cx="319.09" cy="499.01" r="34.09"/><circle cx="319.09" cy="630.01" r="34.09"/></g></svg>