<svg xmlns="http://www.w3.org/2000/svg" viewBox="0 0 1024 1024"><defs><style>.cls-1{fill:#f5f5f5;}</style></defs><title>toornamen icon</title><g id="Layer_3" data-name="Layer 3"><path class="cls-1" d="M512,0C229.22,0,0,229.26,0,512s229.22,512,512,512,512-229.22,512-512S794.74,0,512,0Zm0,173.47a154.18,154.18,0,1,1-154.16,154.2A154.22,154.22,0,0,1,512,173.47ZM842.36,776.34A34.64,34.64,0,0,1,807.72,811H216.28a34.68,34.68,0,0,1-34.69-34.64V688.07a160,160,0,0,1,160-160h51.29a183,183,0,0,0,231.56,0h57.95a160,160,0,0,1,160,160Z"/></g></svg>