<svg xmlns="http://www.w3.org/2000/svg" viewBox="0 0 1024 1024"><defs><style>.cls-1{fill:#f5f5f5;}</style></defs><title>toornamen icon (2)</title><g id="Layer_22" data-name="Layer 22"><path class="cls-1" d="M512,0C229.21,0,0,229.25,0,512s229.21,512,512,512,512-229.25,512-512S794.75,0,512,0ZM267.79,816.82h-80V529.35h80Zm142.12,0H329.86V621.73h80.05Zm142.11,0H472v-349H552Zm142.11,0H614.09V514h80.05Zm142.11,0h-80V375.4h80Zm-40-529.58a39.84,39.84,0,0,1-20.85-5.86L688.8,365.81a40,40,0,1,1-74.72,20c0-.86,0-1.71.09-2.55L545.8,361A40,40,0,0,1,493,374.81l-89.51,97A40,40,0,1,1,332,480.72l-77.1-50.1A40,40,0,1,1,265.69,414l77.1,50.11a40,40,0,0,1,46.1-5.77l89.51-97A40,40,0,1,1,552,339.58c0,.86,0,1.71-.09,2.55l68.38,22.21A40,40,0,0,1,675,351.59l86.58-84.44a40,40,0,1,1,34.7,20.08Z"/></g></svg>