<svg xmlns="http://www.w3.org/2000/svg" viewBox="0 0 1024 1024"><title>new icon</title><g id="Layer_3" data-name="Layer 3"><path d="M512,86A426.13,426.13,0,0,1,677.79,904.56,426.13,426.13,0,0,1,346.21,119.44,423.27,423.27,0,0,1,512,86m0-80C232.54,6,6,232.54,6,512s226.54,506,506,506,506-226.54,506-506S791.46,6,512,6Z"/><path d="M324.52,252.31A28.93,28.93,0,0,0,322,264.2l-.75,498.33A28.64,28.64,0,0,0,325.61,778l75.81-130.85.4-266.32Zm355.68,261.6L426.34,660,350.06,791.61a28.63,28.63,0,0,0,14.65-3.9L796.66,539.2a29,29,0,0,0,.07-50.23L365.54,239.15a28.69,28.69,0,0,0-18.48-3.68L426,366.62Z"/></g></svg>