<svg xmlns="http://www.w3.org/2000/svg" viewBox="0 0 1024 1024"><title>toornamen icon (2)</title><g id="Layer_42" data-name="Layer 42"><path d="M512,0C229.21,0,0,229.25,0,512s229.21,512,512,512,512-229.25,512-512S794.75,0,512,0ZM376.15,736.39H327.3v48.85a15.26,15.26,0,1,1-30.53,0V736.39H247.92a15.26,15.26,0,1,1,0-30.53h48.85V657a15.26,15.26,0,1,1,30.53,0v48.85h48.85a15.26,15.26,0,1,1,0,30.53Zm259.49-61.57a61.75,61.75,0,0,1-61.56,61.57H418.76a45.29,45.29,0,0,0,0-30.53H574.08a31.21,31.21,0,0,0,31-31V459.08a31.19,31.19,0,0,0-31-31H358.34a31.21,31.21,0,0,0-31,31V614.4a45.29,45.29,0,0,0-30.53,0V459.08a61.75,61.75,0,0,1,61.57-61.56H574.08a61.75,61.75,0,0,1,61.56,61.56Zm155.7-174a61.75,61.75,0,0,1-61.57,61.57h-57.5V422.45a61.75,61.75,0,0,0-61.57-61.57H452.47V285.07A61.74,61.74,0,0,1,514,223.5H729.77a61.74,61.74,0,0,1,61.57,61.57Z"/></g></svg>