<svg xmlns="http://www.w3.org/2000/svg" viewBox="0 0 1024 1024"><title>toornamen icon (3)</title><g id="Layer_70" data-name="Layer 70"><path d="M512,0C229.21,0,0,229.25,0,512s229.21,512,512,512,512-229.25,512-512S794.75,0,512,0ZM769.24,403.78,644,529a71.91,71.91,0,0,1-101.68,0l-4.9-4.9L524.1,537.44l4.89,4.89A72,72,0,0,1,529,644L403.79,769.25a71.92,71.92,0,0,1-101.71,0L254.76,721.9a72,72,0,0,1,0-101.68L380,495a71.92,71.92,0,0,1,101.7,0l4.89,4.89,13.33-13.33L495,481.67A72,72,0,0,1,495,380L620.23,254.76a71.91,71.91,0,0,1,101.7,0l47.34,47.35A72,72,0,0,1,769.24,403.78Z"/><path d="M486.54,575,462.33,599.2l-37.55-37.54L449,537.44l-4.89-4.89a18.79,18.79,0,0,0-26.57,0L292.31,657.76a18.81,18.81,0,0,0,0,26.57l47.34,47.35a19.24,19.24,0,0,0,26.58,0l125.2-125.22a18.82,18.82,0,0,0,0-26.59Z"/><path d="M684.35,292.31a18.8,18.8,0,0,0-26.6,0L532.54,417.53a18.83,18.83,0,0,0,0,26.58l4.89,4.89,37.14-37.15,37.55,37.55L575,486.55l4.89,4.89a19.24,19.24,0,0,0,26.58,0l125.21-125.2a18.82,18.82,0,0,0,0-26.58Z"/></g></svg>