<svg xmlns="http://www.w3.org/2000/svg" viewBox="0 0 1024 1024"><defs><style>.cls-1{fill:#f5f5f5;}</style></defs><title>toornamen icon</title><g id="Layer_83" data-name="Layer 83"><path class="cls-1" d="M512,0C229.21,0,0,229.25,0,512s229.21,512,512,512,512-229.25,512-512S794.75,0,512,0ZM400.54,490a20.06,20.06,0,0,0,3.21.28h99a20,20,0,0,0,0-40h-99a20.06,20.06,0,0,0-3.21.28V413.93a20.06,20.06,0,0,0,3.21.28h99a20,20,0,0,0,0-40h-99a20.06,20.06,0,0,0-3.21.28v-33a20.06,20.06,0,0,0,3.21.28h99a20,20,0,0,0,0-40h-99a20.39,20.39,0,0,0-2.08.11C409.39,248,456,206.29,511.92,206.29h0c61.25,0,111.37,50.12,111.37,111.38V505.58c0,61.26-50.12,111.38-111.37,111.38h0c-61.26,0-111.38-50.12-111.38-111.38ZM586.17,805.33a12.42,12.42,0,0,1-12.38,12.38H450a12.41,12.41,0,0,1-12.37-12.38h0A12.41,12.41,0,0,1,450,793H573.79a12.41,12.41,0,0,1,12.38,12.37ZM473.72,762l20.78-70.81h33L548.28,762c2,7-5.22,13.52-15,13.52H488.69C478.94,775.54,471.68,769,473.72,762ZM709,408.76A20.35,20.35,0,0,1,688.71,429h-4.46v93c0,85.21-77.31,154.53-172.33,154.53S339.58,607.22,339.58,522V429h-6.29A20.35,20.35,0,0,1,313,408.76v-.68a20.35,20.35,0,0,1,20.29-20.29H367a20.35,20.35,0,0,1,20.29,20.29v.68A20.35,20.35,0,0,1,367,429H365v93c0,70.48,65.89,127.81,146.89,127.81S658.81,592.49,658.81,522V429H655a20.35,20.35,0,0,1-20.29-20.28v-.68A20.35,20.35,0,0,1,655,387.79h33.67A20.35,20.35,0,0,1,709,408.08Z"/></g></svg>