<svg xmlns="http://www.w3.org/2000/svg" viewBox="0 0 1024 1024"><title>toornamen icon (3)</title><g id="Layer_68" data-name="Layer 68"><path d="M512,0C229.21,0,0,229.25,0,512s229.21,512,512,512,512-229.25,512-512S794.75,0,512,0ZM752.93,395.55c.23,5.09.35,10.21.35,15.34,0,156.09-118.78,336-336.09,336a334.1,334.1,0,0,1-181.06-53A238.5,238.5,0,0,0,411,645a118.23,118.23,0,0,1-110.34-82,118.58,118.58,0,0,0,53.33-2,118.14,118.14,0,0,1-94.74-115.82c0-.5,0-1,0-1.49a117.63,117.63,0,0,0,53.48,14.76,118.3,118.3,0,0,1-36.55-157.7A335.39,335.39,0,0,0,519.66,424.13,118.2,118.2,0,0,1,720.93,316.38a235.77,235.77,0,0,0,75-28.67,118.65,118.65,0,0,1-52,65.36,234.83,234.83,0,0,0,67.84-18.58A237.6,237.6,0,0,1,752.93,395.55Z"/></g></svg>