<svg xmlns="http://www.w3.org/2000/svg" viewBox="0 0 1024 1024"><title>icon-birthday</title><g id="Layer_73" data-name="Layer 73"><path d="M512,0C229.21,0,0,229.25,0,512s229.21,512,512,512,512-229.25,512-512S794.75,0,512,0ZM683,208.62s40.24,58.26,40.24,80.48a40.24,40.24,0,1,1-80.48,0C642.78,266.88,683,208.62,683,208.62Zm30.18,161v85.51H652.84V369.58ZM512,188.5s40.24,58.26,40.24,80.48a40.24,40.24,0,0,1-80.48,0C471.76,246.76,512,188.5,512,188.5Zm30.18,161V455.09H481.82V349.46ZM341,208.62s2,2.92,5,7.54c10.87,16.5,35.21,55.63,35.21,72.94A40.3,40.3,0,0,1,346.11,329H346a41,41,0,0,1-5,.3,40.24,40.24,0,0,1-40.24-40.24C300.74,266.87,341,208.62,341,208.62Zm30.18,161v85.51H310.8V369.58Zm402.4,375.07a56.85,56.85,0,0,1-56.85,56.85H307.29a56.85,56.85,0,0,1-56.85-56.85V705.73a74.4,74.4,0,0,0,19.87,2.72h.4A74.82,74.82,0,0,0,324,686.39,75.84,75.84,0,0,0,346,633V592.75a5,5,0,0,1,1.46-3.51,2.74,2.74,0,0,1,.34-.31c.36-.2.79-.45,1.27-.74.28-.08.54-.16.8-.25l.16-.05.16-.05h.14l.1,0h.6c.28,0,.57.09.87.11l.16,0,.21.08.16.05.18.05a4.73,4.73,0,0,1,3.43,4.55V652c0,41.4,32.87,75.95,74.27,76.59A75.54,75.54,0,0,0,507,653.11V592.75a5,5,0,0,1,1.46-3.51,2.76,2.76,0,0,1,.34-.31c.36-.2.79-.45,1.27-.74.28-.08.54-.16.8-.25l.16-.05.16-.05h.14l.1,0h.6c.28,0,.57.09.87.11l.16,0,.21.08.16.05.18.05a4.73,4.73,0,0,1,3.43,4.55v19c0,41.4,32.87,75.95,74.27,76.59a75.54,75.54,0,0,0,76.64-75.44V592.75a5,5,0,0,1,1.46-3.51,2.73,2.73,0,0,1,.34-.31c.36-.2.79-.45,1.27-.74.28-.08.54-.16.8-.25l.16-.05.16-.05h.14l.1,0h.6c.28,0,.57.09.87.11l.16,0,.21.08.16.05.18.05a4.73,4.73,0,0,1,3.43,4.55V633A75.84,75.84,0,0,0,700,686.39a74.82,74.82,0,0,0,53.24,22.06h.21a76.37,76.37,0,0,0,20.06-2.7ZM339.79,552.72c.75-.31,1.55-.49,2.32-.74C341.34,552.24,340.54,552.42,339.79,552.72Zm6-1.7c.86-.15,1.77-.19,2.67-.28C347.54,550.83,346.64,550.87,345.77,551Zm155,1.7c.75-.31,1.55-.49,2.32-.74C502.3,552.24,501.5,552.42,500.75,552.72Zm6-1.7c.86-.15,1.77-.19,2.67-.28C508.5,550.83,507.6,550.87,506.73,551Zm155,1.7c.75-.31,1.55-.49,2.32-.74C663.26,552.24,662.46,552.42,661.71,552.72Zm6-1.7c.86-.15,1.77-.19,2.67-.28C669.46,550.83,668.56,550.87,667.69,551Zm136.05,69.88a50.59,50.59,0,0,1-30.18,46.17h0a51.25,51.25,0,0,1-20.12,4.13h-.15l-1.15,0-1.27,0-1.23-.09L748.4,671l-1.22-.15-1.24-.15-1.16-.2c-.42-.07-.85-.14-1.27-.22l-1.08-.24c-.44-.1-.88-.19-1.32-.3l-1-.27c-.46-.13-.93-.25-1.39-.39l-.86-.28c-.49-.16-1-.31-1.47-.49l-.74-.28c-.52-.2-1-.39-1.55-.6l-.59-.26c-.55-.24-1.11-.47-1.65-.73l-.42-.21c-.59-.29-1.19-.58-1.77-.89l-.29-.16c-.62-.34-1.24-.68-1.85-1l-.13-.08a50.14,50.14,0,0,1-24.27-43.1V580.67A30.15,30.15,0,0,0,682,552.06c-.58-.19-1.14-.38-1.75-.54s-1.48-.31-2.22-.43l-1-.16-.4-.07-.81-.17c-.38,0-.77-.07-1.17-.09h-.45c-.42,0-.79-.13-1.2-.13a25.74,25.74,0,0,0-2.6.18l-1.45.12c-.41,0-.82.08-1.22.15s-.71.17-1.07.26l-1.12.3c-.49.14-1,.29-1.46.45-.77.25-1.58.42-2.32.73s-1.19.54-1.77.83l-.18.09c-.57.3-1.14.61-1.69.94-.19.13-.39.23-.59.34-.4.22-.8.43-1.17.68a30.28,30.28,0,0,0-10.61,12.19l0,0c-.18.39-.35.78-.52,1.17l-.08.18c-.06.15-.11.29-.17.44a30.12,30.12,0,0,0-2.13,11.11v20.12a50.24,50.24,0,0,1-45.16,50,50.32,50.32,0,0,1-53.18-35.08,50.28,50.28,0,0,1-2.26-15V580.67A30.06,30.06,0,0,0,521,552.06c-.58-.19-1.14-.38-1.75-.54s-1.48-.31-2.24-.43l-1-.16-.38-.07-.82-.18c-.38,0-.77-.07-1.17-.09h-.45c-.41,0-.79-.13-1.19-.13a25.76,25.76,0,0,0-2.6.18l-1.44.12c-.41,0-.82.08-1.22.15s-.7.17-1.06.26l-1.15.3c-.49.14-1,.28-1.45.45-.77.25-1.58.42-2.32.73-.6.25-1.18.53-1.76.83l-.21.11c-.57.29-1.13.6-1.67.93-.2.13-.4.23-.6.34-.4.22-.79.43-1.16.67a30.27,30.27,0,0,0-10.61,12.19l0,0c-.18.39-.35.78-.52,1.17l-.08.18c-.06.15-.11.29-.17.44a30.13,30.13,0,0,0-2.13,11.11V641q0,1.3-.07,2.59t-.19,2.55a50.2,50.2,0,0,1-.76,5q-.25,1.23-.56,2.43a50.27,50.27,0,0,1-48.72,37.73,50.85,50.85,0,0,1-5.14-.26A50.34,50.34,0,0,1,382.8,653.6q-.31-1.21-.56-2.43a50.28,50.28,0,0,1-.76-5q-.13-1.27-.19-2.55t-.07-2.59V580.67a30,30,0,0,0-21.15-28.61c-.58-.19-1.14-.38-1.75-.54s-1.48-.31-2.23-.43l-1-.16-.39-.07-.82-.18c-.38,0-.77-.07-1.17-.09h-.45c-.41,0-.79-.13-1.19-.13a25.75,25.75,0,0,0-2.6.18l-1.45.12c-.41,0-.82.08-1.22.15s-.71.17-1.06.26l-1.14.3c-.49.14-1,.28-1.45.45-.77.25-1.58.42-2.32.73-.59.25-1.18.53-1.76.83l-.21.11c-.57.29-1.13.6-1.67.93-.2.13-.4.24-.6.35-.4.22-.79.43-1.16.67a29.92,29.92,0,0,0-9.24,9.64l-.18.32c-.19.32-.37.64-.55,1s-.41.8-.6,1.2l-.06.11c-.08.17-.15.34-.23.51a30.12,30.12,0,0,0-2.67,12.38v40.24a50.11,50.11,0,0,1-22.21,41.79l-.12.08c-.6.4-1.21.78-1.82,1.15l-.26.16c-.57.34-1.15.66-1.74,1l-.4.23c-.56.3-1.12.58-1.69.85l-.5.25c-.53.25-1.06.48-1.6.71l-.65.29c-.5.21-1,.4-1.52.59l-.77.3c-.48.17-1,.32-1.45.48l-.89.29c-.45.14-.92.26-1.37.38l-1,.27c-.43.11-.87.2-1.31.3l-1.09.24c-.42.08-.84.15-1.26.22l-1.17.2-1.23.15-1.22.15-1.24.09-1.23.09-1.27,0-1.15,0h-.4l-.82,0c-.54,0-1.08,0-1.62,0l-.92-.06c-.54,0-1.08-.07-1.62-.13l-.86-.1c-.56-.07-1.11-.13-1.66-.22l-.78-.13c-.58-.1-1.15-.2-1.73-.31l-.68-.15c-.61-.13-1.21-.27-1.81-.43l-.56-.15c-.64-.17-1.28-.36-1.91-.56l-.42-.14q-1-.33-2-.7l-.27-.1q-1.08-.41-2.13-.86l0,0h0a49.86,49.86,0,0,1-15.49-10.55,50.52,50.52,0,0,1-14.69-35.61V530.37a40.24,40.24,0,0,1,40.24-40.24h503a40.24,40.24,0,0,1,40.24,40.24Z"/></g></svg>