<svg xmlns="http://www.w3.org/2000/svg" viewBox="0 0 1024 1024"><defs><style>.cls-1{fill:#f5f5f5;}</style></defs><title>toornamen icon</title><g id="Layer_4" data-name="Layer 4"><path class="cls-1" d="M512,200A129,129,0,0,0,383.11,328.89v64.44H640.89V328.89A129,129,0,0,0,512,200Z"/><path class="cls-1" d="M576.45,586.67a64.44,64.44,0,1,0-128.89,0,63.74,63.74,0,0,0,26.37,51.83l-10.16,91.4a16.12,16.12,0,0,0,16,17.89h64.44a16.12,16.12,0,0,0,16-17.89l-10.16-91.4A63.74,63.74,0,0,0,576.45,586.67Z"/><path class="cls-1" d="M512,0C229.22,0,0,229.26,0,512s229.22,512,512,512,512-229.22,512-512S794.74,0,512,0ZM802,812.22a64.51,64.51,0,0,1-64.44,64.44H286.44A64.51,64.51,0,0,1,222,812.22V409.44a16.1,16.1,0,0,1,16.11-16.11h48.33V328.89c0-124.37,101.18-225.56,225.56-225.56S737.56,204.52,737.56,328.89v64.44h48.33A16.1,16.1,0,0,1,802,409.44Z"/></g></svg>