<?xml version="1.0" encoding="utf-8"?>
<!-- Generator: Adobe Illustrator 19.1.0, SVG Export Plug-In . SVG Version: 6.00 Build 0)  -->
<svg version="1.1" id="Layer_1" xmlns="http://www.w3.org/2000/svg" xmlns:xlink="http://www.w3.org/1999/xlink" x="0px" y="0px"
	 viewBox="0 0 512 512" style="enable-background:new 0 0 512 512;" xml:space="preserve">
<style type="text/css">
	.st0{fill:#F61C0D;}
	.st1{fill:#3A559F;}
	.st2{fill:#76A9EA;}
	.st3{fill:url(#SVGID_1_);}
	.st4{fill:#FFFFFF;}
</style>
<linearGradient id="SVGID_1_" gradientUnits="userSpaceOnUse" x1="74.9813" y1="437.02" x2="437.0187" y2="74.98">
	<stop  offset="0" style="stop-color:#FFC107"/>
	<stop  offset="0.507" style="stop-color:#F44336"/>
	<stop  offset="0.99" style="stop-color:#9C27B0"/>
</linearGradient>
<circle class="st3" cx="256" cy="256" r="256"/>
<g>
	<path class="st4" d="M307.6,118.4H204.4c-47.5,0-86,38.5-86,86v103.2c0,47.5,38.5,86,86,86h103.2c47.5,0,86-38.5,86-86V204.4
		C393.6,156.9,355.1,118.4,307.6,118.4z M367.8,307.6c0,33.2-27,60.2-60.2,60.2H204.4c-33.2,0-60.2-27-60.2-60.2V204.4
		c0-33.2,27-60.2,60.2-60.2h103.2c33.2,0,60.2,27,60.2,60.2V307.6z"/>
	<path class="st4" d="M256,187.2c-38,0-68.8,30.8-68.8,68.8s30.8,68.8,68.8,68.8s68.8-30.8,68.8-68.8S294,187.2,256,187.2z M256,299
		c-23.7,0-43-19.3-43-43c0-23.7,19.3-43,43-43s43,19.3,43,43C299,279.7,279.7,299,256,299z"/>
	<circle class="st4" cx="330" cy="182" r="9.2"/>
</g>
</svg>
