<svg xmlns="http://www.w3.org/2000/svg" viewBox="0 0 1024 1024"><defs><style>.cls-1{fill:#f5f5f5;}</style></defs><title>toornamen icon (4)</title><g id="Layer_21" data-name="Layer 21"><path class="cls-1" d="M512,0C229.21,0,0,229.25,0,512s229.21,512,512,512,512-229.25,512-512S794.75,0,512,0ZM431.1,518.28a113.17,113.17,0,0,1-10.29,47.3L573,634.76a113.18,113.18,0,1,1-19.58,40.54L393.57,602.65a113.59,113.59,0,1,1-10-176.76L553.41,348.7A113.68,113.68,0,1,1,573,389.24L415.51,460.82A113.06,113.06,0,0,1,431.1,518.28Z"/></g></svg>