<svg xmlns="http://www.w3.org/2000/svg" viewBox="0 0 1024 826"><title>toornamen icon</title><g id="Layer_17" data-name="Layer 17"><path id="_Path_" data-name="&lt;Path&gt;" d="M125.82,257.84Q144,270.22,235.17,331.36t139.75,94.15q5.33,3.62,22.66,15.74t28.8,19.61q11.47,7.48,27.74,16.76a163.49,163.49,0,0,0,30.67,13.91,87.08,87.08,0,0,0,26.67,4.64h1.07a87.16,87.16,0,0,0,26.67-4.64,163.65,163.65,0,0,0,30.67-13.91q16.26-9.29,27.73-16.76t28.8-19.61q17.33-12.14,22.67-15.74,49.06-33,249.62-167.68a249.3,249.3,0,0,0,65.07-63.46q26.15-37.13,26.14-77.89,0-34.06-25.34-58.3t-60-24.25H119.42q-41.07,0-63.21,26.82T34.08,127.82q0,32.5,29.34,70.43T125.82,257.84Z"/><path id="_Path_2" data-name="&lt;Path&gt;" d="M936.57,344.76Q761.64,459.29,671,522.76q-30.4,21.66-49.34,33.79t-50.41,24.76Q539.74,594,512.54,594h-1.08q-27.2,0-58.67-12.64t-50.4-24.76q-18.93-12.12-49.33-33.79-72-51.07-265.1-178a280.14,280.14,0,0,1-53.88-44.88V709.52q0,34.07,25.07,58.31t60.28,24.25H904.58q35.2,0,60.27-24.25t25.07-58.31V299.87A291.49,291.49,0,0,1,936.57,344.76Z"/></g></svg>