<svg xmlns="http://www.w3.org/2000/svg" viewBox="0 0 982 472"><title>toornamen icon</title><g id="Layer_9" data-name="Layer 9"><path d="M965.89,225.16c-45.06-44.25-234-214.52-474.55-215.33h-.68C370.39,10.23,263,53,180.08,101.2S38.64,203,16.11,225.16a14.61,14.61,0,0,0,0,20.82c45,44.33,234,215.08,474.56,216.17v0h.68v0C731.89,461.06,920.87,290.31,965.9,246A14.61,14.61,0,0,0,965.89,225.16ZM491,406.36A170.36,170.36,0,1,1,661.37,236,170.37,170.37,0,0,1,491,406.36Z"/><path d="M581.34,236a90.34,90.34,0,1,1-166.05-49.3A45.55,45.55,0,0,0,484.81,148c0-.71,0-1.41-.06-2.1,2.07-.14,4.15-.22,6.26-.22A90.34,90.34,0,0,1,581.34,236Z"/></g></svg>