<svg xmlns="http://www.w3.org/2000/svg" viewBox="0 0 1024 1024"><defs><style>.cls-1{fill:#f5f5f5;}</style></defs><title>toornamen icon</title><g id="Layer_83" data-name="Layer 83"><path class="cls-1" d="M478.49,560.56l11.59.29-3.42,11.08c-8.53,27.65,12.54,73.86,33.59,106.67L636.9,594.85C612.54,564.41,574,530.77,545,530l-11.58-.3,3.42-11.08c8.53-27.66-13.94-79-35-111.85L385.22,490.55C409.59,521,449.56,559.8,478.49,560.56Zm19.94-121.45c8.05,12.56,3.89,28.69-2.11,48.14a42,42,0,0,1-10,17.83c.36.16.58.28.58.28,23.77,33.11,44.79,39.53,44.79,39.53l10.79-1.21c22,.58,44.35,15.8,62.84,38.91l-86.58,62.16c-16-24.91-22.12-53.6-15.63-74.61a25.78,25.78,0,0,0,2.6-8.4c-.17-14.45-25.05-49.86-26.15-51.41-5.21,2.95-11.89,4.66-20.46,3.65-30.25-3.57-37-1.74-46.29-13.39Z"/><path class="cls-1" d="M512,0C229.21,0,0,229.25,0,512s229.21,512,512,512,512-229.25,512-512S794.75,0,512,0ZM337.8,293.5c4.75-3.53,9.68-6.95,14.65-10.18a23.52,23.52,0,0,1,25.64,39.44c-4.17,2.71-8.31,5.58-12.3,8.54a23.52,23.52,0,1,1-28-37.8Zm-68.71,71.86c3.31-4.92,6.8-9.79,10.41-14.49a23.52,23.52,0,1,1,37.35,28.58c-3,3.94-6,8-8.72,12.15a23.52,23.52,0,0,1-39-26.24Zm-40.54,90.78c1.46-5.74,3.11-11.5,4.92-17.12a23.52,23.52,0,1,1,44.79,14.35c-1.51,4.72-2.9,9.56-4.13,14.39a23.52,23.52,0,0,1-45.58-11.62Zm-7.94,99.13c-.54-5.91-.9-11.91-1.08-17.84a23.52,23.52,0,0,1,47-1.41c.14,5,.45,10,.91,15a23.53,23.53,0,0,1-21.28,25.57c-.73.07-1.45.1-2.17.1A23.53,23.53,0,0,1,220.61,555.27ZM277.7,662.75a23.48,23.48,0,0,1-31.22-11.45c-2.49-5.38-4.85-10.89-7-16.4a23.52,23.52,0,1,1,43.8-17.15c1.82,4.62,3.79,9.26,5.89,13.78A23.51,23.51,0,0,1,277.7,662.75Zm58.46,70.75a23.53,23.53,0,0,1-33.26-.39c-4.13-4.23-8.19-8.64-12.06-13.12a23.52,23.52,0,1,1,35.58-30.77c3.25,3.76,6.66,7.47,10.12,11A23.53,23.53,0,0,1,336.16,733.5ZM510.83,369.65l15.65,21.8-9,6.49,5.11,7.13c25.5,35.51,36.73,76.81,30.59,110.51,33.89,4.95,69.43,28.79,94.93,64.31l4.06,5.65,9-6.49,15.66,21.8L513.17,718.35l-15.65-21.8,9-6.49-4.06-5.66c-25.5-35.51-36.73-76.81-30.59-110.5-33.89-5-69.43-28.8-94.93-64.32l-5.12-7.12-9,6.49-15.66-21.8Zm293.44,169.7c0,.43-.07.85-.12,1.28a289.83,289.83,0,0,1-60.6,166.53c-.13.16-.23.34-.35.5-3.62,4.67-7.45,9.3-11.36,13.75-.25.28-.52.53-.78.8q-5.94,6.7-12.31,13.09A290.28,290.28,0,0,1,561.3,816.84l-.55.1-.4,0a296.75,296.75,0,0,1-48.41,4,290,290,0,0,1-123.45-27.26,22.16,22.16,0,0,1-2.4-1.31,20.94,20.94,0,0,1-2.56-1.06c-5.33-2.6-10.64-5.39-15.8-8.31a23.52,23.52,0,0,1,23.17-40.94c4.32,2.45,8.78,4.8,13.24,7,.72.35,1.42.74,2.09,1.15a22.68,22.68,0,0,1,2.13.87,242.44,242.44,0,0,0,60.32,19.06c.27,0,.53.05.8.1,4.9.87,9.89,1.59,14.82,2.16l.16,0a250.29,250.29,0,0,0,27.48,1.51c106.72,0,197.74-68.48,231.47-163.8.5-1.45,1-2.9,1.5-4.36a245.6,245.6,0,0,0-.06-154.71c-.17-.54-.34-1.06-.52-1.6-.49-1.41-1-2.83-1.5-4.24l-.72-2a246.47,246.47,0,0,0-171.23-153l-.15,0c-1.17-.29-2.34-.58-3.52-.85l-.39-.11a245.47,245.47,0,0,0-53.61-6.17L513,308.3c-.07,7.83-5,10.1-11,5L448.7,268.15c-6-5.06-5.9-13.27.16-18.24l54.06-44.28c6.06-5,11-2.62,10.89,5.22L513.6,236a290.56,290.56,0,0,1,205.16,85.65q8.1,8.1,15.48,16.72l.09.1.53.64a290,290,0,0,1,69.43,180.79c0,.52.1,1,.11,1.57.05,2.24.08,4.51.08,6.75C804.48,531.94,804.41,535.67,804.27,539.35Z"/></g></svg>