<svg xmlns="http://www.w3.org/2000/svg" viewBox="0 0 1024 1024"><title>toornamen icon (3)</title><g id="Layer_72" data-name="Layer 72"><path d="M512,0C229.21,0,0,229.25,0,512s229.21,512,512,512,512-229.25,512-512S794.75,0,512,0ZM813.86,537c0,52-6.25,105.13-6.25,105.13s-6.25,44.76-23.94,64.54c-22.9,25-48.92,26-60.37,27.06C639,741,512,741,512,741s-157.18-1-205.06-6.24c-13.53-3.12-43.72-2.08-66.62-28.1-17.69-19.78-23.94-64.54-23.94-64.54s-6.25-52-6.25-105.13V488.06c0-53.09,6.25-106.17,6.25-106.17s5.2-44.76,23.94-64.54c22.9-25,48.92-26,60.37-27.06C385,284,512,283,512,283s127,1,211.3,7.29c11.45,1,37.47,1,60.37,27.06,17.69,19.78,23.94,64.54,23.94,64.54s6.25,53.09,6.25,106.17Z"/><polygon points="439.14 632.75 636.91 522.41 439.14 406.87 439.14 632.75"/></g></svg>