<svg xmlns="http://www.w3.org/2000/svg" viewBox="0 0 1024 1024"><title>toornamen icon (3)</title><g id="Layer_39" data-name="Layer 39"><path d="M512,0C229.21,0,0,229.25,0,512s229.21,512,512,512,512-229.25,512-512S794.75,0,512,0ZM243.37,800.26a21.5,21.5,0,1,1,21.5-21.5A21.5,21.5,0,0,1,243.37,800.26Zm62.56,1.15h-14.1c0-.51,0-1,0-1.53a71.06,71.06,0,0,0-10.17-35.24,72,72,0,0,0-23.16-23.72,75.38,75.38,0,0,0-36.19-11c-.79-4.67,0-29.73,0-29.73a100.63,100.63,0,0,1,28.93,4.85l1.16.37a101.16,101.16,0,0,1,69.07,96Zm38.79,0A124.41,124.41,0,0,0,222.29,676.9V647.24A154.2,154.2,0,0,1,374.48,801.41ZM803,715.59a85.94,85.94,0,0,1-85.84,85.84H396a175.66,175.66,0,0,0-173.74-175.8V306.57a85.94,85.94,0,0,1,85.84-85.84h409A85.94,85.94,0,0,1,803,306.57Z"/><path d="M731,545.35c0,10.92-13.61,16.84-22.5,9.8L624.56,496v39.26c0,17.57-15.19,31.82-33.92,31.82H350.92c-18.74,0-33.92-14.25-33.92-31.82V364.73c0-17.57,15.19-31.82,33.92-31.82H590.63c18.74,0,33.92,14.25,33.92,31.82v35l83.94-54.83c8.89-7,22.5-1.12,22.5,9.8Z"/></g></svg>