<svg xmlns="http://www.w3.org/2000/svg" viewBox="0 0 1024 1024"><defs><style>.cls-1{fill:#f75b37;}.cls-2{fill:#fff;}</style></defs><title>icon-play-solid2</title><g id="Layer_5" data-name="Layer 5"><path class="cls-1" d="M984.41,324.23C953,161.76,854.36,67.41,690.3,38.51,572.71,17.8,454.88,18,337.1,38,177.76,64.88,75.61,154,42.41,314.08,16.1,441,13.65,568.66,39.16,695.06,70.58,857.53,169.64,956.59,333.7,985.49c117.59,20.71,235.42,20.46,353.2.56,158.75-26.83,263.54-125,297.12-283.9C1009.06,576.71,1008.68,449.8,984.41,324.23ZM768.16,555.59,391.22,795a51.64,51.64,0,0,1-79.33-43.59V358.65l21.49,13.61,15,9.47a50.31,50.31,0,0,1,23.51,42.72V736.24l353.21-224.3-66.89-43.22L327.86,259.52,314,250.71l10.92-12.31A51.66,51.66,0,0,1,391.22,229L768.16,468.41a51.64,51.64,0,0,1,0,87.18Z"/><path class="cls-2" d="M383.72,783.13,760.65,543.77a37.65,37.65,0,0,0,0-63.55L383.72,240.86a37.66,37.66,0,0,0-48.36,6.83L665.72,456.93l77.79,50.27a5.69,5.69,0,0,1,0,9.6L366.59,756.16a5.69,5.69,0,0,1-8.74-4.8V424.45a36.56,36.56,0,0,0-17-30.89l-15-9.47V751.36a37.64,37.64,0,0,0,57.82,31.77Z"/><path class="cls-2" d="M768.16,468.41,391.22,229a51.68,51.68,0,0,0-66.34,9.36L314,250.71l13.9,8.81,330.31,209.2,66.89,43.22L371.85,736.24V424.45a50.31,50.31,0,0,0-23.51-42.72l-15-9.47-21.49-13.61V751.36A51.64,51.64,0,0,0,391.22,795L768.16,555.59a51.64,51.64,0,0,0,0-87.18Zm-7.51,75.36L383.72,783.13a37.64,37.64,0,0,1-57.83-31.77V384.09l15,9.47a36.57,36.57,0,0,1,17,30.89V751.36a5.47,5.47,0,0,0,2.95,5,5.8,5.8,0,0,0,2.77.74,5.6,5.6,0,0,0,3-.92L743.51,516.8a5.68,5.68,0,0,0,0-9.6l-77.79-50.27L335.35,247.69a37.66,37.66,0,0,1,48.37-6.83L760.65,480.22a37.64,37.64,0,0,1,0,63.55Z"/></g></svg>