<svg xmlns="http://www.w3.org/2000/svg" viewBox="0 0 1024 1024"><defs><style>.cls-1{fill:#f5f5f5;}</style></defs><title>toornamen icon (5)</title><g id="Layer_33" data-name="Layer 33"><path class="cls-1" d="M512,0C229.21,0,0,229.25,0,512s229.21,512,512,512,512-229.25,512-512S794.75,0,512,0ZM326.66,284.81c46.07,0,83.42,41.82,83.42,93.42s-37.35,93.42-83.42,93.42-83.42-41.82-83.42-93.42S280.58,284.81,326.66,284.81ZM508.24,709.15c0,16.58-8.6,30-19.2,30H327v0h-1.76v0h-162c-10.6,0-19.2-13.45-19.2-30V632.61C144,556,183.65,493.9,232.59,493.9H261c17.48,22.39,39.78,35.8,64.12,35.8h2c24.34,0,46.64-13.4,64.12-35.8h28.4c48.94,0,88.59,62.09,88.59,138.71Zm75.39-421.76H843.86a36.14,36.14,0,0,1,0,72.29H583.62a36.14,36.14,0,0,1,0-72.29ZM843.86,737.64H583.62a36.14,36.14,0,0,1,0-72.29H843.86a36.14,36.14,0,0,1,0,72.29Zm0-190H583.62a36.14,36.14,0,0,1,0-72.29H843.86a36.14,36.14,0,0,1,0,72.29Z"/></g></svg>