<?xml version="1.0" encoding="utf-8"?>
<!-- Generator: Adobe Illustrator 22.0.0, SVG Export Plug-In . SVG Version: 6.00 Build 0)  -->
<svg version="1.1" id="_ÎÓÈ_1" xmlns="http://www.w3.org/2000/svg" xmlns:xlink="http://www.w3.org/1999/xlink" x="0px" y="0px"
	 viewBox="0 0 512 512" style="enable-background:new 0 0 512 512;" xml:space="preserve">
<style type="text/css">
	.st0{fill:#FFFFFF;}
</style>
<title>icon-twitch-01</title>
<path class="st0" d="M145.9,120.5L129,171.3v186.3h67.7v33.9h33.9l33.9-33.9h50.8l67.7-72.1V120.5H145.9z M366.1,272.9l-47.4,50.8
	h-60l-36.5,26.5v-26.5h-59.3V137.5h203.2V272.9z"/>
<rect x="247.5" y="188.3" class="st0" width="16.9" height="67.7"/>
<rect x="298.3" y="188.3" class="st0" width="16.9" height="67.7"/>
<path class="st0" d="M510,255C510,114.2,395.8,0,255,0C114.2,0,0,114.2,0,255c0,140.8,114.2,255,255,255
	C395.8,510,510,395.8,510,255z M23.2,255C23.2,127,127,23.2,255,23.2S486.8,127,486.8,255S383,486.8,255,486.8S23.2,383,23.2,255z"
	/>
</svg>
