<svg xmlns="http://www.w3.org/2000/svg" viewBox="0 0 1024 1024"><defs><style>.cls-1{fill:#fff;}</style></defs><title>toornamen icon (3)</title><g id="Layer_57" data-name="Layer 57"><circle cx="512" cy="512" r="512"/><path class="cls-1" d="M758.66,346.75l-8.89,2.82-47.33,4.22-13.37,21.35-9.7-3.08-37.66-34-5.46-17.66-7.32-18.83-23.67-21.23-27.93-5.46-.64,12.78,27.36,26.7,13.39,15.77L602.39,338l-12.25-3.61-18.36-7.66.62-14.8L548.31,302l-8,34.81L516,342.34l2.4,19.42,31.63,6.09,5.46-31,26.11,3.86,12.14,7.11h19.47l13.33,26.7,35.34,35.85-2.59,13.93-28.49-3.63L581.61,445.5,546.16,488l-4.61,18.83H528.82l-23.71-10.93-23,10.93,5.73,24.3,10-11.55,17.62-.55-1.23,21.82,14.6,4.27,14.58,16.37,23.8-6.69,27.19,4.29L626,567.61l15.77,1.85,26.74,30.35,51.6,30.35L686.7,693.91l-35.22,16.37L638.1,746.72l-51,34-5.43,19.63C712,769,809,651.93,809,512A295.69,295.69,0,0,0,758.66,346.75Z"/><path class="cls-1" d="M546.14,667.21l-21.63-40.1,19.85-41.37-19.85-5.94-22.29-22.39-49.39-11.08L436.44,512V532.4h-7.22L386.65,474.7v-47.4l-31.2-50.73-49.54,8.83H272.55l-16.79-11,21.42-17-21.37,4.93A295.16,295.16,0,0,0,215,512C215,676,348,809,512,809a310.92,310.92,0,0,0,37.27-2.59l-3.1-36s13.63-53.43,13.63-55.25S546.14,667.21,546.14,667.21Z"/><path class="cls-1" d="M325.39,310.77l52.75-7.36,24.32-13.33L429.82,298l43.71-2.42,15-23.54,21.84,3.59,53-5L578,254.52l20.61-13.76,29.16,4.39,10.63-1.61A296,296,0,0,0,283,323h.15Zm199.13-66.23,30.33-16.7,19.47,11.25-28.19,21.46-26.92,2.7-12.12-7.87ZM434.7,247l13.39,5.58L465.61,247l9.55,16.54L434.7,274.14l-19.46-11.38S434.26,250.51,434.7,247Z"/></g></svg>