<svg xmlns="http://www.w3.org/2000/svg" viewBox="0 0 1024 1024"><title>toornamen icon (3)</title><g id="Layer_61" data-name="Layer 61"><path d="M512,0C229.21,0,0,229.25,0,512s229.21,512,512,512,512-229.25,512-512S794.75,0,512,0ZM808.5,685.29A123.21,123.21,0,0,1,685.29,808.5H338.71A123.21,123.21,0,0,1,215.5,685.29V338.71A123.21,123.21,0,0,1,338.71,215.5H685.29A123.21,123.21,0,0,1,808.5,338.71Z"/><path d="M512,351v50a109.34,109.34,0,0,1,51.56,12.73,112.52,112.52,0,0,1,38.89,34,110.83,110.83,0,0,1,19.28,47.54c2.81,18.62.88,37.77-5.73,56.95A103.18,103.18,0,0,1,552.25,616,123.36,123.36,0,0,1,512,623a109.36,109.36,0,0,1-51.57-12.73,112.53,112.53,0,0,1-38.9-34,110.82,110.82,0,0,1-19.28-47.54c-2.81-18.61-.88-37.77,5.73-56.94A103.19,103.19,0,0,1,471.74,408,123.42,123.42,0,0,1,512,401V351m0,0a173.15,173.15,0,0,0-56.57,9.71,153.19,153.19,0,0,0-94.73,94.73C321.9,567.91,404.9,673,512,673a173.09,173.09,0,0,0,56.57-9.71,153.18,153.18,0,0,0,94.73-94.73C702.1,456.09,619.1,351,512,351Z"/><path d="M737,332.3a26,26,0,0,1-.43,3.5C732.33,358,713.92,371,694.88,371a42.69,42.69,0,0,1-32.45-15.16,25.73,25.73,0,0,1-2.21-2.93c-9.34-14.27-9.63-31.23-1.69-45A42,42,0,0,1,716,292.53C729.72,300.46,737.94,315.29,737,332.3Z"/></g></svg>