<svg xmlns="http://www.w3.org/2000/svg" viewBox="0 0 1024 1024"><defs><style>.cls-1{fill:#f5f5f5;}</style></defs><title>icon-structure</title><g id="Layer_23" data-name="Layer 23"><path class="cls-1" d="M512,0C229.21,0,0,229.25,0,512s229.21,512,512,512,512-229.25,512-512S794.75,0,512,0ZM429,185.7a23.92,23.92,0,0,1,23.92-23.92H571.06A23.92,23.92,0,0,1,595,185.7V303.83a23.92,23.92,0,0,1-23.92,23.92H452.94A23.92,23.92,0,0,1,429,303.83ZM232.35,589V479.41c0-12,10.71-21.83,23.88-21.83H493.15V361h37.7v96.58H767.77c13.17,0,23.88,9.79,23.88,21.83V591H753.94V492.9a1.81,1.81,0,0,0-1.35-.48H530.85V591h-37.7V492.42H271.41a1.81,1.81,0,0,0-1.35.48V591H232.35ZM251.2,787.22a83,83,0,1,1,83-83A83,83,0,0,1,251.2,787.22Zm260.8,0a83,83,0,1,1,83-83A83,83,0,0,1,512,787.22Zm260.8,0a83,83,0,1,1,83-83A83,83,0,0,1,772.8,787.22Z"/></g></svg>