<?xml version="1.0" encoding="utf-8"?>
<!-- Generator: Adobe Illustrator 19.1.0, SVG Export Plug-In . SVG Version: 6.00 Build 0)  -->
<svg version="1.1" id="Layer_1" xmlns="http://www.w3.org/2000/svg" xmlns:xlink="http://www.w3.org/1999/xlink" x="0px" y="0px"
	 viewBox="0 0 512 512" style="enable-background:new 0 0 512 512;" xml:space="preserve">
<style type="text/css">
	.st0{fill:#F61C0D;}
	.st1{fill:#3A559F;}
	.st2{fill:#76A9EA;}
	.st3{fill:url(#SVGID_1_);}
	.st4{fill:#FFFFFF;}
</style>
<circle class="st2" cx="256" cy="256" r="256"/>
<path class="st4" d="M396.4,163.4c-6.4,2.9-13.1,5.1-20,6.7c7.6-7.2,13.3-16.2,16.5-26.2l0,0c0.9-2.9-2.2-5.3-4.8-3.8l0,0
	c-9.5,5.7-19.8,9.9-30.6,12.6c-0.6,0.2-1.3,0.2-1.9,0.2c-2,0-3.9-0.7-5.4-2c-11.4-10.1-26.1-15.6-41.4-15.6c-6.6,0-13.3,1-19.8,3.1
	c-20.3,6.3-35.9,23-40.8,43.6c-1.8,7.7-2.3,15.5-1.5,23c0.1,0.9-0.3,1.5-0.6,1.8c-0.4,0.5-1.1,0.8-1.7,0.8c-0.1,0-0.1,0-0.2,0
	c-44.4-4.1-84.4-25.5-112.7-60.2l0,0c-1.4-1.8-4.2-1.6-5.4,0.4l0,0c-5.5,9.5-8.5,20.4-8.5,31.4c0,17,6.8,32.9,18.6,44.6
	c-5-1.2-9.8-3-14.3-5.5l0,0c-2.2-1.2-4.8,0.3-4.9,2.8l0,0c-0.3,25.2,14.4,47.6,36.5,57.7c-0.4,0-0.9,0-1.3,0c-3.5,0-7-0.3-10.5-1
	l0,0c-2.4-0.5-4.5,1.8-3.7,4.2l0,0c7.2,22.4,26.4,38.9,49.5,42.6c-19.1,12.8-41.4,19.6-64.6,19.6l-7.2,0c-2.2,0-4.1,1.5-4.7,3.6
	c-0.6,2.1,0.5,4.4,2.4,5.5c26.1,15.2,56,23.3,86.2,23.3c26.5,0,51.3-5.3,73.7-15.6c20.5-9.5,38.7-23.1,53.9-40.4
	c14.2-16.1,25.3-34.7,33-55.3c7.3-19.6,11.2-40.5,11.2-60.5v-1c0-3.2,1.5-6.2,4-8.3c9.6-7.8,18-17,24.9-27.3l0,0
	C402.3,165.5,399.4,162.1,396.4,163.4L396.4,163.4z"/>
</svg>
