<svg xmlns="http://www.w3.org/2000/svg" viewBox="0 0 1024 1024"><title>toornamen icon (2)</title><g id="Layer_30" data-name="Layer 30"><path d="M453.5,329.5h306a31.5,31.5,0,0,0,0-63h-306a31.5,31.5,0,0,0,0,63Z"/><path d="M217,743.5a21,21,0,0,0,21,21H786a21,21,0,0,0,21-21v-387H217Zm547-26H530V583H764Zm-504-320H764V542H260ZM260,583H494V717.5H260Z"/><rect x="323" y="266.5" width="63" height="63" rx="15.5" ry="15.5"/><rect x="233" y="266.5" width="63" height="63" rx="15.5" ry="15.5"/><path d="M512,0C229.22,0,0,229.26,0,512s229.22,512,512,512,512-229.22,512-512S794.74,0,512,0ZM827,303.5v440a41,41,0,0,1-41,41H238a41,41,0,0,1-41-41v-463a41,41,0,0,1,41-41H786a41,41,0,0,1,41,41Z"/></g></svg>