<svg xmlns="http://www.w3.org/2000/svg" viewBox="0 0 1024 1024"><title>toornamen icon (3)</title><g id="Layer_60" data-name="Layer 60"><circle cx="351.58" cy="461.08" r="45.15"/><path d="M749.87,582.51h-240a21.43,21.43,0,1,0,0,42.86h240a21.43,21.43,0,0,0,0-42.86Z"/><path d="M509.87,453.94H647a21.43,21.43,0,0,0,0-42.86H509.87a21.43,21.43,0,1,0,0,42.86Z"/><path d="M401.91,510.32H386.54c-9.47,10.83-21.53,17.29-34.7,17.29h-1.1c-13.17,0-25.25-6.48-34.7-17.3H300.66c-26.5,0-48,30-48,67v37c0,8,4.66,14.51,10.4,14.51H439.49c5.71,0,10.4-6.5,10.4-14.51v-37C449.87,540.34,428.41,510.32,401.91,510.32Z"/><path d="M749.87,496.8h-240a21.43,21.43,0,1,0,0,42.86h240a21.43,21.43,0,0,0,0-42.86Z"/><path d="M502.09,233.15c-8.13,0-14.73,5.83-14.84,13h29.64C516.76,239,510.22,233.15,502.09,233.15Z"/><path d="M512,0C229.21,0,0,229.25,0,512s229.21,512,512,512,512-229.25,512-512S794.75,0,512,0ZM455.12,246.2h13.73c.1-16.27,14.92-29.43,33.22-29.43S535.2,230,535.3,246.2h14.23c7.14,0,13,5.17,13,11.54v48.34c0,6.38-5.81,11.54-13,11.54H455.13c-7.16,0-13-5.17-13-11.55V257.74C442.17,251.36,448,246.2,455.12,246.2ZM812,696.93a58.48,58.48,0,0,1-58.3,58.3H270.3a58.48,58.48,0,0,1-58.3-58.3V343a58.48,58.48,0,0,1,58.3-58.3H416.5v41.73c0,9.1,8.27,16.5,18.49,16.5H569.67c10.2,0,18.5-7.37,18.5-16.48V284.75H753.7A58.48,58.48,0,0,1,812,343Z"/></g></svg>