<svg xmlns="http://www.w3.org/2000/svg" xmlns:xlink="http://www.w3.org/1999/xlink" viewBox="0 0 936 613.78"><defs><style>.cls-1{fill:#f5f5f5;}.cls-2{clip-path:url(#clip-path);}.cls-3{opacity:0.2;}.cls-4{fill:#fff;}.cls-5{fill:#546a79;}.cls-6{fill:#ebba16;}.cls-7{fill:#7383bf;}.cls-8{fill:#61b872;}.cls-9{fill:#d75a4a;}</style><clipPath id="clip-path"><path class="cls-1" d="M818,40.22h-9.71C808.25,24.12,777.63,11,740,11s-68.27,13.14-68.27,29.23H264.3C264.3,24.12,233.68,11,196,11s-68.27,13.14-68.27,29.23H118S9.44,203,18.87,502.48c1,32.84,16.1,64.39,42.83,83.44s69.75,31.36,113.42-16.19l2.5-2.78c8.6-9.81,20.26-24.61,25.9-39.41,13.14-34.51,40.24-104.91,53.93-133.68a10.11,10.11,0,0,1,13-5.27,8.47,8.47,0,0,1,3.05,1.76c19.06,15.91,65.5,43.39,117.58-8.79H544.88c52.18,52.18,98.61,24.7,117.67,8.79a10.87,10.87,0,0,1,3-1.76,10.25,10.25,0,0,1,13,5.27c13.6,28.77,40.7,99.17,53.93,133.68,5.64,14.8,17.21,29.6,25.81,39.41l2.5,2.78c43.76,47.55,86.77,35.15,113.51,16.19s41.81-50.6,42.83-83.44C926.48,203,818,40.22,818,40.22Z"/></clipPath></defs><title>toornamen icon</title><g id="Layer_13" data-name="Layer 13"><path class="cls-1" d="M818,40.22h-9.71C808.25,24.12,777.63,11,740,11s-68.27,13.14-68.27,29.23H264.3C264.3,24.12,233.68,11,196,11s-68.27,13.14-68.27,29.23H118S9.44,203,18.87,502.48c1,32.84,16.1,64.39,42.83,83.44s69.75,31.36,113.42-16.19l2.5-2.78c8.6-9.81,20.26-24.61,25.9-39.41,13.14-34.51,40.24-104.91,53.93-133.68a10.11,10.11,0,0,1,13-5.27,8.47,8.47,0,0,1,3.05,1.76c19.06,15.91,65.5,43.39,117.58-8.79H544.88c52.18,52.18,98.61,24.7,117.67,8.79a10.87,10.87,0,0,1,3-1.76,10.25,10.25,0,0,1,13,5.27c13.6,28.77,40.7,99.17,53.93,133.68,5.64,14.8,17.21,29.6,25.81,39.41l2.5,2.78c43.76,47.55,86.77,35.15,113.51,16.19s41.81-50.6,42.83-83.44C926.48,203,818,40.22,818,40.22Z"/><g class="cls-2"><g class="cls-3"><path class="cls-4" d="M803.06,60.3h-9C794,45.84,765.6,34,730.63,34s-63.41,11.8-63.41,26.26H268.79c0-14.46-28.44-26.26-63.41-26.26S142,45.84,142,60.3h-9.11s-100.79,146.28-92,415.32c.95,29.5,15,57.85,39.78,75S155.4,578.76,196,536l2.32-2.49c8-8.81,18.82-22.11,24.06-35.41,12.2-31,37.38-94.25,50.1-120.1a9.51,9.51,0,0,1,12-4.74,7.93,7.93,0,0,1,2.84,1.58c17.7,14.3,60.84,39,109.21-7.9h142.9c48.46,46.88,91.6,22.19,109.3,7.9a10.18,10.18,0,0,1,2.75-1.58A9.65,9.65,0,0,1,663.57,378c12.63,25.85,37.81,89.1,50.09,120.1,5.24,13.3,16,26.6,24,35.41L740,536c40.64,42.72,90.6,31.58,115.43,14.54s38.84-45.46,39.78-75C903.86,206.58,803.06,60.3,803.06,60.3Z"/></g></g><path class="cls-5" d="M269.15,202.18a18.56,18.56,0,0,1-18.5,18.5H205.76v44.89a18.56,18.56,0,0,1-18.5,18.5h-2a18.56,18.56,0,0,1-18.5-18.5V220.68H121.86a18.56,18.56,0,0,1-18.5-18.5v-2a18.56,18.56,0,0,1,18.5-18.5h44.89V136.78a18.56,18.56,0,0,1,18.5-18.5h2a18.56,18.56,0,0,1,18.5,18.5v44.89h44.89a18.56,18.56,0,0,1,18.5,18.5Z"/><circle class="cls-5" cx="327.67" cy="333.71" r="44.33"/><circle class="cls-5" cx="607.67" cy="333.71" r="44.33"/><circle class="cls-6" cx="688.51" cy="201.17" r="24.38"/><circle class="cls-7" cx="747.02" cy="259.69" r="24.38"/><circle class="cls-8" cx="747.02" cy="142.66" r="24.38"/><circle class="cls-9" cx="805.54" cy="201.17" r="24.38"/></g></svg>