<svg xmlns="http://www.w3.org/2000/svg" viewBox="0 0 1024 1024"><defs><style>.cls-1{fill:#f5f5f5;}</style></defs><title>toornamen icon</title><g id="Layer_85" data-name="Layer 85"><path class="cls-1" d="M347.61,391.46h198.7a12.5,12.5,0,0,0,0-25H347.61a12.5,12.5,0,0,0,0,25Z"/><path class="cls-1" d="M534.53,601.33c18,0,31.85-14.35,31.85-29.86,0-12.41-8-23.28-23.88-23.28-21,0-31.44,17.07-31.44,29.49C510.65,592.41,519.45,601.33,534.53,601.33Z"/><path class="cls-1" d="M512,0C229.21,0,0,229.25,0,512s229.21,512,512,512,512-229.25,512-512S794.75,0,512,0ZM682,409.83H707.8a22.71,22.71,0,0,1,22.71,22.71v45.59H682ZM546.31,198,660.25,319H546.31ZM279.86,222.25A21.44,21.44,0,0,1,301.3,200.8h225V319a20,20,0,0,0,20,20H660.25c.59,0,1.18,0,1.76-.08V478.13H320a55,55,0,0,0-31,9.92,53.76,53.76,0,0,0-9.2,8.05ZM209.57,369a22.72,22.72,0,0,1,22.72-22.71h27.57V549.44L209.57,731ZM813.72,519.76,736.49,798.63c-3.3,11.89-17.33,21.63-31.19,21.63H230.8c-13.86,0-22.5-9.74-19.21-21.63l68.27-246.48,9-32.39c3.29-11.9,17.33-21.63,31.19-21.63h474.5C808.38,498.13,817,507.86,813.72,519.76Z"/><path class="cls-1" d="M347.61,444.79H603.28a12.5,12.5,0,0,0,0-25H347.61a12.5,12.5,0,0,0,0,25Z"/><path class="cls-1" d="M532.85,748.76c-2.92,0-4.18-3.88-1.25-15.12L548.12,670c6.29-23.28,4.19-38.4-8.38-38.4-15.08,0-50.27,15.24-80.86,41.22l6.28,10.47c9.65-6.59,26-13.29,29.75-13.29,2.92,0,2.51,3.88,0,13.57l-14.44,60.54c-8.8,34.13.42,41.89,13,41.89s45.06-11.65,74.81-41.91l-7.13-9.7C549,744.09,536.62,748.76,532.85,748.76Z"/></g></svg>