<svg xmlns="http://www.w3.org/2000/svg" viewBox="0 0 1024 1024"><defs><style>.cls-1{fill:#fff;}</style></defs><title>toornamen icon (3)</title><g id="Layer_71" data-name="Layer 71"><path d="M512,0C229.21,0,0,229.25,0,512s229.21,512,512,512,512-229.25,512-512S794.75,0,512,0Z"/><path class="cls-1" d="M342.87,258.72c-.31.24-.55.5-.83.73a36.88,36.88,0,0,1,5.86-4.86C395.65,223.56,450.82,207,512,207A303.34,303.34,0,0,1,668.7,250.28c3.32,2,12.38,8.18,17,13.82v0c-44.17-48.7-174,55.79-174,55.79-44.9-34.61-86.2-58.2-117-66.6C369.1,246.27,351.31,252.15,342.87,258.72Zm392.9,46c-1.35-1.49-2.82-2.89-4.17-4.43-11.17-12.26-24.89-15.22-37.27-14.41-11.26,3.53-63.3,22.29-127.43,82.84,0,0,72.19,70.2,116.41,142s70.58,128.17,54.34,206.45a305,305,0,0,0-1.87-412.41ZM625.58,541.38c-19.58-22-48.72-53.46-87.2-91.73q-12.62-12.55-26.65-26.13s-14.06,14.06-32.36,32.55v0c-23.42,23.66-53.79,54.53-70.65,72.55-30,32-116,132.63-120.84,189,0,0-19.13-44.74,22.86-147.92C338.16,502.26,421,401,455.66,368c0,0-31.63-34.8-71.32-58.84l-.24-.07s-.45-.36-1.16-.81c-19.09-11.38-39.93-20.15-60-21.31-20.48,1.45-33.45,16.43-33.45,16.43A303.93,303.93,0,0,0,207,512c0,168.45,136.56,305,305,305A304.42,304.42,0,0,0,737.69,717.2c0-.09-6.43-40.3-47.46-98C680.58,605.7,645.33,563.52,625.58,541.38Z"/></g></svg>