<svg xmlns="http://www.w3.org/2000/svg" viewBox="0 0 1024 1024"><title>toornamen icon (3)</title><g id="Layer_66" data-name="Layer 66"><path d="M512,0C229.21,0,0,229.25,0,512s229.21,512,512,512,512-229.25,512-512S794.75,0,512,0ZM827.76,677a21.46,21.46,0,0,1-1.82,7.44c-6.95,16.23-32.05,27.08-81.21,34.9a107.41,107.41,0,0,0-3.1,11.92c-1.07,4.93-2.18,9.75-3.65,14.82-2.56,8.73-9.25,13.73-18.35,13.73A80.31,80.31,0,0,1,704,757.95a161.92,161.92,0,0,0-32.55-3.47,143.77,143.77,0,0,0-23.25,2c-14.93,2.48-28.61,12.17-43.09,22.42-26.21,18.51-57.53,27.91-93.12,27.91-1.54,0-3.05,0-4.56-.1-1,.07-2.1.1-3.18.1-40.63,0-60.95-12.08-83.29-27.88-15.18-10.73-28.26-20-43.18-22.45a143.15,143.15,0,0,0-23.22-2,160.23,160.23,0,0,0-32.41,3.69c-5.55,1.07-10.65,2.07-15.06,2.07-13,0-17.54-8.74-19.05-13.95s-2.61-10.12-3.66-14.93a104.61,104.61,0,0,0-3.09-12c-49.87-7.92-76.37-19.21-83.32-35.48a21.73,21.73,0,0,1-1.73-7.27,17,17,0,0,1,14.23-17.7c82.79-13.63,120.27-99,121.83-102.6,4.37-8.92,5.36-15.49,3.28-20.37-4.19-9.86-21.89-15.47-32.47-18.83-3.79-1.2-6.87-2.19-9.33-3.16C262.23,501.47,258,486.32,260,475.82c3.7-19.41,31-28.78,46-21.77,10.35,4.84,19.45,7.3,27.05,7.3a24.56,24.56,0,0,0,8-1.17c-.23-4-.49-8.13-.76-12.35-2.72-42.93-6.11-96.33,8.22-128.43,42.23-94.72,131.78-102.08,158.22-102.08l12.36-.12c26.49,0,116.21,7.37,158.48,102.14,14.29,32,10.94,85.45,8.23,128.39l-.12,1.84c-.22,3.61-.45,7.15-.65,10.59a23.83,23.83,0,0,0,6.69,1.14c6.53-.28,15.16-2.73,24.86-7.26a32.92,32.92,0,0,1,13.69-2.82,38.85,38.85,0,0,1,14.66,2.83c12.71,4.49,21.28,14.54,21.51,25.47.24,13.79-11.26,25.36-34.19,34.41-2.38.95-5.37,1.89-8.56,2.93-11.34,3.59-29,9.19-33.22,19.07-2.08,4.85-1.09,11.43,2.9,19.54.08.19.39.83.46,1,3.87,9.14,40.14,89.63,119.72,102.74A17,17,0,0,1,827.76,677Z"/></g></svg>