<svg id="Layer_1" data-name="Layer 1" xmlns="http://www.w3.org/2000/svg" width="24" height="24" viewBox="0 0 24 24"><title>Padiplay Icon</title><path d="M20.17,23.91H3.83A1.81,1.81,0,0,1,2,22l.9-17.15H21.08L22,22a1.81,1.81,0,0,1-1.81,1.91ZM4.4,6.4,3.57,22.08a.26.26,0,0,0,.26.27H20.17a.26.26,0,0,0,.26-.27L19.6,6.4Z"/><path d="M11.93.09A4.18,4.18,0,0,0,7.76,4.27v.09H9.31V4.27a2.63,2.63,0,0,1,5.25,0v.09h1.55V4.27A4.18,4.18,0,0,0,11.93.09Z"/><path d="M8.53,8.68h0a.78.78,0,0,1-.78-.78V4.33H9.31V7.91A.78.78,0,0,1,8.53,8.68Z"/><path d="M15.34,8.68h0a.78.78,0,0,1-.78-.78V4.33h1.55V7.91A.78.78,0,0,1,15.34,8.68Z"/><path d="M18.29,20.07H5.71a.78.78,0,0,1,0-1.55H18.29a.78.78,0,0,1,0,1.55Z"/></svg>