<?xml version="1.0" encoding="utf-8"?>
<!-- Generator: Adobe Illustrator 19.1.0, SVG Export Plug-In . SVG Version: 6.00 Build 0)  -->
<svg version="1.1" id="Layer_1" xmlns="http://www.w3.org/2000/svg" xmlns:xlink="http://www.w3.org/1999/xlink" x="0px" y="0px"
	 viewBox="-243 245 24 24" style="enable-background:new -243 245 24 24;" xml:space="preserve">
<style type="text/css">
	.st0{fill:none;}
	.st1{fill:#909090;}
</style>
<path class="st0" d="M-243,245h24v24h-24V245z"/>
<path class="st1" d="M-236.5,250c0.1,0.9,0.2,1.8,0.5,2.6l-1.2,1.2c-0.4-1.2-0.7-2.5-0.8-3.8H-236.5 M-226.6,262
	c0.9,0.2,1.7,0.4,2.6,0.5v1.5c-1.3-0.1-2.6-0.4-3.8-0.8L-226.6,262 M-235.5,248h-3.5c-0.6,0-1,0.4-1,1c0,9.4,7.6,17,17,17
	c0.6,0,1-0.5,1-1v-3.5c0-0.6-0.4-1-1-1c-1.2,0-2.4-0.2-3.6-0.6c-0.1,0-0.2,0-0.3,0c-0.3,0-0.5,0.1-0.7,0.3l-2.2,2.2
	c-2.8-1.5-5.2-3.8-6.6-6.6l2.2-2.2c0.3-0.3,0.4-0.7,0.3-1c-0.4-1.1-0.6-2.3-0.6-3.6C-234.5,248.4-234.9,248-235.5,248z"/>
</svg>
