<svg xmlns="http://www.w3.org/2000/svg" viewBox="0 0 1024 1024"><title>toornamen icon (3)</title><g id="Layer_67" data-name="Layer 67"><rect x="599.93" y="423.71" width="34.71" height="106.45"/><rect x="494.64" y="423.71" width="34.71" height="106.45"/><path d="M512,0C229.21,0,0,229.25,0,512s229.21,512,512,512,512-229.25,512-512S794.75,0,512,0ZM808.2,641.48,693.9,755.78H519.19L449.76,825.2H354.64V755.78H215.8V312.39l79.59-79.59H808.2Z"/><path d="M425.22,745.61l94-94h140l79.59-79.59V302.22H319.93V651.65H425.22ZM354.64,616.93v-280H704.07V557.68l-59.25,59.25h-140l-44.88,44.88V616.93Z"/></g></svg>