<svg xmlns="http://www.w3.org/2000/svg" viewBox="0 0 1024 1024"><title>toornamen icon (2)</title><g id="Layer_40" data-name="Layer 40"><path d="M512,0C229.21,0,0,229.25,0,512s229.21,512,512,512,512-229.25,512-512S794.75,0,512,0ZM226.77,335.54a7.29,7.29,0,0,1,12.31-4.06l37,36.92a44.79,44.79,0,0,0,63.45,0l22.7-22.7a44.79,44.79,0,0,0,0-63.45l-36.92-36.92A7.28,7.28,0,0,1,329.42,233a122,122,0,0,1,139,136.7,51.75,51.75,0,0,0,14.7,43.38l28.8,28.8-27.13,27L445.57,429.7a15.63,15.63,0,0,0-22.11,22.11l39.19,39.08-27.13,27-28.68-28.68a51.63,51.63,0,0,0-43.38-14.7,122,122,0,0,1-136.7-139ZM758.89,765.13a53.8,53.8,0,0,1-76.12.12l-166-166,27.13-27L705,733.34a15.63,15.63,0,0,0,22.11-22.11L566,550.15l27.13-27L759,689A53.91,53.91,0,0,1,758.89,765.13ZM727,415.6H655.41L460.75,609.54l35.73,35.73-141,141a75.16,75.16,0,0,1-96.05,8.62L399.48,654.84a14.94,14.94,0,0,0-21.12-21.13L238.74,773.33a75.15,75.15,0,0,1,10.38-93.4l141-141,35,34.89L619.68,379.87V308.29l143.15-71.46,35.73,35.73Z"/></g></svg>