<svg xmlns="http://www.w3.org/2000/svg" viewBox="0 0 1024 1024"><title>toornamen icon (3)</title><g id="Layer_69" data-name="Layer 69"><path d="M512,0C229.21,0,0,229.25,0,512s229.21,512,512,512,512-229.25,512-512S794.75,0,512,0ZM810.44,349c-6.93,36.43-52.75,163.89-135.81,276.41C638.31,673,595.87,719.7,541.41,751.93c-20.11,11.92-59.82,26.93-86.24,15.71C403.38,745.71,385,656.19,370,596.27c-8.84-35.37-17.18-68.86-28-99.62-8.08-23.1-12-46.59-24.66-68-20.76-35.06-50.52-1.36-81.74-6-13.24-1.92-17.26-12.17-24.65-28,45.36-36.17,85.33-80,137.77-110.84,16.47-9.7,44.51-20.11,67.2-13.44,21.12,6.16,38.39,34.61,45.92,58.2,8.74,27.44,13.44,60.68,17.88,87.35,8,47.54,5.36,118.93,40.26,156.26,38.75,41.48,68.3-16.06,84.07-45.37,13.64-25.42,25.87-51.93,28-76.14,5.05-57.84-22.48-65.62-75-61.63,29.65-92.05,116.8-130.5,142.57-134.44,31.67-4.85,77.9-3.84,99.62,23.64C814.83,297.89,814.93,323.81,810.44,349Z"/></g></svg>