<svg xmlns="http://www.w3.org/2000/svg" viewBox="0 0 1024 1024"><defs><style>.cls-1{fill:#f75b37;}</style></defs><title>toornamen icon (3)</title><g id="Layer_46" data-name="Layer 46"><path class="cls-1" d="M512,0C229.21,0,0,229.25,0,512s229.21,512,512,512,512-229.25,512-512S794.75,0,512,0Zm2.54,278c53.06,0,96.08,43.25,96.08,96.6s-43,96.6-96.08,96.6S418.45,428,418.45,374.6,461.47,278,514.54,278ZM232.41,702v0h-1.27v0H113.5c-7.7,0-13.95-7.85-13.95-17.53V639.81c0-44.71,28.79-80.94,64.32-80.94h20.62c12.69,13.06,28.88,20.88,46.55,20.88h1.47c17.67,0,33.86-7.82,46.55-20.88h.32a189.45,189.45,0,0,0-5.23,44.47V674.2a63.08,63.08,0,0,0,6.36,27.8Zm-.24-151.19a60.89,60.89,0,1,1,60.57-60.89A60.73,60.73,0,0,1,232.17,550.81ZM723.68,674.2c0,15.35-9.91,27.8-22.12,27.8H514.93v0h-2v0H326.27c-12.21,0-22.12-12.45-22.12-27.8V603.34a158.22,158.22,0,0,1,6-43.4c14.13-49.57,51.8-85,96.06-85H438.9c20.13,20.73,45.82,33.14,73.85,33.14h2.33c28,0,53.72-12.41,73.85-33.14h32.71c44,0,81.4,34.94,95.76,83.95a158.16,158.16,0,0,1,6.28,44.46Zm1.92-184.29a60.57,60.57,0,1,1,60.57,60.89A60.73,60.73,0,0,1,725.6,489.91ZM904.06,702H786.41v0h-1.27v0H747.31a63,63,0,0,0,6.37-27.8V603.34A192,192,0,0,0,750.6,569,61.55,61.55,0,0,0,785,579.75h1.47c17.67,0,33.86-7.82,46.55-20.88h20.62c35.54,0,64.32,36.23,64.32,80.94v44.66C918,694.15,911.75,702,904.06,702Z"/></g></svg>