<svg id="Layer_1" data-name="Layer 1" xmlns="http://www.w3.org/2000/svg" viewBox="0 0 24 24"><title>Padiplay Icon</title><path d="M22.4,16.35l-2.94-1.71-1.56.9,3,1.72L12,22.37,3.14,17.26l3-1.72-1.56-.9L1.6,16.35a1.05,1.05,0,0,0,0,1.82l9.87,5.69a1.05,1.05,0,0,0,1,0l9.87-5.69A1.05,1.05,0,0,0,22.4,16.35Z"/><path d="M22.4,11.14l-3-1.73-1.56.9,3,1.74L12,17.15,3.14,12l3-1.74-1.56-.9-3,1.73A1.05,1.05,0,0,0,1.6,13l9.87,5.69a1.05,1.05,0,0,0,1,0L22.4,13A1.05,1.05,0,0,0,22.4,11.14Z"/><path d="M12,1.64l8.86,5.15L12,11.89,3.14,6.78,12,1.64M12,0a1.05,1.05,0,0,0-.53.14L1.6,5.88a1.05,1.05,0,0,0,0,1.82l9.87,5.69a1.05,1.05,0,0,0,1,0L22.4,7.7a1.05,1.05,0,0,0,0-1.82L12.53.14A1.05,1.05,0,0,0,12,0Z"/></svg>