<svg xmlns="http://www.w3.org/2000/svg" viewBox="0 0 997.58 698"><title>toornamen icon</title><g id="Layer_11" data-name="Layer 11"><path d="M979.45,322.66a152.22,152.22,0,0,0-140.36-93H797A118.07,118.07,0,0,1,677,265c.27-2.49.48-5,.64-7.49l-19.77-4.81a154.41,154.41,0,0,1-82.57,130.11l-7.81,8.8H602.8l.26-.17,1.44-1c.74-.5,1.48-1,2.21-1.55l1.23-.89c.9-.65,1.79-1.31,2.68-2,.42-.3.83-.62,1.23-.94.59-.44,1.17-.89,1.75-1.35.89-.7,1.77-1.41,2.64-2.12h57.94q3.1,0,6.18.12c1.2,0,2.38.1,3.57.17h.13l.74,0c1,.06,1.94.13,2.91.22.62,0,1.25.1,1.87.17s1.47.14,2.2.22c.93.1,1.85.21,2.78.33q3.48.43,6.9,1l2.56.46,1.44.28q7.68,1.52,15.07,3.76l1.76.54c.67.21,1.34.42,2,.65.4.12.8.26,1.2.4q1.45.49,2.91,1l.79.28,2.5.94,2.26.89,1.35.55c.82.34,1.65.69,2.47,1s1.51.65,2.25,1l1.77.82c.59.27,1.17.54,1.75.83,1,.49,2,1,3,1.5l1.5.78c.5.25,1,.52,1.49.79s1.06.56,1.58.85q2.19,1.2,4.34,2.47l.91.55c.8.48,1.59,1,2.38,1.46.55.33,1.09.67,1.63,1q3.69,2.34,7.21,4.9c.69.49,1.38,1,2.06,1.51s1.18.88,1.77,1.34a5,5,0,0,1,.53.41.21.21,0,0,1,.08.06q1.22.93,2.4,1.89,1.86,1.48,3.66,3c.44.36.87.74,1.3,1.12s.91.79,1.36,1.2,1.15,1,1.71,1.54l1.6,1.51A153.41,153.41,0,0,1,795.24,437c.4.45.79.9,1.16,1.36,1.36,1.59,2.69,3.22,4,4.88.68.87,1.35,1.74,2,2.63.27.35.52.69.77,1q.77,1,1.5,2.07c.57.81,1.13,1.62,1.69,2.43q1.35,1.95,2.62,4c.35.54.7,1.08,1,1.63.74,1.16,1.45,2.34,2.15,3.53.28.48.56.95.83,1.43l.72,1.26,1.17,2.12c.31.56.61,1.13.91,1.7.48.91,1,1.82,1.41,2.74l.12.23c.37.74.73,1.48,1.09,2.23.1.2.2.41.29.62.19.37.37.75.54,1.13s.37.79.55,1.19c.36.78.71,1.57,1.06,2.35q1.14,2.59,2.17,5.24c.26.63.5,1.26.74,1.9.48,1.24.94,2.5,1.38,3.76.23.61.44,1.24.64,1.86,1,3,1.94,6,2.77,9.07.21.75.41,1.5.6,2.26a.73.73,0,0,1,0,.16c.16.59.3,1.17.44,1.76.2.81.39,1.62.58,2.44H935a56.55,56.55,0,0,0,56.49-56.49V382A151.3,151.3,0,0,0,979.45,322.66Zm-18,126.81A26.49,26.49,0,0,1,935,476H841.83c-.58-1.49-1.19-3-1.81-4.45A179.84,179.84,0,0,0,674.19,361.59h-40q4.32-4.86,8.23-10a173.84,173.84,0,0,0,28.74-57.1q1-3.6,1.92-7.23a140.25,140.25,0,0,0,121.66-27.63h44.31A122.33,122.33,0,0,1,961.44,382Z"/><path d="M432.28,382.79h0a0,0,0,0,0,0,0,153.92,153.92,0,0,1-82.63-136.59v-.86l-19.88,7.15q.15,4.68.57,9.31a118,118,0,0,1-129.74-32.16h-42.1A152.22,152.22,0,0,0,6.14,382v67.5A56.57,56.57,0,0,0,62.66,506H177.38q.06-.27.12-.51c.15-.66.3-1.31.47-2,0-.16.07-.31.11-.46.09-.39.19-.79.29-1.17a2,2,0,0,1,.07-.26c.19-.76.39-1.51.6-2.26q.45-1.65.93-3.27a1.18,1.18,0,0,1,0-.18c.31-1,.62-2.05,1-3.06s.69-2.15,1.06-3.21.71-2,1.08-3l.15-.41c.36-1,.72-1.92,1.09-2.87s.83-2.08,1.26-3.12.74-1.77,1.13-2.66l.28-.63c.87-2,1.79-3.93,2.74-5.86.49-1,1-2,1.51-3s1-1.82,1.44-2.72a1.74,1.74,0,0,1,.13-.23q.8-1.45,1.62-2.91.71-1.23,1.44-2.46c.26-.43.51-.86.78-1.28s.44-.74.67-1.1l.06-.09q.36-.6.75-1.2s0,0,0,0l1.48-2.3,0,0c.61-.92,1.23-1.84,1.86-2.75s1.26-1.81,1.91-2.71,1.29-1.79,2-2.67,1.33-1.76,2-2.63l2-2.51.11-.13c.69-.84,1.38-1.66,2.08-2.48s1.37-1.59,2.06-2.38l.11-.12c.61-.69,1.23-1.37,1.86-2l.23-.25c.55-.61,1.12-1.21,1.7-1.81h0c.37-.4.75-.79,1.13-1.18l.11-.11c.58-.6,1.17-1.2,1.77-1.79s1.06-1.06,1.61-1.57l0,0c.41-.4.82-.8,1.24-1.18l.33-.31c.38-.37.77-.74,1.17-1.1l.21-.19c.64-.59,1.28-1.18,1.94-1.76l.26-.23.76-.66q1-.87,2-1.71c.13-.12.27-.23.41-.34.73-.62,1.47-1.23,2.21-1.83l.36-.29q1.18-1,2.4-1.89t2.28-1.74l.72-.53.06,0,.32-.24c.62-.46,1.25-.91,1.88-1.36,1.85-1.32,3.72-2.59,5.63-3.82l.08,0,.1-.07c.73-.47,1.46-.94,2.2-1.4l.34-.21c.94-.59,1.89-1.17,2.85-1.73s1.69-1,2.55-1.48l.39-.22.25-.14c.87-.49,1.73-1,2.61-1.43s2-1,3-1.55,1.89-1,2.84-1.42c1.1-.53,2.2-1,3.31-1.56s2-.88,2.93-1.3c.81-.36,1.63-.7,2.45-1l.08,0,1.47-.6L274,393c.71-.29,1.43-.57,2.14-.84l.23-.09,2-.74,1.08-.39c.86-.31,1.73-.61,2.61-.91l.4-.13.36-.12,2-.67.1,0,.5-.16.33-.11q1.5-.46,3-.9c1.08-.32,2.17-.62,3.27-.91.85-.23,1.71-.45,2.57-.66l1.61-.39,2.46-.57c1.12-.25,2.24-.48,3.36-.7s2-.38,2.95-.56l1-.18,2.82-.46.11,0c.92-.14,1.84-.27,2.77-.39l.94-.13.25,0h0c.92-.12,1.85-.23,2.78-.33s1.66-.18,2.5-.25c.52-.06,1-.1,1.57-.14l.48,0q1.22-.11,2.43-.18c.79-.06,1.59-.1,2.39-.14h.33c.53,0,1-.06,1.58-.07h.13c.88,0,1.75-.06,2.63-.08,1.18,0,2.37,0,3.56,0h51.29q1.62,1.32,3.27,2.61c.85.67,1.71,1.33,2.58,2l.27.2.38.29a2.44,2.44,0,0,0,.32.24c1,.78,2.1,1.55,3.17,2.3s2,1.41,3,2.1c.14.11.29.2.43.29h42Zm-98.89-21.2A180.12,180.12,0,0,0,167.56,471.51c-.62,1.48-1.23,3-1.81,4.45H62.66a26.52,26.52,0,0,1-26.52-26.49V382A122.33,122.33,0,0,1,158.48,259.63h39.23A140.13,140.13,0,0,0,333.52,283q.94,4.39,2.13,8.71A170.06,170.06,0,0,0,343.32,314a173.05,173.05,0,0,0,21.83,37.62q3.9,5.14,8.22,10Z"/><path d="M860.84,506a187.24,187.24,0,0,0-8.31-30c-1-2.8-2.13-5.59-3.3-8.35a189.84,189.84,0,0,0-175-116H616.29a154.28,154.28,0,0,1-184,31.2h0a0,0,0,0,0,0,0,154.65,154.65,0,0,1-41-31.19H333.39a190.14,190.14,0,0,0-175.05,116c-1.17,2.76-2.27,5.55-3.3,8.35a187.24,187.24,0,0,0-8.31,30,191.08,191.08,0,0,0-3.33,35.62v88.27a64.74,64.74,0,0,0,64.69,64.64H799.53a64.72,64.72,0,0,0,64.64-64.64V541.58A191.08,191.08,0,0,0,860.84,506ZM834.17,629.85a34.64,34.64,0,0,1-34.64,34.64H208.09a34.68,34.68,0,0,1-34.69-34.64V541.58a160.18,160.18,0,0,1,4-35.62q.06-.27.12-.51c.15-.66.3-1.31.47-2,0-.16.07-.31.11-.46.09-.39.19-.79.29-1.17a2,2,0,0,1,.07-.26c.19-.76.39-1.51.6-2.26.29-1.09.6-2.19.93-3.27a1.18,1.18,0,0,1,0-.18c.3-1,.62-2.05,1-3.06s.69-2.15,1.06-3.21.71-2,1.08-3l.15-.41c.35-1,.71-1.92,1.09-2.87s.83-2.08,1.26-3.12.74-1.77,1.13-2.66l.28-.63c.87-2,1.79-3.93,2.74-5.86.49-1,1-2,1.51-3s1-1.82,1.44-2.72a1.74,1.74,0,0,1,.13-.23q.78-1.47,1.62-2.91.71-1.23,1.44-2.46c.26-.43.51-.86.78-1.28s.44-.74.67-1.1l.06-.09q.36-.6.75-1.2s0,0,0,0c.48-.77,1-1.54,1.48-2.3l0,0c.61-.92,1.23-1.84,1.86-2.75s1.26-1.81,1.91-2.71,1.29-1.79,2-2.67,1.33-1.76,2-2.63,1.33-1.68,2-2.51l.11-.13c.68-.84,1.37-1.66,2.08-2.48s1.36-1.59,2.06-2.38l.11-.12c.61-.69,1.23-1.37,1.86-2l.23-.25c.55-.61,1.12-1.21,1.7-1.81h0c.37-.4.75-.79,1.13-1.18l.11-.11c.58-.6,1.17-1.2,1.77-1.79s1.06-1.06,1.61-1.57l0,0c.41-.4.82-.79,1.24-1.18l.33-.31c.38-.37.77-.74,1.17-1.1l.21-.19c.64-.59,1.28-1.18,1.94-1.76l.26-.23.76-.66q1-.87,2-1.71c.13-.12.27-.23.41-.34.73-.62,1.47-1.23,2.21-1.83l.36-.29q1.18-1,2.4-1.89t2.28-1.74l.72-.53.06,0,.32-.24c.62-.46,1.25-.91,1.88-1.36,1.85-1.32,3.72-2.59,5.63-3.82l.08,0,.1-.07c.73-.47,1.46-1,2.2-1.4l.34-.21c.94-.59,1.89-1.17,2.85-1.73s1.69-1,2.55-1.48l.39-.22.25-.14c.87-.49,1.73-1,2.61-1.43s2-1,3-1.55,1.89-1,2.84-1.42c1.1-.53,2.2-1,3.31-1.56s2-.88,2.93-1.3c.81-.36,1.63-.7,2.45-1l.08,0,1.47-.6L274,393c.71-.29,1.43-.57,2.14-.84l.23-.09,2-.74,1.08-.39c.86-.31,1.74-.62,2.61-.91l.4-.13.36-.12c.68-.23,1.36-.46,2-.67l.1,0,.5-.16.33-.11q1.5-.46,3-.9c1.08-.32,2.17-.62,3.27-.91.85-.23,1.71-.45,2.57-.66l1.61-.39,2.46-.57c1.12-.25,2.24-.48,3.36-.7s2-.38,2.95-.56l1-.18,2.82-.46.11,0c.92-.14,1.84-.27,2.77-.39l.94-.13.25,0h0c.92-.12,1.85-.23,2.78-.33s1.66-.18,2.5-.25l1.57-.14.48,0q1.22-.11,2.43-.18c.79-.06,1.59-.1,2.39-.14h.33c.53,0,1-.06,1.58-.07h.13c.88,0,1.75-.06,2.63-.08,1.18,0,2.37,0,3.56,0h51.29q1.62,1.32,3.27,2.61c.85.67,1.71,1.33,2.58,2l.27.2.38.29a2.44,2.44,0,0,0,.32.24c1,.78,2.1,1.55,3.17,2.3s2,1.41,3,2.1c.14.11.29.2.43.29a183,183,0,0,0,204.68,0l.26-.17,1.44-1c.74-.5,1.48-1,2.21-1.55l1.23-.89c.9-.65,1.79-1.31,2.68-2,.42-.3.83-.62,1.23-.94.59-.44,1.17-.89,1.75-1.35.89-.7,1.77-1.41,2.64-2.12h57.94q3.1,0,6.18.12c1.2,0,2.38.1,3.57.17h.13l.74,0c1,.06,1.94.13,2.91.22.62,0,1.25.1,1.87.17s1.47.14,2.2.22c.93.1,1.85.21,2.78.33q3.48.43,6.9,1c.86.14,1.71.3,2.56.46l1.44.28q7.68,1.52,15.07,3.76l1.76.54c.67.21,1.34.42,2,.65l1.2.4c1,.33,1.95.66,2.91,1l.79.28,2.5.94,2.26.89,1.35.55c.82.34,1.65.69,2.47,1l2.25,1,1.77.82,1.75.83c1,.49,2,1,3,1.5l1.5.78c.5.25,1,.52,1.49.79s1.06.56,1.58.85q2.19,1.2,4.34,2.47l.91.55c.8.48,1.59,1,2.38,1.46l1.63,1q3.69,2.34,7.21,4.9c.69.49,1.38,1,2.06,1.51s1.18.88,1.77,1.34l.53.41a.21.21,0,0,1,.08.06q1.22.93,2.4,1.89,1.86,1.48,3.66,3c.44.36.87.74,1.3,1.12s.91.79,1.36,1.2,1.15,1,1.71,1.54l1.6,1.51A153.41,153.41,0,0,1,795.24,437c.39.45.78.9,1.16,1.36,1.36,1.59,2.69,3.22,4,4.88.68.87,1.35,1.75,2,2.63.27.35.52.69.77,1q.77,1,1.5,2.07c.57.81,1.14,1.61,1.69,2.43q1.35,1.95,2.62,4c.35.54.69,1.08,1,1.63.74,1.16,1.45,2.34,2.15,3.53.28.48.56.95.83,1.43l.72,1.26,1.17,2.12c.31.56.61,1.13.91,1.7.48.91,1,1.82,1.41,2.74l.12.23c.37.74.73,1.48,1.09,2.23.1.2.2.41.29.62.19.37.37.75.54,1.13s.37.79.55,1.19c.36.78.71,1.57,1.06,2.35q1.14,2.59,2.17,5.24c.26.63.5,1.26.74,1.9.48,1.24.94,2.5,1.38,3.76.22.62.43,1.24.64,1.86,1,3,1.94,6,2.77,9.07.21.75.41,1.5.6,2.26a.73.73,0,0,1,0,.16c.15.58.3,1.17.44,1.76.2.81.39,1.62.58,2.44a160.76,160.76,0,0,1,4,35.62Z"/><path d="M813.38,46.84A147.91,147.91,0,0,0,574.46,89.5l-7.39,16A154.27,154.27,0,0,1,658,246.19c0,2.17-.05,4.34-.13,6.49a153.78,153.78,0,0,1-5.94,36.44l17,4.75,2.29.62a148.11,148.11,0,0,0,138.42-34.86c1.27-1.19,2.53-2.4,3.76-3.63a147.87,147.87,0,0,0,0-209.16ZM708.79,269.32A117.89,117.89,0,0,1,677,265c.27-2.49.48-5,.64-7.49.24-3.75.36-7.51.36-11.3A174.6,174.6,0,0,0,601.7,102.07,117.91,117.91,0,1,1,708.79,269.32Z"/><path d="M431.53,109.93l-5.41-13.52A147.93,147.93,0,1,0,184.21,256c1.24,1.24,2.49,2.45,3.77,3.63a148,148,0,0,0,147.67,32.09c1.76-.58,3.52-1.2,5.26-1.86l13.58-5.12a154.54,154.54,0,0,1-4.86-38.55v-.86A154.2,154.2,0,0,1,431.53,109.93ZM330.32,261.79a117.91,117.91,0,1,1,67.95-154.22A176.12,176.12,0,0,0,380.63,123a173.76,173.76,0,0,0-51,123.18q0,3.15.12,6.29Q329.9,257.16,330.32,261.79Z"/><path d="M503.79,92a154.18,154.18,0,1,1-154.16,154.2A154.22,154.22,0,0,1,503.79,92m0-30a183.72,183.72,0,1,0,71.71,14.49A183,183,0,0,0,503.79,62Z"/></g></svg>