<?xml version="1.0" encoding="utf-8"?>
<!-- Generator: Adobe Illustrator 22.0.0, SVG Export Plug-In . SVG Version: 6.00 Build 0)  -->
<svg version="1.1" id="Layer_1" xmlns="http://www.w3.org/2000/svg" xmlns:xlink="http://www.w3.org/1999/xlink" x="0px" y="0px"
	 viewBox="0 0 512 512" style="enable-background:new 0 0 512 512;" xml:space="preserve">
<style type="text/css">
	.st0{fill:#FFFFFF;}
</style>
<title>icon-nimotv</title>
<path class="st0" d="M258,431.3l-0.9-9.8c-0.1-1.5-0.3-3-0.4-4.5c-0.3-3.4-0.6-6.6-0.9-9.9c-0.2-3.2-0.5-6.6-0.7-10
	c-2.3,0-4.6,0-7,0l2.1,31.5l-36.4,2.6l-1.4-17c-0.5-6.3-1-12.4-1.5-18.5c-2.9-0.2-5.8-0.5-8.7-0.7c-18.8-1.6-38.2-3.2-57.3-5.9
	c-28.3-3.9-47.4-21.9-53.9-50.7c-3.9-17.6-5.7-35.7-7.4-53.2l-0.3-2.6c-2-20.9-1.4-43.8,1.9-69.8c1.5-11.7,3-23.2,5.8-34.5
	c7.3-29.1,29.5-47.5,61-50.5c4.1-0.4,8.1-0.8,12.2-1.2c14.3-1.3,29-2.7,43.5-4.3c2-0.2,4.6-1.2,7.3-2.2c0.6-0.2,1.2-0.4,1.8-0.7
	c23.9-9,39.8-18.9,51.6-32.3c1.7-1.9,3.4-4.2,5.2-6.6c0.9-1.2,1.8-2.4,2.7-3.7l6.8-8.9l8.1,7.7c14.2,13.5,18.7,28.5,13.9,47.3
	c4.7,0.4,9.5,0.9,14.2,1.3c15.3,1.4,31.1,2.8,46.6,4.8c27,3.4,48.9,25.4,54.5,54.8c5.6,28.7,8,58,7.2,87.3
	c-0.8,25.2-3.5,47.4-8.3,67.7c-6.6,28.7-29,48.4-58.5,51.3c-19.8,2-40.1,4-60,5.9c-3,0.3-6,0.4-9,0.5c0.4,4.2,0.6,8.3,0.9,12.4
	c0.1,2.1,0.3,4.2,0.5,6.4c0.1,1.1,0.1,2.1,0,3c0,0.4,0,0.9,0,1.4v9.3L258,431.3z M261.5,377c4.2,0,8.9,1.8,11.4,6.3
	c0.5-1.1,1.2-2.1,2.1-2.9c2.8-3,6.7-4.4,11.7-4.1c4.1,0.1,8.3,0,12.4-0.4c19.9-1.9,40.1-3.9,59.9-5.9c20.7-2.1,36.4-15.8,41-35.9
	c4.4-19.1,7-40,7.8-63.9c0.8-27.7-1.5-55.6-6.8-82.9c-4-20.8-19-36.4-37.4-38.7c-15.2-1.9-30.8-3.3-45.9-4.7
	c-6.8-0.6-13.8-1.2-20.7-1.9c-1.3-0.1-2.7-0.3-4-0.4c-0.7-0.1-1.5-0.2-2.3-0.3l-13.3-1.5l5.2-12.3c4.8-11.3,6.6-20,2.1-28.6
	c-0.4,0.4-0.7,0.8-1.1,1.2c-18,20.4-41.3,30.9-59.6,37.7c-0.5,0.2-1.1,0.4-1.6,0.6c-3.6,1.4-7.7,2.9-12.3,3.4
	c-14.6,1.6-29.5,3-43.8,4.4c-4.1,0.4-8.1,0.8-12.2,1.2c-22.9,2.2-38.4,14.8-43.5,35.5c-2.5,10.2-4,21-5.4,32.2
	c-3.1,24.6-3.7,46-1.8,65.4l0.3,2.6c1.6,16.9,3.3,34.4,7,50.8c4.6,20.7,17.1,32.5,37.1,35.3c18.6,2.6,37.7,4.2,56.3,5.7
	c4.1,0.3,8.2,0.7,12.3,1c5.2,0.4,8.5,2.3,10.6,4.6l-0.2-3.6h10.7c2.9,0,5.8,0,8.5,0c5.3,0,10.3,0,15.4,0
	C261.4,377,261.5,377,261.5,377z"/>
<path class="st0" d="M237,324.4c-3.9,0-7.7-1-11-2.9c-5.7-3.3-9.5-9-10.7-16.1l-0.1-0.4c-4.1-24-4.1-48.3-0.1-72.3l0.1-0.7
	c1.3-7.6,5.2-13.6,11-16.9c5.9-3.4,13.4-3.6,21.1-0.6c21.9,8.7,41.8,21.1,59.1,36.9c5.1,4.6,8,10.6,8,16.9c0,6.2-2.8,12.3-7.8,16.9
	c-18.5,16.9-38.9,29.5-60.6,37.4C243,323.8,239.9,324.4,237,324.4z M234.8,236.1c-3.6,21.7-3.6,43.8,0.1,65.5l0.1,0.3
	c0.2,1.1,0.6,1.9,1,2.2c0.4,0.3,1.6,0.4,3.2-0.2c19.2-7,37.4-18.2,53.9-33.4c1-0.9,1.4-1.7,1.4-2.1c0-0.4-0.4-1.2-1.5-2.2
	c-15.6-14.3-33.4-25.4-53-33.1c-2.4-0.9-3.7-0.7-3.9-0.6c-0.2,0.1-0.8,0.8-1.2,3L234.8,236.1z"/>
<path class="st0" d="M190.3,191.4c-8.6,0-15.7,6.8-15.9,15.4c-0.3,8.7,6.6,16,15.3,16.3s16-6.6,16.3-15.3c0-0.3,0-0.5,0-0.8
	C205.9,198.4,198.9,191.4,190.3,191.4z"/>
<path class="st0" d="M307.6,208.9c3.4-2.4,6.2-4.3,8.9-6.4s3.5-4.8,1.6-7.8s-5-3.8-8.1-1.8c-5.5,3.5-10.9,7.1-16.2,11
	c-3.8,2.8-3.7,7.4,0.1,10.1c5.2,3.7,10.5,7.2,15.8,10.7c3.1,2,6.1,1.5,8.2-1.5s1.3-5.9-1.6-8.1C313.7,213.1,310.9,211.2,307.6,208.9
	z"/>
<path class="st0" d="M256,509.5c-67.7,0-131.4-26.4-179.3-74.2C28.9,387.4,2.5,323.7,2.5,256c0-67.7,26.4-131.4,74.2-179.3
	C124.6,28.9,188.3,2.5,256,2.5c67.7,0,131.4,26.4,179.3,74.2c47.9,47.9,74.2,111.5,74.2,179.3c0,67.7-26.4,131.4-74.2,179.3
	S323.7,509.5,256,509.5z M256,22.5c-62.4,0-121,24.3-165.1,68.4C46.8,135,22.5,193.6,22.5,256s24.3,121,68.4,165.1
	c44.1,44.1,102.7,68.4,165.1,68.4s121-24.3,165.1-68.4s68.4-102.7,68.4-165.1s-24.3-121-68.4-165.1C377,46.8,318.4,22.5,256,22.5z"
	/>
</svg>
