<?xml version="1.0" encoding="utf-8"?>
<!-- Generator: Adobe Illustrator 22.0.0, SVG Export Plug-In . SVG Version: 6.00 Build 0)  -->
<svg version="1.1" id="Layer_1" xmlns="http://www.w3.org/2000/svg" xmlns:xlink="http://www.w3.org/1999/xlink" x="0px" y="0px"
	 viewBox="0 0 512 512" style="enable-background:new 0 0 512 512;" xml:space="preserve">
<style type="text/css">
	.st0{fill:#DBDBDB;}
	.st1{fill:#F2F2F2;}
	.st2{fill:#BCBEC0;}
	.st3{fill:#F75B37;}
</style>
<title>toornamen icon (3)</title>
<g id="Layer_81">
	<ellipse class="st0" cx="264.6" cy="450" rx="88.3" ry="51"/>
	<polygon class="st0" points="176.3,434.9 176.3,449.8 187.7,444.1 	"/>
	<polygon class="st0" points="353,434.9 353,449.8 341.6,444.1 	"/>
	<ellipse class="st1" cx="264.6" cy="435.7" rx="88.3" ry="51"/>
	<path class="st0" d="M248.1,347.2h27.5l0,0v79.9c0,6.2-5,11.3-11.3,11.3l0,0h-4.9c-6.2,0-11.3-5-11.3-11.3l0,0L248.1,347.2
		L248.1,347.2z"/>
	<path class="st1" d="M289.4,348.9C275.5,385,237.7,363,237.7,363c-58-28.6-61.1-91.7-61.1-91.7v-33.5h41.8
		c-0.2,8.5,0.3,16.9,1.4,25.3c3.5,25.4,12.8,43.5,23.7,56.3l0,0C263.9,343.7,289.4,348.9,289.4,348.9z"/>
	<path class="st0" d="M178.7,139.3c10.9-6.3,19.7-1.2,19.8,11.3c0.1,12.5-8.8,27.8-19.7,34.1c-10.9,6.3-19.8,1.2-19.8-11.3
		C159,160.8,167.8,145.6,178.7,139.3z"/>
	<polygon class="st0" points="194.1,139 205.1,147.7 189.7,147.7 	"/>
	<path class="st0" d="M243.4,319.5c-62.9-13.6-66.8-76.9-66.8-76.9l43.2,20.5C223.2,288.6,232.6,306.7,243.4,319.5z"/>
	<polygon class="st0" points="175.1,194 163.4,185 178.8,185 	"/>
	<path class="st2" d="M189.7,148c10.9-6.3,19.7-1.2,19.7,11.2c0,12.5-8.7,27.7-19.6,34c-10.9,6.3-19.7,1.2-19.7-11.2
		C170.1,169.5,178.8,154.3,189.7,148z"/>
	<path class="st1" d="M326.7,179.6V230c0,25.8-12.9,49.9-34.5,64.1l0,0c-12.2,8.1-26.5,12.4-41.2,12.4c-39.3,0-71.9-30.8-75.3-69.7
		c-0.2-2.2-0.3-4.5-0.3-6.8v-50.5c0-1.4,1.1-2.5,2.5-2.5h146.3C325.6,177.1,326.7,178.2,326.7,179.6z"/>
	<polygon class="st0" points="170,177.1 181,169 184.2,175.5 176.6,179.3 	"/>
	<path class="st1" d="M333,262.6v54.5c0,0-0.6,25.6-18.4,34.6L281.4,371l17.8-35.3v-73.1H333z"/>
	<path class="st0" d="M176.6,179.3v76.4c-0.1,22.9,6.1,45.4,17.8,65c9,15,22.5,30.6,42.5,42c0.9,0.5,1.8,0.9,2.7,1.3
		c7.8,3.4,41.1,15.3,51.1-18.9c1.4-4.8,2.1-9.8,2.1-14.9v-78.7h6.6v83.3c0,0,0,46.9-44.9,40.2c-10.5-1.6-20.5-5.7-29.1-12
		c-18.5-13.4-51.9-46.3-55.3-91.7v-94.2L176.6,179.3z"/>
	<path class="st0" d="M312.4,216.9c10.9-6.3,19.7-1.2,19.8,11.3s-8.8,27.8-19.7,34.1c-10.9,6.3-19.8,1.2-19.8-11.3
		S301.5,223.2,312.4,216.9z"/>
	<polygon class="st0" points="327.8,216.5 338.7,225.3 323.4,225.3 	"/>
	<polygon class="st0" points="308.8,271.6 297.1,262.6 312.4,262.6 	"/>
	<path class="st2" d="M323.4,225.6c10.9-6.3,19.7-1.2,19.7,11.2s-8.7,27.7-19.6,33.9c-10.9,6.3-19.7,1.2-19.7-11.2
		C303.8,247.1,312.5,231.9,323.4,225.6z"/>
	<path class="st3" d="M292,205h-80.5c-11.3,0-20.4-9.1-20.4-20.4c0-0.2,0-0.4,0-0.6l3.3-117.6c1.5-31,27.1-55.4,58.1-55.4l0,0
		c30.8,0,56.2,23.9,58.1,54.6l1.8,118.6c0.2,11.3-8.8,20.5-20.1,20.7C292.2,205,292.1,205,292,205z"/>
	<path class="st0" d="M311.9,149.3l0.4,24.6c0.1,0.5,0.1,1,0.1,1.5c0,0.4,0,0.8-0.1,1.1c-0.2,2.5-1.3,5-3.1,7.5
		c-2.6,3.5-6.6,7-11.7,9.9c-5.6,3.3-12.5,6-20,7.8c-16.9,4-34.5,4-51.4,0c-7.5-1.8-14.4-4.6-20-7.8c-5.1-3-9.1-6.4-11.7-9.9
		c-1.6-2.1-2.7-4.5-3.1-7.1c-0.1-0.5-0.1-1-0.1-1.5c0-0.7,0.1-1.4,0.2-2.1l0.7-24.3c-9.5,7.3-15.2,16.5-15.2,26.4
		c0,9.4,5.1,18.1,13.8,25.3c1.9,1.6,3.9,3,6,4.3c13.7,8.7,33.3,14.1,55.1,14.1s41.4-5.5,55.1-14.1c2-1.3,3.9-2.7,5.8-4.2
		c8.8-7.2,14-16,14-25.4C326.7,165.6,321.2,156.5,311.9,149.3z"/>
</g>
</svg>
