<?xml version="1.0" encoding="utf-8"?>
<!-- Generator: Adobe Illustrator 22.0.0, SVG Export Plug-In . SVG Version: 6.00 Build 0)  -->
<svg version="1.1" id="Layer_1" xmlns="http://www.w3.org/2000/svg" xmlns:xlink="http://www.w3.org/1999/xlink" x="0px" y="0px"
	 viewBox="0 0 512 512" style="enable-background:new 0 0 512 512;" xml:space="preserve">
<style type="text/css">
	.st0{fill:#DBDBDB;}
	.st1{fill:#F2F2F2;}
	.st2{fill:#C1301E;}
	.st3{fill:#F75B37;}
</style>
<title>toornamen icon (3)</title>
<g id="Layer_81">
	<path class="st0" d="M501,317.8L256,194.1L11,317.8c-2.6,1.3-3.7,4.5-2.3,7.1c0.5,1,1.3,1.8,2.3,2.3l237.2,119.8
		c4.9,2.4,10.6,2.4,15.4,0L501,327.2c2.6-1.3,3.7-4.5,2.3-7.1C502.8,319.1,502,318.3,501,317.8z"/>
	<polygon class="st0" points="8.2,302.2 8.2,323 47.1,317.3 	"/>
	<polygon class="st0" points="503.8,301.6 503.8,323 466,315.5 	"/>
	<path class="st1" d="M501,297.5L258.4,175c-1.5-0.8-3.3-0.8-4.8,0L11,297.5c-2.6,1.3-3.7,4.5-2.4,7.1c0.5,1,1.3,1.9,2.4,2.4
		l237.2,119.8c4.9,2.4,10.6,2.4,15.4,0L501,306.9c2.6-1.3,3.7-4.5,2.4-7.1C502.9,298.8,502,298,501,297.5z"/>
	<path class="st0" d="M501,262.6L256,138.9L11,262.6c-2.6,1.3-3.7,4.5-2.3,7.1c0.5,1,1.3,1.8,2.3,2.3l237.2,119.8
		c4.9,2.4,10.6,2.4,15.4,0L501,272.1c2.6-1.3,3.7-4.5,2.3-7.1C502.8,264,502,263.1,501,262.6z"/>
	<polygon class="st0" points="8.2,247 8.2,267.8 47.1,262.1 	"/>
	<polygon class="st0" points="503.8,246.4 503.8,267.8 466,260.3 	"/>
	<path class="st1" d="M501,242.3L258.4,119.8c-1.5-0.8-3.3-0.8-4.8,0L11,242.3c-2.6,1.3-3.7,4.5-2.3,7.1c0.5,1,1.3,1.8,2.3,2.3
		l237.2,119.8c4.9,2.4,10.6,2.4,15.4,0L501,251.7c2.6-1.3,3.7-4.5,2.3-7.1C502.8,243.6,502,242.8,501,242.3z"/>
	<path class="st0" d="M501,205.1L256,81.4L11,205.1c-2.6,1.3-3.7,4.5-2.3,7.1c0.5,1,1.3,1.8,2.3,2.3l237.2,119.8
		c4.9,2.4,10.6,2.4,15.4,0L501,214.5c2.6-1.3,3.7-4.5,2.4-7.1C502.9,206.4,502,205.6,501,205.1z"/>
	<polygon class="st0" points="8.2,189.5 8.2,210.3 47.1,204.6 	"/>
	<polygon class="st0" points="503.8,188.9 503.8,210.3 466,202.8 	"/>
	<path class="st1" d="M501,184.8L263.7,64.9c-4.9-2.4-10.6-2.4-15.4,0L11,184.8c-2.6,1.3-3.7,4.5-2.3,7.1c0.5,1,1.3,1.8,2.3,2.3
		L248.3,314c4.9,2.5,10.6,2.5,15.5,0L501,194.2c2.6-1.3,3.7-4.5,2.3-7.1C502.8,186.1,502,185.3,501,184.8z"/>
	<path class="st2" d="M211.9,180.3c2.3-3.6,5.9-6.9,10.9-9.8c6.1-3.5,13.4-5.9,21.2-7v-34.7c-23.1,1.5-45.4,7.4-63.1,17.6
		c-16.6,9.6-26.6,21.5-29.9,34H211.9z"/>
	<path class="st2" d="M284.4,211.3c-18.4,8.1-44.8,7.3-61.7-2.4c-2.5-1.4-4.9-3.2-7-5.2h-63.3c4.4,10.8,13.8,21,28.3,29.3
		c36.7,21.2,93.7,23.6,135.1,7.3L284.4,211.3z"/>
	<path class="st2" d="M331.2,146.3c-17.9-10.3-40.5-16.2-63.8-17.6v34.7c8,1.2,15.6,3.5,21.8,7.1c11.8,6.8,16,16.3,12.7,25
		l34.4,31.7c0.6,0.5,1.1,1.1,1.5,1.7C372.6,204.8,370.4,168.9,331.2,146.3z"/>
	<polygon class="st2" points="150.9,174.9 150.9,180.3 156.1,174.2 	"/>
	<polygon class="st2" points="301.9,190.2 301.9,195.5 305,191.4 	"/>
	<polygon class="st2" points="152.5,198.4 152.5,203.8 156.1,203.8 	"/>
	<path class="st3" d="M211.9,174.9c2.3-3.6,5.9-6.9,10.9-9.8c6.1-3.5,13.4-5.9,21.2-7v-34.7c-23.1,1.5-45.4,7.4-63.1,17.6
		c-16.6,9.6-26.6,21.5-29.9,34H211.9z"/>
	<path class="st3" d="M284.4,206c-18.4,8.1-44.8,7.3-61.7-2.4c-2.5-1.4-4.9-3.2-7-5.2h-63.3c4.4,10.8,13.8,21,28.3,29.3
		c36.7,21.2,93.7,23.6,135.1,7.3L284.4,206z"/>
	<path class="st3" d="M331.2,140.9c-17.9-10.3-40.5-16.2-63.8-17.6V158c8,1.2,15.6,3.5,21.8,7.1c11.8,6.8,16,16.3,12.7,25l34.4,31.7
		c0.6,0.5,1.1,1.1,1.5,1.7C372.6,199.4,370.4,163.6,331.2,140.9z"/>
	<polygon class="st2" points="315.9,235 315.9,240.4 309.5,237.2 	"/>
</g>
</svg>
