<svg id="Layer_1" data-name="Layer 1" xmlns="http://www.w3.org/2000/svg" viewBox="0 0 24 24"><title>Padiplay Icon</title><path d="M12,1.66a3.57,3.57,0,0,1,2.88,1.48,3.87,3.87,0,0,1,.68,2.31v6.26A3.87,3.87,0,0,1,14.88,14a3.56,3.56,0,0,1-5.77,0,3.87,3.87,0,0,1-.68-2.31V5.45a3.87,3.87,0,0,1,.68-2.31A3.57,3.57,0,0,1,12,1.66M12,0A5.24,5.24,0,0,0,6.78,5.22v6.43a5.42,5.42,0,0,0,4.72,5.48,5.24,5.24,0,0,0,5.72-5.2V5.22A5.24,5.24,0,0,0,12,0Z"/><path d="M18.47,16.41a1,1,0,0,0-.7.29A8.08,8.08,0,0,1,12.12,19a8.22,8.22,0,0,1-5.55-2l-.36-.34a1,1,0,0,0-.7-.28h0a.81.81,0,0,0-.7,1.36q.22.22.46.44a9.73,9.73,0,0,0,3,1.81,10.7,10.7,0,0,0,7.44,0,9.73,9.73,0,0,0,3-1.81q.24-.21.46-.44a.81.81,0,0,0-.7-1.36Z"/><rect x="11.17" y="19.77" width="1.66" height="3.73"/><path d="M13.86,24H10.14a.83.83,0,0,1,0-1.66h3.73a.83.83,0,1,1,0,1.66Z"/></svg>