<svg id="Layer_1" data-name="Layer 1" xmlns="http://www.w3.org/2000/svg" viewBox="0 0 24 24"><title>Padiplay Icon</title><path d="M11.42.19,1,7.83a1,1,0,0,0-.4.78V23a1,1,0,0,0,1,1H4.41a.85.85,0,0,0,.91-.78h0a.85.85,0,0,0-.91-.78h-1a1,1,0,0,1-1-1V9.37a1,1,0,0,1,.39-.78l8.6-6.42a1,1,0,0,1,1.16,0l8.6,6.42a1,1,0,0,1,.39.78v12.1a1,1,0,0,1-1,1h-1a.85.85,0,0,0-.91.78h0a.85.85,0,0,0,.91.78h2.82a1,1,0,0,0,1-1V8.61a1,1,0,0,0-.4-.78L12.58.19A1,1,0,0,0,11.42.19Z"/><path d="M12,14.29a4,4,0,0,0-4,4.05v4.78a.88.88,0,0,0,.88.88h0a.88.88,0,0,0,.88-.88V18.3a2.25,2.25,0,0,1,4.49,0v4.82a.88.88,0,0,0,.88.88h0a.88.88,0,0,0,.88-.88V18.3A4,4,0,0,0,12,14.29Z"/></svg>