<svg xmlns="http://www.w3.org/2000/svg" viewBox="0 0 1024 1024"><defs><style>.cls-1{fill:#f5f5f5;}.cls-2{fill:#ddd;}</style></defs><title>default-image</title><g id="Layer_13" data-name="Layer 13"><rect class="cls-1" width="1024" height="1024"/><path class="cls-2" d="M442.53,420.25h-58.4a2,2,0,0,1-2-1.95v-8.23A14.09,14.09,0,0,1,396.22,396h34.21a14.1,14.1,0,0,1,14.06,14.05v8.23A2,2,0,0,1,442.53,420.25Z"/><path class="cls-2" d="M673,433.23A37.23,37.23,0,0,0,635.76,396H522.36a19.09,19.09,0,0,0-18.26,13.85H388.24A37.23,37.23,0,0,0,351,447.08V591.7A37.29,37.29,0,0,0,388.24,628H635.76A37.23,37.23,0,0,0,673,590.77V443.63c0-.88,0-1.76-.13-2.6H673ZM518.93,614.13a84.82,84.82,0,1,1,84.82-84.82A84.82,84.82,0,0,1,518.93,614.13ZM652.21,432.44A15.52,15.52,0,0,1,636.71,448H615.79a15.53,15.53,0,0,1-15.51-15.51v-7.06a15.52,15.52,0,0,1,15.51-15.51h20.92a15.52,15.52,0,0,1,15.5,15.51Zm-11.33-12.19H611.61a1,1,0,0,0-.94.94v15.43a.94.94,0,0,0,.94.94h29.27a1,1,0,0,0,1-.94V421.19A1,1,0,0,0,640.88,420.25Z"/><path class="cls-2" d="M582.54,529.31a63.62,63.62,0,1,1-63.62-63.62A63.62,63.62,0,0,1,582.54,529.31Z"/><path class="cls-2" d="M582.54,529.31a63.62,63.62,0,1,1-63.62-63.62A63.62,63.62,0,0,1,582.54,529.31Z"/><path class="cls-2" d="M427.18,460.07a15.58,15.58,0,1,1-15.58-15.58A15.59,15.59,0,0,1,427.18,460.07Z"/><path class="cls-2" d="M588.5,427.18H532.44a1.4,1.4,0,0,1-1.4-1.4V411.27a1.4,1.4,0,0,1,1.4-1.4H588.5a1.4,1.4,0,0,1,1.4,1.4v14.51A1.4,1.4,0,0,1,588.5,427.18Z"/></g></svg>