<svg xmlns="http://www.w3.org/2000/svg" viewBox="0 0 1024 1024"><defs><style>.cls-1{fill:#f5f5f5;}.cls-2{fill:#ddd;}.cls-3{fill:#b2b2b2;}.cls-4{fill:#ccc;}</style></defs><title>default-image</title><g id="Layer_13" data-name="Layer 13"><rect class="cls-1" width="1024" height="1024"/><path class="cls-2" d="M639,453.87a90,90,0,0,0-30-66.42,91,91,0,0,0-8.59-6.81,90,90,0,0,0-51.62-16.21H385V659.57h64.39v-85h99.34A90.28,90.28,0,0,0,639,484.34V454.7C639,454.42,639,454.14,639,453.87ZM575.5,475a37,37,0,0,1-37,37H449.39V427h89.12a36.9,36.9,0,0,1,37,37Z"/><path class="cls-3" d="M449.39,574.61s-17.88,76.91-64.39,85h64.39Z"/><path class="cls-4" d="M639,454.7v29.64a90.28,90.28,0,0,1-90.27,90.27H449.39s85.86-31.31,116-74.2A36.82,36.82,0,0,0,575.5,475V464a37,37,0,0,0-27.92-35.88C546.89,388,575.5,368.9,575.5,368.9L577,369a89.86,89.86,0,0,1,23.34,11.68,91,91,0,0,1,8.59,6.81,90,90,0,0,1,30,66.42h0C639,454.14,639,454.42,639,454.7Z"/></g></svg>