<?xml version="1.0" encoding="utf-8"?>
<!-- Generator: Adobe Illustrator 23.0.6, SVG Export Plug-In . SVG Version: 6.00 Build 0)  -->
<svg version="1.1" id="Layer_1" xmlns="http://www.w3.org/2000/svg" xmlns:xlink="http://www.w3.org/1999/xlink" x="0px" y="0px"
	 viewBox="0 0 1024 1024" style="enable-background:new 0 0 1024 1024;" xml:space="preserve">
<style type="text/css">
	.st0{fill:#1D252C;}
</style>
<title>default-image</title>
<g id="Layer_13">
	<path class="st0" d="M442.5,420.2h-58.4c-1.1,0-2-0.9-2-2v-8.2c0-7.8,6.3-14.1,14.1-14.1h34.2c7.8,0,14,6.3,14.1,14v8.2
		C444.5,419.4,443.6,420.2,442.5,420.2z"/>
	<path class="st0" d="M673,433.2c0-20.6-16.7-37.2-37.2-37.2c0,0,0,0,0,0H522.4c-8.5,0-15.9,5.7-18.3,13.9H388.2
		c-20.6,0-37.2,16.7-37.2,37.2c0,0,0,0,0,0v144.6c0.5,20.2,17,36.3,37.2,36.3h247.5c20.6,0,37.2-16.7,37.2-37.2c0,0,0,0,0,0V443.6
		c0-0.9,0-1.8-0.1-2.6h0.1V433.2z M518.9,614.1c-46.8,0-84.8-38-84.8-84.8c0-46.8,38-84.8,84.8-84.8c46.8,0,84.8,38,84.8,84.8
		S565.8,614.1,518.9,614.1L518.9,614.1z M652.2,432.4c0,8.6-6.9,15.5-15.5,15.6c0,0,0,0,0,0h-20.9c-8.6,0-15.5-6.9-15.5-15.5v-7.1
		c0-8.6,6.9-15.5,15.5-15.5h20.9c8.6,0,15.5,7,15.5,15.5L652.2,432.4z M640.9,420.2h-29.3c-0.5,0-0.9,0.4-0.9,0.9v15.4
		c0,0.5,0.4,0.9,0.9,0.9l0,0h29.3c0.5,0,1-0.4,1-0.9v-15.4C641.8,420.7,641.4,420.2,640.9,420.2z"/>
	<path class="st0" d="M582.5,529.3c0,35.1-28.5,63.6-63.6,63.6s-63.6-28.5-63.6-63.6s28.5-63.6,63.6-63.6l0,0
		C554.1,465.7,582.5,494.2,582.5,529.3z"/>
	<path class="st0" d="M582.5,529.3c0,35.1-28.5,63.6-63.6,63.6s-63.6-28.5-63.6-63.6s28.5-63.6,63.6-63.6l0,0
		C554.1,465.7,582.5,494.2,582.5,529.3z"/>
	<path class="st0" d="M427.2,460.1c0,8.6-7,15.6-15.6,15.6s-15.6-7-15.6-15.6c0-8.6,7-15.6,15.6-15.6h0
		C420.2,444.5,427.2,451.5,427.2,460.1z"/>
	<path class="st0" d="M588.5,427.2h-56.1c-0.8,0-1.4-0.6-1.4-1.4c0,0,0,0,0,0v-14.5c0-0.8,0.6-1.4,1.4-1.4l0,0h56.1
		c0.8,0,1.4,0.6,1.4,1.4c0,0,0,0,0,0v14.5C589.9,426.6,589.3,427.2,588.5,427.2L588.5,427.2z"/>
</g>
</svg>
