<svg xmlns="http://www.w3.org/2000/svg" viewBox="0 0 1024 1024"><defs><style>.cls-1{fill:#ccc;}.cls-2{fill:#f2f2f2;}.cls-3{fill:#1093f9;}.cls-4{fill:none;stroke:#999;stroke-linecap:round;stroke-linejoin:round;stroke-width:12px;}</style></defs><title>toornamen icon (3)</title><g id="Layer_52" data-name="Layer 52"><rect class="cls-1" x="247.72" y="94.13" width="548.92" height="829.81" rx="36.96" ry="36.96"/><rect class="cls-2" x="227.37" y="109.06" width="554.02" height="820.81" rx="26.95" ry="26.95"/><rect class="cls-1" x="289.45" y="156.05" width="65.86" height="260.82" rx="32.93" ry="32.93"/><circle class="cls-3" cx="322.38" cy="833.94" r="32.93"/><line class="cls-4" x1="322.38" y1="597.25" x2="322.38" y2="559.87"/><line class="cls-4" x1="322.38" y1="669.56" x2="322.38" y2="632.17"/><line class="cls-4" x1="322.38" y1="741.87" x2="322.38" y2="704.48"/><rect class="cls-1" x="410.45" y="156.05" width="65.86" height="332.82" rx="32.93" ry="32.93"/><circle class="cls-3" cx="443.38" cy="833.94" r="32.93"/><line class="cls-4" x1="443.38" y1="597.25" x2="443.38" y2="559.87"/><line class="cls-4" x1="443.38" y1="669.56" x2="443.38" y2="632.17"/><line class="cls-4" x1="443.38" y1="741.87" x2="443.38" y2="704.48"/><rect class="cls-1" x="533.45" y="156.05" width="65.86" height="305.82" rx="32.93" ry="32.93"/><circle class="cls-3" cx="566.38" cy="833.94" r="32.93"/><line class="cls-4" x1="566.38" y1="597.25" x2="566.38" y2="559.87"/><line class="cls-4" x1="566.38" y1="669.56" x2="566.38" y2="632.17"/><line class="cls-4" x1="566.38" y1="741.87" x2="566.38" y2="704.48"/><rect class="cls-1" x="653.45" y="156.05" width="65.86" height="215.82" rx="32.93" ry="32.93"/><circle class="cls-3" cx="686.38" cy="833.94" r="32.93"/><line class="cls-4" x1="686.38" y1="597.25" x2="686.38" y2="559.87"/><line class="cls-4" x1="686.38" y1="669.56" x2="686.38" y2="632.17"/><line class="cls-4" x1="686.38" y1="741.87" x2="686.38" y2="704.48"/></g></svg>