<svg xmlns="http://www.w3.org/2000/svg" viewBox="0 0 1024 1024"><defs><style>.cls-1{fill:#ccc;}.cls-2{fill:#f2f2f2;}.cls-3{fill:#1093f9;}</style></defs><title>toornamen icon (3)</title><g id="Layer_51" data-name="Layer 51"><rect class="cls-1" x="169.54" y="88" width="318.88" height="391.31" rx="26.27" ry="26.27"/><rect class="cls-2" x="159.33" y="99.75" width="318.88" height="391.31" rx="21.15" ry="21.15"/><rect class="cls-1" x="338.61" y="147.18" width="35.57" height="205.52" rx="17.79" ry="17.79"/><rect class="cls-1" x="405.76" y="147.18" width="35.57" height="173.79" rx="17.79" ry="17.79"/><circle class="cls-3" cx="356.39" cy="425.84" r="17.79"/><circle class="cls-3" cx="423.55" cy="425.84" r="17.79"/><rect class="cls-1" x="204.28" y="147.18" width="35.57" height="184.37" rx="17.79" ry="17.79"/><rect class="cls-1" x="271.43" y="147.18" width="35.57" height="226.67" rx="17.79" ry="17.79"/><circle class="cls-3" cx="222.06" cy="425.84" r="17.79"/><circle class="cls-3" cx="289.21" cy="425.84" r="17.79"/><rect class="cls-1" x="545.79" y="88" width="318.88" height="391.31" rx="26.27" ry="26.27"/><rect class="cls-2" x="535.58" y="99.75" width="318.88" height="391.31" rx="21.15" ry="21.15"/><rect class="cls-1" x="714.85" y="147.18" width="35.57" height="205.52" rx="17.79" ry="17.79"/><rect class="cls-1" x="782.01" y="147.18" width="35.57" height="173.79" rx="17.79" ry="17.79"/><circle class="cls-3" cx="732.64" cy="425.84" r="17.79"/><circle class="cls-3" cx="799.79" cy="425.84" r="17.79"/><rect class="cls-1" x="580.52" y="147.18" width="35.57" height="184.37" rx="17.79" ry="17.79"/><rect class="cls-1" x="647.67" y="147.18" width="35.57" height="226.67" rx="17.79" ry="17.79"/><circle class="cls-3" cx="598.31" cy="425.84" r="17.79"/><circle class="cls-3" cx="665.46" cy="425.84" r="17.79"/><rect class="cls-1" x="169.54" y="532.94" width="318.88" height="391.31" rx="26.27" ry="26.27"/><rect class="cls-2" x="159.33" y="544.69" width="318.88" height="391.31" rx="21.15" ry="21.15"/><rect class="cls-1" x="338.61" y="592.13" width="35.57" height="205.52" rx="17.79" ry="17.79"/><rect class="cls-1" x="405.76" y="592.13" width="35.57" height="173.79" rx="17.79" ry="17.79"/><circle class="cls-3" cx="356.39" cy="870.78" r="17.79"/><circle class="cls-3" cx="423.55" cy="870.78" r="17.79"/><rect class="cls-1" x="204.28" y="592.13" width="35.57" height="184.37" rx="17.79" ry="17.79"/><rect class="cls-1" x="271.43" y="592.13" width="35.57" height="226.67" rx="17.79" ry="17.79"/><circle class="cls-3" cx="222.06" cy="870.78" r="17.79"/><circle class="cls-3" cx="289.21" cy="870.78" r="17.79"/><rect class="cls-1" x="545.79" y="532.94" width="318.88" height="391.31" rx="26.27" ry="26.27"/><rect class="cls-2" x="535.58" y="544.69" width="318.88" height="391.31" rx="21.15" ry="21.15"/><rect class="cls-1" x="714.85" y="592.13" width="35.57" height="205.52" rx="17.79" ry="17.79"/><rect class="cls-1" x="782.01" y="592.13" width="35.57" height="173.79" rx="17.79" ry="17.79"/><circle class="cls-3" cx="732.64" cy="870.78" r="17.79"/><circle class="cls-3" cx="799.79" cy="870.78" r="17.79"/><rect class="cls-1" x="580.52" y="592.13" width="35.57" height="184.37" rx="17.79" ry="17.79"/><rect class="cls-1" x="647.67" y="592.13" width="35.57" height="226.67" rx="17.79" ry="17.79"/><circle class="cls-3" cx="598.31" cy="870.78" r="17.79"/><circle class="cls-3" cx="665.46" cy="870.78" r="17.79"/></g></svg>