<svg xmlns="http://www.w3.org/2000/svg" viewBox="0 0 1024 1024"><defs><style>.cls-1{fill:#1093f9;}.cls-2{fill:#ccc;}.cls-3{fill:#f2f2f2;}.cls-4{fill:#f28877;}.cls-5{fill:#a0d257;}</style></defs><title>toornamen icon (3)</title><g id="Layer_49" data-name="Layer 49"><polygon class="cls-1" points="740.59 509.27 733.64 509.27 280.82 509.27 280.82 450.23 273.88 450.23 273.88 516.22 733.76 516.22 733.76 592 740.59 592 740.59 509.27"/><path class="cls-2" d="M199.89,96H348.27a24.27,24.27,0,0,1,24.27,24.27V424.93a14.89,14.89,0,0,1-14.89,14.89H199.89A14.89,14.89,0,0,1,185,424.93v-314A14.89,14.89,0,0,1,199.89,96Z"/><path class="cls-2" d="M676.77,573.77H825.15A24.27,24.27,0,0,1,849.42,598V902.69a14.89,14.89,0,0,1-14.89,14.89H676.77a14.89,14.89,0,0,1-14.89-14.89v-314a14.89,14.89,0,0,1,14.89-14.89Z"/><rect class="cls-3" x="174.58" y="106.42" width="187.53" height="343.81" rx="14.89" ry="14.89"/><rect class="cls-3" x="651.47" y="584.19" width="187.53" height="343.81" rx="14.89" ry="14.89"/><rect class="cls-2" x="216.26" y="147.05" width="31.26" height="179.35" rx="15.63" ry="15.63"/><rect class="cls-2" x="289.19" y="147.05" width="31.26" height="179.35" rx="15.63" ry="15.63"/><circle class="cls-4" cx="231.88" cy="392.93" r="15.63"/><circle class="cls-5" cx="304.81" cy="392.93" r="15.63"/><rect class="cls-2" x="693.14" y="614.46" width="31.26" height="184.31" rx="15.63" ry="15.63"/><rect class="cls-2" x="766.07" y="614.46" width="31.26" height="184.31" rx="15.63" ry="15.63"/><circle class="cls-4" cx="708.77" cy="860.28" r="15.63"/><circle class="cls-5" cx="781.7" cy="860.28" r="15.63"/></g></svg>