<svg xmlns="http://www.w3.org/2000/svg" viewBox="0 0 979 596"><title>toornamen icon (2)</title><g id="Layer_34" data-name="Layer 34"><path d="M964.39,288.16c-29.22-28.69-118.94-110.37-244-164.48h0l-85.86,85.86A170.4,170.4,0,0,1,400.05,444l-59.43,59.43c46.44,13.22,96.27,21.47,148.54,21.71v0h.68v0C730.39,524.06,919.37,353.31,964.4,309A14.61,14.61,0,0,0,964.39,288.16ZM319.13,299A170.4,170.4,0,0,1,577.71,153.23L637,93.95C590.94,81,541.58,73,489.84,72.83h-.68c-120.27.4-227.64,43.17-310.58,91.37S37.14,266,14.61,288.16a14.61,14.61,0,0,0,0,20.82C43.71,337.64,133,419.14,257.48,473.46l86.24-86.24A169.63,169.63,0,0,1,319.13,299Z"/><path d="M517.77,213.17,403.68,327.26a90.46,90.46,0,0,1,10.11-77.56A45.53,45.53,0,0,0,483.31,211c0-.71,0-1.41-.06-2.1,2.07-.14,4.16-.22,6.26-.22A89.84,89.84,0,0,1,517.77,213.17Z"/><path d="M579.84,299a90.37,90.37,0,0,1-120.1,85.32L574.82,269.24A90.2,90.2,0,0,1,579.84,299Z"/><path d="M224.5,583a20,20,0,0,1-14.14-34.14l530-530a20,20,0,1,1,28.28,28.29l-530,530A19.94,19.94,0,0,1,224.5,583Z"/></g></svg>