<svg xmlns="http://www.w3.org/2000/svg" viewBox="0 0 1024 1024"><title>toornamen icon (2)</title><g id="Layer_44" data-name="Layer 44"><path d="M584.42,735.79h18.69c6.45,0,11.68-4.53,11.68-10.11V525.42c0-5.59-5.23-10.11-11.68-10.11H584.42c-6.45,0-11.68,4.53-11.68,10.11V725.68C572.74,731.26,578,735.79,584.42,735.79Z"/><path d="M502.65,735.79h18.69c6.45,0,11.68-4.53,11.68-10.11V525.42c0-5.59-5.23-10.11-11.68-10.11H502.65c-6.45,0-11.68,4.53-11.68,10.11V725.68C491,731.26,496.2,735.79,502.65,735.79Z"/><path d="M420.88,735.79h18.69c6.45,0,11.68-4.53,11.68-10.11V525.42c0-5.59-5.23-10.11-11.68-10.11H420.88c-6.45,0-11.68,4.53-11.68,10.11V725.68C409.2,731.26,414.43,735.79,420.88,735.79Z"/><path d="M512,0C229.21,0,0,229.25,0,512s229.21,512,512,512,512-229.25,512-512S794.75,0,512,0ZM372.12,271.58c0-33.26,30.21-60.32,67.34-60.32h122c37.13,0,67.34,27.06,67.34,60.32v9.2a15,15,0,1,1-30,0v-9.2c0-16.72-16.75-30.32-37.34-30.32h-122c-20.59,0-37.34,13.6-37.34,30.32v9.2a15,15,0,0,1-30,0ZM675,788.87c-.65,13.34-13.32,23.87-28.74,23.87H377.73c-15.42,0-28.09-10.53-28.74-23.87L329.82,438.36H694.18Zm50-412a20.34,20.34,0,0,1-20.34,20.34H319.34A20.34,20.34,0,0,1,299,376.84V348.07c0-8.63,8.07-15.63,18.05-15.63H440.93v-.16H583.06v.16H706.95c10,0,18.05,7,18.05,15.63Z"/></g></svg>