<svg xmlns="http://www.w3.org/2000/svg" viewBox="0 0 1024 1024"><title>toornamen icon (3)</title><g id="Layer_63" data-name="Layer 63"><path d="M512,0C229.21,0,0,229.25,0,512s229.21,512,512,512,512-229.25,512-512S794.75,0,512,0ZM679,806.48q-83.49,0-167,0t-167,0a127.5,127.5,0,0,1-127.53-127.6q.1-166.88,0-333.77a127.51,127.51,0,0,1,127.6-127.6q166.92.1,333.83,0a127.51,127.51,0,0,1,127.6,127.6q-.1,166.88,0,333.77A127.5,127.5,0,0,1,679,806.48Z"/><path d="M516.32,319.9a186.66,186.66,0,1,0-.82,373.32c103.14.09,186.78-83.19,186.9-186.1S619,320.12,516.32,319.9Zm-.82,305.37a118.38,118.38,0,0,1-118.18-118.7c.07-66,53-118.36,119.47-118.21,64.74.15,117.19,53.21,117.14,118.52A118.28,118.28,0,0,1,515.5,625.27Z"/><path d="M515.7,553.36a46.71,46.71,0,1,1,46.83-46.7A46.64,46.64,0,0,1,515.7,553.36Z"/></g></svg>