<svg xmlns="http://www.w3.org/2000/svg" viewBox="0 0 1024 1024"><title>toornamen icon (3)</title><g id="Layer_64" data-name="Layer 64"><path d="M512,0C229.21,0,0,229.25,0,512s229.21,512,512,512,512-229.25,512-512S794.75,0,512,0ZM758.75,515.11a262.16,262.16,0,0,1-1.82,28.29,2.39,2.39,0,0,1-.33,1.17h0a3.64,3.64,0,0,1-.15,1.61,1.56,1.56,0,0,1-.26,1.3,31,31,0,0,1-.51,3.62,2.46,2.46,0,0,1-.32,1.71,104.36,104.36,0,0,1-2.12,11.7,237.27,237.27,0,0,1-15.23,47c-5.48,12.27-11.73,24.15-18.34,35.85A513.81,513.81,0,0,1,525.8,841.26a22.49,22.49,0,0,1-4.65,2.12c-4.37,1.3-9.67-2.05-8.37-8.33a10.19,10.19,0,0,1,1.8-3.89c14-19.37,22.84-40.94,27.54-64.29a30.81,30.81,0,0,0,.65-6.33c0-2.08-.67-2.85-2.76-3a35.91,35.91,0,0,0-5.54.21,228.91,228.91,0,0,1-32.65.82c-4.45-.23-8.89-.49-13.33-.9q-11.06-1-22-3.06A245.64,245.64,0,0,1,333.9,682.88a246.31,246.31,0,0,1-44.12-63.34,242.66,242.66,0,0,1-18-50.6c-1-4.06-1.79-8.14-2.6-12.23a15.58,15.58,0,0,1-.15-1.84h0a1.55,1.55,0,0,1-.28-1.3,2.14,2.14,0,0,1-.13-1.17h0a1.56,1.56,0,0,1-.28-1.3,2.17,2.17,0,0,1-.12-1.2h0a1.55,1.55,0,0,1-.26-1.26,3.48,3.48,0,0,1-.16-1.58h0a2.38,2.38,0,0,1-.29-1.72,3.6,3.6,0,0,1-.15-1.54,72.75,72.75,0,0,1-1.16-9.54c-.34-3.61-.56-7.23-.85-10.85,0-.53,0-1.11-.4-1.54V502.95a22.39,22.39,0,0,0,.72-5.86A241.21,241.21,0,0,1,277,436.26a275.22,275.22,0,0,1,19.77-45.77,536,536,0,0,1,30.74-51A511.47,511.47,0,0,1,465.37,202.94q17.07-11.45,35.07-21.4a8.07,8.07,0,0,1,6.9-.73,6.48,6.48,0,0,1,4.1,8.11,16.34,16.34,0,0,1-2.66,4.84,204.23,204.23,0,0,0-13.63,22,147.88,147.88,0,0,0-15,41.58c-.27,1.41-.67,2.79-1,4.19a8.76,8.76,0,0,0-.17,2.66c.11,2.09.53,2.44,2.67,2.28,10.74-.79,21.48-1.36,32.25-1.21a262.1,262.1,0,0,1,34.22,2.44,246,246,0,0,1,147.19,78.72,247,247,0,0,1,59.57,120.42A242.59,242.59,0,0,1,758.75,515.11Z"/><path d="M585.39,450.15A94.87,94.87,0,0,0,531.26,418a87.34,87.34,0,0,0-19.79-2.07c-22.85.48-43.28,7.75-60.88,22.49a94.8,94.8,0,0,0-24.44,30.92,91.48,91.48,0,0,0-9.55,33.42c-1,12-.28,24,3.26,35.59.26.85.49,1.71.71,2.58a2,2,0,0,1,0,1.6c.7.47.83,1.28,1.09,2a95.42,95.42,0,0,0,25.7,38.15,95.57,95.57,0,0,0,105.13,16.2q35.93-17.17,49.83-54.51c.26-.7.34-1.56,1.19-1.86-.58-.88,0-1.83.32-2.7a81.46,81.46,0,0,0,4-20.95,97.29,97.29,0,0,0-22.44-68.69Z"/></g></svg>