<svg id="Layer_1" data-name="Layer 1" xmlns="http://www.w3.org/2000/svg" viewBox="0 0 1024 1024"><defs><style>.cls-1{fill:#f5f5f5;}</style></defs><title>toornamen icon (4)</title><path class="cls-1" d="M222.76,348.49c1.14,24.71,8,73.6,42.32,113.64,17.56,20.5,40.22,36.29,67.67,47.37-23-54.15-36.63-112.84-44.68-161Z"/><path class="cls-1" d="M600.88,384.24,547,377a8.43,8.43,0,0,1-6.41-4.55L516,324a8.32,8.32,0,0,0-7.28-4.61,8.6,8.6,0,0,0-2,.2c-.19,0-.38.09-.57.15a8.31,8.31,0,0,0-1.43.54c-.16.08-.33.14-.48.23a8,8,0,0,0-1.52,1.1s0,.06-.06.08a8.34,8.34,0,0,0-1.59,2,2.65,2.65,0,0,0-.15.27l-.1.18-23.52,49a8.44,8.44,0,0,1-6.3,4.69l-48.22,7.55-5.49.86a8.45,8.45,0,0,0-4.53,14.46l39.36,37.51a8.45,8.45,0,0,1,2.51,7.45l-8.4,52.54-.19,1.15a8.45,8.45,0,0,0,12.35,8.77l47.84-25.84a8.44,8.44,0,0,1,7.86-.09L562.5,507a8.45,8.45,0,0,0,12.15-9l-9.79-53.47a8.47,8.47,0,0,1,2.34-7.51l38.51-38.38A8.45,8.45,0,0,0,600.88,384.24Z"/><path class="cls-1" d="M512,0C229.21,0,0,229.25,0,512s229.21,512,512,512,512-229.25,512-512S794.75,0,512,0ZM785.75,484.46C756,519.32,715,542.82,663.44,554.67c-22.56,39.62-51.57,73.74-88.89,94.95l-2.42,1.31c-1.95,1-3.86,2-5.78,3-.5.25-1,.48-1.51.72-2.09,5-15,40.23,26.49,59.51,40.15,18.63,32.71,32.31,30.74,35v76.16h6.62a7,7,0,0,1,6.95,6.95v9.15H382.72v-9.15a7,7,0,0,1,6.95-6.95h5.82v-75.7c-.35-.37-13.89-14.88,30.33-35.4C454.16,701,457.11,680.41,455.5,667A47.77,47.77,0,0,0,452,654h.11c-41.88-21-73.8-57.76-98.13-101-48.51-12.3-87.34-35.21-115.77-68.58-57.25-67.19-50.56-151.4-50.24-155l1.4-15.92h93.48c-5.09-39.15-6.12-65.57-6.17-66.9h-5.29v-12H746.94v12h-5.29c0,.28,0,1.36-.16,3.24-.42,8.37-1.87,31.83-6,63.66h99.12l1.4,15.92C836.31,333.06,843,417.27,785.75,484.46Z"/><path class="cls-1" d="M684.53,512.11c30.65-11.2,55.65-28,74.66-50.29,34.28-40.23,41.06-88.77,42.12-113.34h-71C722.12,397.44,708.17,457.24,684.53,512.11Z"/></svg>