<svg xmlns="http://www.w3.org/2000/svg" viewBox="0 0 1024 1024"><title>toornamen icon (3)</title><g id="Layer_36" data-name="Layer 36"><path d="M715.91,282.5a25.62,25.62,0,0,1,25.59,25.59V715.91a25.62,25.62,0,0,1-25.59,25.59H308.09a25.62,25.62,0,0,1-25.59-25.59V308.09a25.62,25.62,0,0,1,25.59-25.59H715.91m0-30H308.09a55.65,55.65,0,0,0-55.59,55.59V715.91a55.65,55.65,0,0,0,55.59,55.59H715.91a55.65,55.65,0,0,0,55.59-55.59V308.09a55.65,55.65,0,0,0-55.59-55.59Z"/><path d="M429.18,676a8.9,8.9,0,0,1-5.08,3.16l-44.44,9.52a8.24,8.24,0,0,1-2.31.2,9,9,0,0,1-4.92-1.9,8.69,8.69,0,0,1-3.32-6.64l-1.34-45.41a8.56,8.56,0,0,1,1.81-5.67l17.76-22.64,59.6,46.74Z"/><path d="M653,387.66,473.13,621.17l-59.56-46.72L593.45,340.92a14.7,14.7,0,0,1,20.66-2.48L650.51,367A14.67,14.67,0,0,1,653,387.66Z"/><path d="M512,0C229.21,0,0,229.25,0,512s229.21,512,512,512,512-229.25,512-512S794.75,0,512,0ZM801.5,715.91a85.69,85.69,0,0,1-85.59,85.59H308.09a85.69,85.69,0,0,1-85.59-85.59V308.09a85.69,85.69,0,0,1,85.59-85.59H715.91a85.69,85.69,0,0,1,85.59,85.59Z"/></g></svg>