<svg xmlns="http://www.w3.org/2000/svg" viewBox="0 0 1024 1024"><title>toornamen icon (3)</title><g id="Layer_65" data-name="Layer 65"><path d="M512,0C229.21,0,0,229.25,0,512s229.21,512,512,512,512-229.25,512-512S794.75,0,512,0ZM393.68,610.26l-83.94,30-25.32,9.33c-20,7.33-16.65,18.65-9.33,23.32,0,0,24.65,14,72.62-2.67l46-17.32v58a413,413,0,0,1-169.21-9.33c-42.64-11.33-66-26.65-68-47.3-.67-14,18-30,54-45.3l24-9.33,137.9-49.3L393.68,543ZM540.24,351.11v429L429,746.16V229.86c41.3,8.66,93.27,26,154.56,46,49.3,16.65,82.61,38,101.26,63.29,20.65,24,30,60,30,107.26,0,45.3-13.32,75.28-38,92.6-24,18-56,16.66-91.93-.67V365.77C584.88,327.13,539.58,325.13,540.24,351.11ZM813.38,680.88l-18.65,8.66L634.84,746.16l-66.62,24V702.86l142.57-51.3,24.65-10c21.32-7.33,22.65-19.32,1.33-24.65-28-7.33-60.62,4.66-60.62,4.66l-107.92,38v-66c39.31-12.66,83.27-24.65,119.91-25.32,40-1.33,76.61,5.33,119.25,19.32,38,12.66,59.29,26.65,60,44.63C869.34,651.56,852,666.88,813.38,680.88Z"/></g></svg>