<svg xmlns="http://www.w3.org/2000/svg" viewBox="0 0 1024 1024"><defs><style>.cls-1{fill:#f5f5f5;}</style></defs><title>toornamen icon</title><g id="Layer_2" data-name="Layer 2"><path class="cls-1" d="M512,0C229.23,0,0,229.23,0,512s229.23,512,512,512,512-229.23,512-512S794.77,0,512,0Zm0,90.11c108.36,0,196.2,87.85,196.2,196.2S620.36,482.51,512,482.51s-196.2-87.84-196.2-196.2S403.64,90.11,512,90.11ZM810.52,812.33c-81.71,71.63-188.15,115-304.55,115-109.6,0-210.36-38.41-290-102.69-51.63-41.69-50.79-120.76,1.2-162,83.15-66,187.79-105.29,301.48-105.29A482.79,482.79,0,0,1,804.2,650.44C857.83,689.54,860.43,768.58,810.52,812.33Z"/></g></svg>