<svg xmlns="http://www.w3.org/2000/svg" viewBox="0 0 927 639"><defs><style>.cls-1{fill:#fff;}</style></defs><title>toornamen icon</title><g id="Layer_7" data-name="Layer 7"><path class="cls-1" d="M622.7,216.69q0,5.77-.42,11.45a118.07,118.07,0,0,1-62.87-136A154,154,0,0,1,622.7,216.69Z"/><path d="M791.42,121.93A118,118,0,0,1,641.7,235.48a175,175,0,0,0,1-18.79A174.6,174.6,0,0,0,566.41,72.57a117.92,117.92,0,0,1,225,49.36Z"/><path d="M926.15,352.47V420a26.49,26.49,0,0,1-26.49,26.49H806.54c-.58-1.49-1.19-3-1.81-4.45A179.84,179.84,0,0,0,638.9,332.09h-40a173.76,173.76,0,0,0,38.89-74.33,140.25,140.25,0,0,0,121.66-27.63H803.8A122.33,122.33,0,0,1,926.15,352.47Z"/><path d="M308,148.88a173.27,173.27,0,0,0-13.69,67.81c0,5.23.23,10.44.69,15.6A117.91,117.91,0,1,1,363,78.07a176.17,176.17,0,0,0-17.64,15.44A173.74,173.74,0,0,0,308,148.88Z"/><path class="cls-1" d="M371.42,121.93a117.84,117.84,0,0,1-57,100.93c-.08-2-.12-4.1-.12-6.17a153.9,153.9,0,0,1,54.8-117.92A117.82,117.82,0,0,1,371.42,121.93Z"/><path d="M170.83,384.8A179.18,179.18,0,0,0,132.27,442c-.62,1.48-1.23,3-1.81,4.45H27.37A26.52,26.52,0,0,1,.85,420v-67.5A122.33,122.33,0,0,1,123.19,230.13h39.23a140.13,140.13,0,0,0,135.81,23.38,173.73,173.73,0,0,0,39.85,78.58h-40A179.47,179.47,0,0,0,170.83,384.8Z"/><path d="M468.5,62.48a154.18,154.18,0,1,1-154.16,154.2A154.22,154.22,0,0,1,468.5,62.48Z"/><path d="M798.88,600.35A34.64,34.64,0,0,1,764.24,635H172.8a34.68,34.68,0,0,1-34.69-34.64V512.08a160,160,0,0,1,160-160h51.29a183,183,0,0,0,231.56,0H638.9a160,160,0,0,1,160,160Z"/></g></svg>