<svg xmlns="http://www.w3.org/2000/svg" viewBox="0 0 1024 1024"><defs><style>.cls-1{fill:#fff;}</style></defs><title>toornamen icon (3)</title><g id="Layer_59" data-name="Layer 59"><circle cx="512" cy="512" r="512"/><path class="cls-1" d="M375,783.25a14.73,14.73,0,0,1-8.4,5.23L293,804.23a13.64,13.64,0,0,1-3.83.33,14.82,14.82,0,0,1-8.14-3.15,14.37,14.37,0,0,1-5.5-11l-2.22-75.14a14.17,14.17,0,0,1,3-9.39l29.39-37.46,98.64,77.36Z"/><path class="cls-1" d="M745.46,306.1,447.72,692.56l-98.57-77.33L646.84,228.74A24.32,24.32,0,0,1,681,224.63l60.24,47.22a24.29,24.29,0,0,1,4.19,34.25Z"/></g></svg>