<svg xmlns="http://www.w3.org/2000/svg" viewBox="0 0 1024 1024"><defs><style>.cls-1{fill:#f5f5f5;}</style></defs><title>toornamen icon (2)</title><g id="Layer_27" data-name="Layer 27"><path class="cls-1" d="M512,0C229.21,0,0,229.25,0,512s229.21,512,512,512,512-229.25,512-512S794.75,0,512,0ZM420.14,736.2l-14.32,14.27a10.29,10.29,0,0,1-14.49,0l-36-36.15-51,50.82c-.06-.06-.06-.13-.13-.19-.45-.64-.89-1.35-1.34-2a52.94,52.94,0,0,0-6-6.87,49.88,49.88,0,0,0-12.68-8.8,53.11,53.11,0,0,0-9.74-3.86c-2.37-.71-3.78-1-3.78-1s1.22.71,3.2,2.12a34.44,34.44,0,0,1,3.46,2.57c9.28,8,15.8,19.13,15.72,31.69-.34,14.36-9.15,28.58-22.49,34.26A37.32,37.32,0,1,1,256,741.38c.9,0,1.8.07,2.63.13l62.16-62-36-36.15a10.29,10.29,0,0,1,0-14.49l14.32-14.21a10.29,10.29,0,0,1,14.49,0l106.56,107A10.29,10.29,0,0,1,420.14,736.2Zm-.24-55.77-23-23.12-18.3-18.37-23.81-23.88,62.17-82.75L272,422.95a32.26,32.26,0,0,1-11.82-18.06l-41.3-171a9.66,9.66,0,0,1,11.52-11.68L403,261.38a32.1,32.1,0,0,1,18.54,12l95,126.38,95-126.38a32.15,32.15,0,0,1,18.55-12l172.57-39.14a9.66,9.66,0,0,1,11.52,11.68l-41.31,171A32.29,32.29,0,0,1,761,422.95L616.1,532.31l62.18,82.75-23.81,23.88-18.3,18.37-23,23.12-96.61-72.93ZM777.14,816a37,37,0,0,1-14.62-2.93c-13.34-5.68-22.15-19.9-22.49-34.26-.08-12.57,6.44-23.73,15.72-31.69a34.41,34.41,0,0,1,3.46-2.57c2-1.41,3.2-2.12,3.2-2.12s-1.41.26-3.78,1a53.12,53.12,0,0,0-9.74,3.86,49.88,49.88,0,0,0-12.68,8.8,53,53,0,0,0-6,6.87c-.45.64-.9,1.35-1.34,2-.06.06-.06.13-.13.19l-51-50.82-36,36.15a10.29,10.29,0,0,1-14.49,0L612.9,736.2a10.29,10.29,0,0,1,0-14.49l106.56-107a10.29,10.29,0,0,1,14.49,0l14.32,14.21a10.29,10.29,0,0,1,0,14.49l-36,36.15,62.16,62c.83-.06,1.73-.13,2.63-.13a37.31,37.31,0,0,1,.12,74.62Z"/><path class="cls-1" d="M549.86,582.33,531,562.4l67.65-53.32L740.83,397a4.84,4.84,0,0,0,1.67-2.53l27.67-102.18a4.84,4.84,0,0,0-8.18-4.59L578.22,481.89l-61.7,65.2-61.7-65.2L271,287.69a4.84,4.84,0,0,0-8.18,4.59l27.67,102.18a4.84,4.84,0,0,0,1.67,2.53L434.39,509.08,502,562.4l-18.86,19.93-66.25,70L494.69,591l21.83-17.2L538.34,591l77.77,61.31Z"/></g></svg>