<svg xmlns="http://www.w3.org/2000/svg" viewBox="0 0 1024 1024"><defs><style>.cls-1{fill:#f5f5f5;}</style></defs><title>toornamen icon (2)</title><g id="Layer_26" data-name="Layer 26"><path class="cls-1" d="M512,0C229.21,0,0,229.25,0,512s229.21,512,512,512,512-229.25,512-512S794.75,0,512,0ZM711.41,768.6c-40.48,27.82-93.21,47.2-152.13,54,45.93-12.93,78.05-44.16,78.05-80.42V742c-.51-128.66-109.66-192.84-109.66-192.84C543.34,613.72,496.33,646,496.33,646c-19.57-20.17-62.66-32.29-62.66-32.29-15.67,64.58-47,88.1-47,129.18,0,33.41,33.77,66.81,81.25,80.11C333.11,808.46,230,728.3,230,631.58c0-96.88,78.34-129.18,46.44-247.58,0,0,110.23,43.06,110.23,139.94,0,0,31-20,16.68-139.94C386.67,244.06,546.13,201,546.13,201c-65.45,150.7,91.2,258.35,91.2,258.35,47-86.12,130.88-96.88,130.88-96.88C715.66,437.83,794,523.94,794,631.58,794,685.09,762.45,733.53,711.41,768.6Z"/></g></svg>