<svg xmlns="http://www.w3.org/2000/svg" viewBox="0 0 1024 808"><title>toornamen icon</title><g id="Layer_16" data-name="Layer 16"><g id="_Group_" data-name="&lt;Group&gt;"><path id="_Path_" data-name="&lt;Path&gt;" d="M37.6,208.27c-6.64-32.93,0-61.49,20.36-87.75C69.21,106,78.9,90.26,89.35,75.11c37.92-55,109.65-64.81,160-20.27,14.09,12.45,25.74,28.8,35,45.33,15.74,28.12,29,57.64,42.75,86.85,18.82,40.09,17,78.88-8.85,115.71-3.14,4.48-5.51,9.76-9.41,13.41-20.1,18.79-14.38,36.45-1.49,57.24,75.81,122.35,184.33,193.26,327.1,212,9.07,1.19,14.85-.48,19.69-8.59,6.63-11.08,14.37-21.49,21.77-32.1,24.27-34.8,58.07-50.4,99.92-47.75,37.16,2.35,74.34,5.17,111.32,9.42C953.59,514,1000.7,578,986.26,640.71c-2.72,11.81-8.34,23.43-14.78,33.79C959.16,694.35,945,713,932.16,732.57c-14,21.32-34.11,32.92-58.53,37.29-335.17,60-667.35-123-795-438.78C62.52,291.14,51.17,249.26,37.6,208.27Z"/></g></g></svg>