<svg xmlns="http://www.w3.org/2000/svg" viewBox="0 0 1024 1024"><title>toornamen icon (2)</title><g id="Layer_38" data-name="Layer 38"><path d="M782,725.84a17.15,17.15,0,1,0-34.29,0,17,17,0,0,0,7,13.79L752.05,764a4.29,4.29,0,0,0,4.26,4.76h17.15a4.29,4.29,0,0,0,4.26-4.76L775,739.63A17,17,0,0,0,782,725.84Z"/><path d="M698.85,270.33A65.2,65.2,0,0,0,652.47,251H277.67a66,66,0,0,0-65.72,65.71v374.8a66,66,0,0,0,65.72,65.72H620.56V667.3a35.6,35.6,0,0,1,22.3-33c2.25-45.35,33.4-84,75.32-97.36V316.71A65.2,65.2,0,0,0,698.85,270.33ZM327.25,647.81a29.27,29.27,0,1,1,29.26-29.26A29.26,29.26,0,0,1,327.25,647.81Zm0-118.46a29.27,29.27,0,1,1,29.26-29.27A29.26,29.26,0,0,1,327.25,529.35Zm0-116.6a29.27,29.27,0,1,1,29.26-29.27A29.26,29.26,0,0,1,327.25,412.75ZM606,633.76H385.93V596H606Zm0-115H385.93V481H606Zm0-115H385.93V366H606Z"/><path d="M764.89,623a34.33,34.33,0,0,0-34.29,34.29V674.4h68.59V657.26A34.33,34.33,0,0,0,764.89,623Z"/><path d="M512,0C229.21,0,0,229.25,0,512s229.21,512,512,512,512-229.25,512-512S794.75,0,512,0ZM672.73,661.76H656.1a5.54,5.54,0,0,0-5.54,5.54V787.23H277.67c-52.64,0-95.72-43.08-95.72-95.72V316.71c0-52.64,43.08-95.71,95.72-95.71h374.8c52.64,0,95.71,43.07,95.71,95.71V562a77.71,77.71,0,0,0-75.45,77.59Zm169.32,124.1A17.16,17.16,0,0,1,824.9,803h-120a17.16,17.16,0,0,1-17.14-17.14V678.69A4.29,4.29,0,0,1,692,674.4h12.86V657.26a60,60,0,1,1,120,0V674.4h12.86a4.29,4.29,0,0,1,4.29,4.29Z"/></g></svg>