<svg xmlns="http://www.w3.org/2000/svg" viewBox="0 0 1024 1024"><title>toornamen icon (2)</title><g id="Layer_43" data-name="Layer 43"><path d="M512,0C229.21,0,0,229.25,0,512s229.21,512,512,512,512-229.25,512-512S794.75,0,512,0ZM769,723.5A55.66,55.66,0,0,1,713.5,779h-433A55.66,55.66,0,0,1,225,723.5v-298a12,12,0,0,1,12-12H757a12,12,0,0,1,12,12ZM803,347a32.6,32.6,0,0,1-32.5,32.5h-547A32.6,32.6,0,0,1,191,347V301.5A32.6,32.6,0,0,1,223.5,269h547A32.6,32.6,0,0,1,803,301.5Z"/><path d="M590.5,488H412a15,15,0,0,1,0-30H590.5a15,15,0,0,1,0,30Z"/></g></svg>