<svg xmlns="http://www.w3.org/2000/svg" viewBox="0 0 1024 1024"><defs><style>.cls-1{fill:#f5f5f5;}</style></defs><title>toornamen icon (2)</title><g id="Layer_25" data-name="Layer 25"><path class="cls-1" d="M512,0C229.21,0,0,229.25,0,512s229.21,512,512,512,512-229.25,512-512S794.75,0,512,0Zm94.48,287.85c.31-.52.62-1,.94-1.54,1.49-2.41,3.08-4.74,4.77-7q.36-.5.75-1c.46-.6.92-1.2,1.39-1.79s.72-.9,1.09-1.34c.9-1.1,1.82-2.17,2.77-3.23l1-1.09A102.47,102.47,0,0,1,630,260.73c.42-.35.84-.69,1.27-1,1.88-1.48,3.82-2.9,5.8-4.24.39-.27.79-.53,1.19-.79l1.23-.8,1-.63q2.49-1.56,5.09-3l0,0c.62-.34,1.24-.67,1.87-1s1.27-.65,1.91-1l1.94-.92c.65-.31,1.3-.6,2-.89l1.22-.53,1.35-.56c.45-.19.9-.37,1.36-.54l1.1-.43h0l1.42-.52,1.56-.55,1.3-.43,1.44-.46,1-.3c2.09-.63,4.2-1.19,6.35-1.68,1-.22,1.95-.44,2.94-.63.66-.13,1.31-.26,2-.37.51-.1,1-.19,1.55-.27l1.32-.21.26,0c.58-.09,1.15-.17,1.73-.24l1.92-.23,1.84-.19,1.27-.11h.18l1-.07q3.54-.26,7.16-.25a102.45,102.45,0,1,1,0,204.9l-1.87,0q-.59,0-1.17,0t-.93,0l-1.09,0-.66,0c-.47,0-.93,0-1.4-.09l-.73-.05-.25,0-2.1-.19h0l-1.51-.16-1-.12c-.74-.09-1.47-.19-2.2-.3l-.47-.07-2.15-.34-.15,0c-.82-.14-1.64-.3-2.45-.46a162.59,162.59,0,0,0,1-18.11A159.36,159.36,0,0,0,604.9,290.59C605.41,289.67,605.94,288.76,606.48,287.85Zm-90.14.83a134,134,0,1,1-133.95,134A134,134,0,0,1,516.34,288.68ZM329.53,237.87q4.17,0,8.27.33l1.57.14.33,0q.84.07,1.68.18l.27,0c.58.07,1.17.14,1.75.23,0,0,0,0,.06,0,.54.07,1.08.15,1.61.24a5.81,5.81,0,0,1,.58.09q.75.1,1.47.24c1,.18,2.1.37,3.13.59l1.31.28,1.77.4c1,.24,2,.49,3,.76,1.34.36,2.67.74,4,1.16l1.16.37q2.25.73,4.44,1.57c.55.21,1.11.42,1.66.65s.85.33,1.26.51l1.14.48.7.3,1.3.59c.51.23,1,.46,1.52.71l1.9.92q2.28,1.14,4.47,2.38a100.87,100.87,0,0,1,10.34,6.69l1.4,1.05c.93.71,1.85,1.43,2.76,2.18l1.35,1.12c1.34,1.13,2.64,2.29,3.92,3.5.81.75,1.6,1.52,2.38,2.3.07.06.13.13.2.2.8.8,1.59,1.63,2.37,2.46s1.58,1.72,2.34,2.61c.39.44.77.88,1.14,1.33l1.05,1.27c.76.93,1.5,1.88,2.23,2.85.34.45.68.9,1,1.36.8,1.08,1.57,2.19,2.31,3.31q.38.54.72,1.08c.32.49.64,1,1,1.48.68,1.08,1.34,2.17,2,3.28.54.93,1.06,1.86,1.57,2.8h0q.84,1.56,1.62,3.15a160.15,160.15,0,0,0-17.53,15.17,159.22,159.22,0,0,0-45.75,128.44q-.85.26-1.71.48c-1.14.32-2.3.61-3.46.88l-1.12.26-1.43.31-.14,0-2.11.41-.47.09c-1.38.25-2.77.47-4.18.66-.72.1-1.45.19-2.18.27a.78.78,0,0,1-.22,0c-.74.09-1.48.16-2.22.23s-1.77.15-2.66.21c-.55,0-1.09.07-1.64.09-1.69.09-3.4.13-5.12.13a102.45,102.45,0,0,1,0-204.9ZM215.09,632.32H133a23,23,0,0,1-23-23V550.65a106.29,106.29,0,0,1,106.3-106.3h34.09a121.77,121.77,0,0,0,113.08,22,158.33,158.33,0,0,0,30.68,58H369.28A164.11,164.11,0,0,0,218.17,624.48C217.07,627.07,216.05,629.68,215.09,632.32ZM804.41,765a30.1,30.1,0,0,1-30.1,30.1H260.41A30.13,30.13,0,0,1,230.27,765v-76.7a139,139,0,0,1,139-139h44.57a159,159,0,0,0,201.2,0H665.4a139,139,0,0,1,139,139ZM891,632.32H819.6c-1-2.64-2-5.25-3.08-7.84A163.92,163.92,0,0,0,665.4,524.32H638.56a158.6,158.6,0,0,0,29.77-54.9,121.79,121.79,0,0,0,100.86-25.07h38.5A106.29,106.29,0,0,1,914,550.65V609.3A23,23,0,0,1,891,632.32Z"/></g></svg>