<?xml version="1.0" encoding="utf-8"?>
<!-- Generator: Adobe Illustrator 22.0.0, SVG Export Plug-In . SVG Version: 6.00 Build 0)  -->
<svg version="1.1" id="Layer_1" xmlns="http://www.w3.org/2000/svg" xmlns:xlink="http://www.w3.org/1999/xlink" x="0px" y="0px"
	 viewBox="0 0 512 512" style="enable-background:new 0 0 512 512;" xml:space="preserve">
<style type="text/css">
	.st0{fill:#FFFFFF;}
</style>
<path class="st0" d="M304.7,241.7l-69.9-38.3c-4-2.2-8.8-2.1-12.7,0.2c-3.9,2.3-6.3,6.5-6.3,11.1v75.9c0,4.6,2.3,8.7,6.3,11
	c2,1.2,4.3,1.8,6.6,1.8c2.1,0,4.2-0.5,6.1-1.5l69.9-37.6c4.2-2.2,6.7-6.6,6.8-11.3C311.4,248.3,308.9,244,304.7,241.7z M234.3,281.1
	v-56.7l52.3,28.6L234.3,281.1z"/>
<path class="st0" d="M412,192.6l0-0.1c-0.3-2.5-2.9-25.2-14-36.7c-12.7-13.6-27.2-15.2-34.1-16c-0.6-0.1-1.1-0.1-1.6-0.2l-0.6-0.1
	c-41.9-3-105.1-3.5-105.7-3.5l-0.1,0l-0.1,0c-0.6,0-63.8,0.4-106.1,3.5l-0.6,0.1c-0.4,0.1-0.9,0.1-1.5,0.2
	c-6.9,0.8-21.1,2.4-33.9,16.5c-10.5,11.4-13.5,33.6-13.8,36.1l0,0.3c-0.1,1.1-2.3,26.3-2.3,51.6v23.7c0,25.3,2.2,50.6,2.3,51.6
	l0,0.2c0.3,2.5,2.9,24.8,13.9,36.3c12,13.1,27.1,14.8,35.3,15.8c1.3,0.1,2.4,0.3,3.2,0.4l0.7,0.1c24.2,2.3,99.9,3.4,103.1,3.5l0.1,0
	l0.1,0c0.6,0,63.8-0.4,105.7-3.5l0.6-0.1c0.5-0.1,1.1-0.1,1.8-0.2c6.8-0.7,21-2.2,33.6-16.1c10.5-11.4,13.5-33.6,13.8-36.1l0-0.3
	c0.1-1.1,2.3-26.3,2.3-51.6v-23.7C414.3,218.9,412.1,193.7,412,192.6z M395.7,267.9c0,23.5-2,47.6-2.2,49.8
	c-0.8,6.1-4,20.1-9.1,25.7c-7.9,8.7-16,9.5-21.9,10.2c-0.7,0.1-1.4,0.1-2,0.2c-40.5,2.9-101.3,3.4-104.1,3.4
	c-3.1,0-77.8-1.2-101.2-3.4c-1.2-0.2-2.5-0.3-3.9-0.5c-6.9-0.8-16.4-1.9-23.7-9.9l-0.2-0.2c-5-5.2-8.1-18.4-8.9-25.4
	c-0.1-1.7-2.2-26.1-2.2-49.9v-23.7c0-23.4,2-47.6,2.2-49.8c0.9-7.2,4.2-20.4,9.1-25.7c8.1-8.9,16.7-9.9,22.4-10.6
	c0.5-0.1,1-0.1,1.5-0.2c41.1-2.9,102.3-3.4,104.5-3.4c2.2,0,63.4,0.5,104.1,3.4c0.5,0.1,1,0.1,1.6,0.2c5.8,0.7,14.6,1.7,22.7,10.3
	l0.1,0.1c5,5.2,8.1,18.6,8.9,25.8c0.1,1.6,2.2,26.1,2.2,49.9V267.9z"/>
<path class="st0" d="M510,255C510,114.2,395.8,0,255,0C114.2,0,0,114.2,0,255c0,140.8,114.2,255,255,255
	C395.8,510,510,395.8,510,255z M23.2,255C23.2,127,127,23.2,255,23.2S486.8,127,486.8,255S383,486.8,255,486.8S23.2,383,23.2,255z"
	/>
</svg>
