<svg xmlns="http://www.w3.org/2000/svg" viewBox="0 0 1024 1024"><defs><style>.cls-1{fill:#f5f5f5;}</style></defs><title>icon-settings-overview</title><g id="Layer_24" data-name="Layer 24"><path class="cls-1" d="M512,0C229.21,0,0,229.25,0,512s229.21,512,512,512,512-229.25,512-512S794.75,0,512,0ZM821.91,548.31c-1.09,9.13-9.32,16-18.26,15.3l-3.86-.1c-27.58,0-53.22,17-63.83,42.29a69.15,69.15,0,0,0,17.48,77.84,17.33,17.33,0,0,1,1.87,23.71,311.14,311.14,0,0,1-50.48,49.91,17.44,17.44,0,0,1-23.55-2c-18.56-20.39-51.59-28.07-77.27-17.58a69.34,69.34,0,0,0-42.69,66.53,17.36,17.36,0,0,1-15.44,17.87,309.94,309.94,0,0,1-70.2-.19,17.33,17.33,0,0,1-15.31-18.22A69.18,69.18,0,0,0,418.16,736c-25.72-10.79-59.12-3.15-77.79,17.49a17.33,17.33,0,0,1-23.74,1.88,309.21,309.21,0,0,1-49.36-49.93,17.34,17.34,0,0,1,1.89-23.51,69.37,69.37,0,0,0,17.45-77.16c-10.94-26.62-37-43.45-64.2-42.75-8.94,0-19.48-6.54-20.46-15.34a312.39,312.39,0,0,1,.14-71c1.08-9,8.13-15.64,18-15.32,30.49,0,57.12-16.53,67.89-42.17a69.14,69.14,0,0,0-17.45-77.85,17.37,17.37,0,0,1-1.86-23.72,309.9,309.9,0,0,1,50.48-49.9,17.4,17.4,0,0,1,23.54,2c18.56,20.41,51.73,28,77.24,17.59a69.43,69.43,0,0,0,42.72-66.57,17.37,17.37,0,0,1,15.45-17.86,311.43,311.43,0,0,1,70.19.19,17.32,17.32,0,0,1,15.32,18.22A69.3,69.3,0,0,0,605.77,288c25.81,10.77,59.22,3.12,77.82-17.48a17.36,17.36,0,0,1,23.71-1.91,308.83,308.83,0,0,1,49.43,49.92,17.32,17.32,0,0,1-1.9,23.52,69.5,69.5,0,0,0-17.45,77.16C748,445.2,773.4,462,802,462c8.84,0,19.07,6.59,20.06,15.37A312.31,312.31,0,0,1,821.91,548.31Z"/><path class="cls-1" d="M512,316c-108.25,0-196,87.75-196,196s87.75,196,196,196,196-87.75,196-196S620.25,316,512,316Zm96.17,292.17A136,136,0,1,1,648,512,135.11,135.11,0,0,1,608.17,608.17Z"/></g></svg>