<svg xmlns="http://www.w3.org/2000/svg" viewBox="0 0 1024 1024"><defs><style>.cls-1{fill:#f5f5f5;}</style></defs><title>toornamen icon</title><g id="Layer_5" data-name="Layer 5"><path class="cls-1" d="M401.64,231.15q-35.08,0-59.64,24.55t-24.55,59.63a85.83,85.83,0,0,0,8.33,36.4,85.82,85.82,0,0,0-36.39-8.33q-35.08,0-59.63,24.55T205.2,427.59q0,35.08,24.55,59.63t59.63,24.55q35.08,0,59.64-24.55t24.55-59.63a85.83,85.83,0,0,0-8.33-36.4,85.79,85.79,0,0,0,36.4,8.34q35.08,0,59.63-24.55t24.55-59.64q0-35.08-24.55-59.63T401.64,231.15Z"/><path class="cls-1" d="M512,0C229.22,0,0,229.26,0,512s229.22,512,512,512,512-229.22,512-512S794.74,0,512,0ZM837.51,653Q816,674.47,808.57,674.46q-3.93,0-12.49-7t-16-14.47q-7.44-7.44-16.89-17.53T752.45,624l-42.09,42.09,96.47,96.47a40.59,40.59,0,0,1,12.28,29.82q0,18.43-17.11,35.52T766.48,845a40.6,40.6,0,0,1-29.82-12.28L442.42,538.53Q365.24,596,282.37,596q-71.47,0-116.42-45T121,434.6q0-70.16,41.66-137.25A333.32,333.32,0,0,1,271.41,188.6Q338.49,147,408.66,147q71.48,0,116.43,44.95T570,308.32q0,82.88-57.45,160.05L668.26,624l42.09-42.09q-1.32-1.32-11.4-10.74t-17.54-16.88q-7.45-7.46-14.47-16t-7-12.5q0-7.46,21.49-28.94t28.94-21.48a13.86,13.86,0,0,1,10.08,4.38q2.63,2.63,20.17,19.51t36,34.87q18.41,18,37.93,37.71t32,34.21Q859,620.54,859,624,859,631.5,837.51,653Z"/></g></svg>