<svg xmlns="http://www.w3.org/2000/svg" viewBox="0 0 1024 1024"><title>toornamen icon (2)</title><g id="Layer_32" data-name="Layer 32"><path d="M643,189.92H381c-30.32,0-54.89,25.09-54.89,56V710.43a11.62,11.62,0,0,0,11.5,11.74H686.37a11.62,11.62,0,0,0,11.5-11.74V246C697.87,215,673.3,189.92,643,189.92ZM579.5,241h-135a5,5,0,0,1,0-10h135a5,5,0,0,1,0,10Z"/><ellipse cx="512" cy="797.24" rx="35" ry="35.73"/><path d="M512,0C229.22,0,0,229.26,0,512s229.22,512,512,512,512-229.22,512-512S794.74,0,512,0ZM736,778c0,52.36-41.73,95-93,95H381c-51.29,0-93-42.6-93-95V246c0-52.36,41.73-95,93-95H643c51.29,0,93,42.6,93,95Z"/></g></svg>