<svg xmlns="http://www.w3.org/2000/svg" viewBox="0 0 1024 1024"><title>icon-nintendo</title><g id="Layer_75" data-name="Layer 75"><path d="M468.46,306.59l-127.55,83c-7,4.57-1,26.3,3.44,33.36l153.21-99.68C492.92,316.32,475.48,302,468.46,306.59Z"/><path d="M512,0C229.21,0,0,229.25,0,512s229.21,512,512,512,512-229.25,512-512S794.75,0,512,0ZM793.3,551.6a182,182,0,0,1-135.8,26.19L513.11,671.73a182,182,0,0,1-79,113.54c-84.91,55.24-198.92,31.1-254.16-53.8s-31.1-198.92,53.8-254.16l76.86-50a46,46,0,0,1,13.56-63.38l127.56-83a46,46,0,0,1,63.44,13.29l84.18-54.77a15.41,15.41,0,0,1,2.89-1.48A183.31,183.31,0,0,1,847.1,297.44C902.34,382.34,878.2,496.36,793.3,551.6Z"/><path d="M357,570.54l-12.67,8.24-8.37-12.87a30.66,30.66,0,0,0-42.37-9l-12.47,8.11a30.66,30.66,0,0,0-9,42.37l8.37,12.87-13.12,8.54a30.66,30.66,0,0,0-9,42.37l8.11,12.47a30.66,30.66,0,0,0,42.37,9L322,684.1l8.7,13.37a30.66,30.66,0,0,0,42.37,9l12.47-8.11a30.66,30.66,0,0,0,9-42.37l-8.7-13.37,12.67-8.24a30.66,30.66,0,0,0,9-42.37l-8.11-12.47A30.66,30.66,0,0,0,357,570.54Zm24.81,38.14-25.51,16.59a15.31,15.31,0,0,0-4.48,21.19l17.05,26.21-12.47,8.11-17.05-26.21a15.31,15.31,0,0,0-21.19-4.48l-26,16.89-8.11-12.47,26-16.89a15.31,15.31,0,0,0,4.48-21.19L297.8,590.72l12.47-8.11L327,608.32a15.31,15.31,0,0,0,21.19,4.48l25.51-16.59Z"/><path d="M679.74,406.34a15.3,15.3,0,0,0-10.11-6.72l-21.93-4a15.31,15.31,0,0,0-11.08,2.23l-24.66,16a15.31,15.31,0,0,0-4.48,21.19l16.66,25.61a15.31,15.31,0,0,0,21.19,4.48l24.66-16a15.32,15.32,0,0,0,6.53-9.21l5.27-21.64A15.32,15.32,0,0,0,679.74,406.34Z"/><path d="M739.51,330.95l-24.66,16a15.31,15.31,0,0,0-6.53,9.22l-5.26,21.66a15.31,15.31,0,0,0,12.16,18.68l21.92,4a15.32,15.32,0,0,0,11.07-2.24l24.66-16A15.31,15.31,0,0,0,777.35,361l-16.66-25.61A15.31,15.31,0,0,0,739.51,330.95Z"/><path d="M712.65,408.71a15.31,15.31,0,0,0-12,2h0A15.31,15.31,0,0,0,694,420.86l-4,21.93a15.32,15.32,0,0,0,2.23,11.08l16,24.66A15.31,15.31,0,0,0,729.45,483l25.61-16.66a15.31,15.31,0,0,0,4.48-21.19l-16-24.66a15.3,15.3,0,0,0-9.21-6.53Z"/><path d="M672.21,387.43a15.31,15.31,0,0,0,12-2h0a15.31,15.31,0,0,0,6.71-10.12l4-21.92a15.31,15.31,0,0,0-2.23-11.07l-16-24.66a15.31,15.31,0,0,0-21.19-4.48l-25.61,16.66A15.31,15.31,0,0,0,625.28,351l16,24.66a15.31,15.31,0,0,0,9.22,6.53Z"/><path d="M457.64,514.28a30.63,30.63,0,1,0,42.37,9A30.66,30.66,0,0,0,457.64,514.28Z"/><path d="M535.17,463.84a30.63,30.63,0,1,0,42.37,9A30.66,30.66,0,0,0,535.17,463.84Z"/></g></svg>