<svg xmlns="http://www.w3.org/2000/svg" viewBox="0 0 1024 1024"><title>toornamen icon (5)</title><g id="Layer_79" data-name="Layer 79"><path d="M512,0C229.22,0,0,229.26,0,512s229.22,512,512,512,512-229.22,512-512S794.74,0,512,0Zm.3,694v0h-.55v0c-193.57-.88-345.65-138.28-381.88-174a11.76,11.76,0,0,1,0-16.75c18.13-17.81,65.21-61,131.95-99.75S414.94,330.32,511.73,330h.55c193.56.65,345.61,137.67,381.87,173.28a11.76,11.76,0,0,1,0,16.75C857.92,555.7,705.85,693.11,512.27,694Z"/><path d="M512,368.53a143.48,143.48,0,1,1-101.46,42,142.53,142.53,0,0,1,101.46-42m0-30A173.47,173.47,0,1,0,685.48,512,173.48,173.48,0,0,0,512,338.53Z"/><path d="M604,512A92,92,0,1,1,434.9,461.8a46.38,46.38,0,0,0,70.8-39.44c0-.72,0-1.43-.06-2.14,2.11-.14,4.23-.22,6.37-.22A92,92,0,0,1,604,512Z"/></g></svg>