<svg id="Layer_1" data-name="Layer 1" xmlns="http://www.w3.org/2000/svg" viewBox="0 0 24 24"><title>Padiplay Icon</title><path d="M14.95,1.54v3.1a.43.43,0,0,1-.16.34l-2.67,2.1a.43.43,0,0,1-.53,0L8.93,5a.43.43,0,0,1-.16-.33V2a.43.43,0,0,1,.43-.43h5.75M15.69,0H8.46A1.23,1.23,0,0,0,7.23,1.23V5a1.23,1.23,0,0,0,.47,1l3.65,2.89a.8.8,0,0,0,1,0L16,6a1.23,1.23,0,0,0,.47-1V.8a.8.8,0,0,0-.8-.8Z"/><path d="M4.88,8.94l2.23,2.84a.43.43,0,0,1,0,.53L5,14.95a.43.43,0,0,1-.33.16H2a.43.43,0,0,1-.43-.43V9.36A.43.43,0,0,1,2,8.94H4.88m.36-1.54h-4A1.23,1.23,0,0,0,0,8.62v6.81a1.23,1.23,0,0,0,1.23,1.23H5a1.23,1.23,0,0,0,1-.47L8.68,12.8a1.23,1.23,0,0,0,0-1.52L5.87,7.7a.8.8,0,0,0-.63-.31Z"/><path d="M22.43,8.94v5.75a.43.43,0,0,1-.43.43H19.32a.43.43,0,0,1-.33-.16l-2.1-2.65a.43.43,0,0,1,0-.53L19,9.1a.43.43,0,0,1,.34-.16h3.1m.74-1.54H19a1.23,1.23,0,0,0-1,.47l-2.69,3.42a1.23,1.23,0,0,0,0,1.52L18,16.19a1.23,1.23,0,0,0,1,.47h3.78A1.23,1.23,0,0,0,24,15.43V8.19a.8.8,0,0,0-.8-.8Z"/><path d="M11.84,16.7,14.78,19a.43.43,0,0,1,.16.34V22a.43.43,0,0,1-.43.43H9.2A.43.43,0,0,1,8.77,22V19.35A.43.43,0,0,1,8.93,19l2.91-2.31m0-1.75a.8.8,0,0,0-.5.17L7.69,18a1.23,1.23,0,0,0-.47,1v3.78A1.23,1.23,0,0,0,8.46,24h6.81a1.23,1.23,0,0,0,1.23-1.23V19A1.23,1.23,0,0,0,16,18l-3.68-2.9a.8.8,0,0,0-.5-.17Z"/></svg>