<svg xmlns="http://www.w3.org/2000/svg" viewBox="0 0 1024 1024"><title>icon-general</title><g id="Layer_35" data-name="Layer 35"><path d="M512,0C229.21,0,0,229.25,0,512s229.21,512,512,512,512-229.25,512-512S794.75,0,512,0ZM801.5,715.91a85.69,85.69,0,0,1-85.59,85.59H308.09a85.69,85.69,0,0,1-85.59-85.59V308.09a85.69,85.69,0,0,1,85.59-85.59H715.91a85.69,85.69,0,0,1,85.59,85.59Z"/><path d="M340.46,336.3a41.74,41.74,0,1,1-4.94,19.7A41.81,41.81,0,0,1,340.46,336.3Z"/><path d="M278,336.3h45.24a57.44,57.44,0,0,0,0,39.39H278Z"/><path d="M401.24,687.7H278V648.3H401.24a57.44,57.44,0,0,0,0,39.39Z"/><path d="M492.09,687.7A41.74,41.74,0,1,1,497,668,41.81,41.81,0,0,1,492.09,687.7Z"/><path d="M278,531.7V492.3H571.42a57.44,57.44,0,0,0,0,39.39Z"/><path d="M746,687.7H509.31a57.57,57.57,0,0,0,0-39.39H746Z"/><path d="M583.7,512a41.76,41.76,0,1,1,4.94,19.7A41.53,41.53,0,0,1,583.7,512Z"/><path d="M746,531.7H679.5a57.57,57.57,0,0,0,0-39.39H746Z"/><path d="M746,375.7H431.31a57.57,57.57,0,0,0,0-39.39H746Z"/></g></svg>