<svg xmlns="http://www.w3.org/2000/svg" viewBox="0 0 1024 1024"><title>toornamen icon (5)</title><g id="Layer_79" data-name="Layer 79"><path d="M259.18,753.51a30.72,30.72,0,0,0,30.68,30.68H734.14a30.72,30.72,0,0,0,30.68-30.68V372.12H259.18ZM658,423.16h68v68H658Zm0,119.09h68v68H658Zm0,119.09h68v68H658ZM538.94,423.16h68v68h-68Zm0,119.09h68v68h-68Zm0,119.09h68v68h-68ZM419.85,423.16h68v68h-68Zm0,119.09h68v68h-68Zm0,119.09h68v68h-68ZM300.77,423.16h68v68h-68Zm0,119.09h68v68h-68Zm0,119.09h68v68h-68Z"/><path d="M512,0C229.22,0,0,229.26,0,512s229.22,512,512,512,512-229.22,512-512S794.74,0,512,0ZM655.19,287.29v-60A25.36,25.36,0,0,1,680.47,202h.46a25.36,25.36,0,0,1,25.29,25.29v61.19a24.17,24.17,0,0,1-24.1,24.1h-2.84a24.17,24.17,0,0,1-24.1-24.1Zm-170.12,0v-60A25.36,25.36,0,0,1,510.35,202h.46a25.36,25.36,0,0,1,25.29,25.29v61.19a24.17,24.17,0,0,1-24.1,24.1h-2.84a24.17,24.17,0,0,1-24.1-24.1Zm-170.12,0v-60A25.36,25.36,0,0,1,340.23,202h.46A25.36,25.36,0,0,1,366,227.29v61.19a24.17,24.17,0,0,1-24.1,24.1H339a24.17,24.17,0,0,1-24.1-24.1ZM802.63,753.51A68.49,68.49,0,0,1,734.14,822H289.86a68.49,68.49,0,0,1-68.49-68.49V312.07a68.49,68.49,0,0,1,65.21-68.4v44.81A52.51,52.51,0,0,0,339,340.93h2.84a52.51,52.51,0,0,0,52.45-52.45V243.59h62.38v44.89a52.51,52.51,0,0,0,52.45,52.45H512a52.51,52.51,0,0,0,52.45-52.45V243.59h62.38v44.89a52.51,52.51,0,0,0,52.45,52.45h2.84a52.51,52.51,0,0,0,52.45-52.45V243.6a68.48,68.48,0,0,1,68,68.48Z"/></g></svg>