<?xml version="1.0" encoding="utf-8"?>
<!-- Generator: Adobe Illustrator 19.1.0, SVG Export Plug-In . SVG Version: 6.00 Build 0)  -->
<svg version="1.1" id="Layer_1" xmlns="http://www.w3.org/2000/svg" xmlns:xlink="http://www.w3.org/1999/xlink" x="0px" y="0px"
	 viewBox="0 0 512 512" style="enable-background:new 0 0 512 512;" xml:space="preserve">
<style type="text/css">
	.st0{fill:#F61C0D;}
	.st1{fill:#3A559F;}
	.st2{fill:#76A9EA;}
	.st3{fill:url(#SVGID_1_);}
	.st4{fill:#FFFFFF;}
</style>
<circle class="st0" cx="256" cy="256" r="256"/>
<path class="st4" d="M347.2,145.6H164.8c-35.8,0-64.8,29-64.8,64.8v91.2c0,35.8,29,64.8,64.8,64.8h182.5c35.8,0,64.8-29,64.8-64.8
	v-91.2C412.1,174.6,383.1,145.6,347.2,145.6z M303.4,260.4L218,301.2c-2.3,1.1-4.9-0.6-4.9-3.1v-84c0-2.6,2.7-4.2,5-3.1l85.4,43.3
	C306,255.6,306,259.2,303.4,260.4z"/>
</svg>
