<svg fill="#ffffff" xmlns="http://www.w3.org/2000/svg" viewBox="0 0 987.58 465.15"><title>toornamen icon</title><g id="Layer_10" data-name="Layer 10"><path d="M494.06,46.41c51.38.18,104.25,8.87,157.14,25.85,44.44,14.26,89.33,34.49,133.42,60.11a831.39,831.39,0,0,1,136.77,99.81A833.16,833.16,0,0,1,784.58,332.3c-44.09,25.71-89,46-133.43,60.35-52.91,17.07-105.8,25.84-157.2,26.07h-.32c-51.4-.23-104.29-9-157.2-26.07C292,378.32,247.09,358,203,332.3A833.14,833.14,0,0,1,66.2,232.17,831,831,0,0,1,203,132.36c44.08-25.62,89-45.84,133.42-60.1,52.89-17,105.75-25.67,157.14-25.84h.54m.07-40h-.69c-120.26.4-227.64,43.16-310.58,91.36s-141.44,101.83-164,124a14.61,14.61,0,0,0,0,20.82c45,44.33,234,215.08,474.55,216.17h.69c240.55-1.1,429.52-171.84,474.55-216.17a14.61,14.61,0,0,0,0-20.82C923.62,177.48,734.66,7.21,494.14,6.41Z"/><path d="M490.39,60.42a170.82,170.82,0,1,1-120.79,50,169.69,169.69,0,0,1,120.79-50m0-35c-113.67,0-205.83,92.14-205.83,205.81S376.72,437,490.39,437,696.2,344.9,696.2,231.23,604.05,25.42,490.39,25.42Z"/><path d="M594,232.57a100.17,100.17,0,1,1-184.12-54.66A50.5,50.5,0,0,0,486.93,135c0-.79,0-1.56-.07-2.33,2.29-.15,4.61-.24,6.94-.24A100.17,100.17,0,0,1,594,232.57Z"/></g></svg>