<svg id="Layer_1" data-name="Layer 1" xmlns="http://www.w3.org/2000/svg" viewBox="0 0 24 24"><title>Padiplay Icon</title><path d="M7.69,6l3.65,2.89a.8.8,0,0,0,1,0L16,6a1.23,1.23,0,0,0,.47-1V.8a.8.8,0,0,0-.8-.8H8.46A1.23,1.23,0,0,0,7.23,1.23V5A1.23,1.23,0,0,0,7.69,6Z"/><path d="M23.18,7.39H19a1.23,1.23,0,0,0-1,.47l-2.69,3.42a1.23,1.23,0,0,0,0,1.52L18,16.19a1.23,1.23,0,0,0,1,.47h3.78A1.23,1.23,0,0,0,24,15.43V8.19A.8.8,0,0,0,23.18,7.39Z"/><path d="M8.69,11.28,5.87,7.7a.8.8,0,0,0-.63-.31h-4A1.23,1.23,0,0,0,0,8.62v6.81a1.23,1.23,0,0,0,1.23,1.23H5a1.23,1.23,0,0,0,1-.47L8.68,12.8A1.23,1.23,0,0,0,8.69,11.28Z"/><path d="M16,18l-3.68-2.9a.8.8,0,0,0-1,0L7.69,18a1.23,1.23,0,0,0-.47,1v3.78A1.23,1.23,0,0,0,8.46,24h6.81a1.23,1.23,0,0,0,1.23-1.23V19A1.23,1.23,0,0,0,16,18Z"/></svg>