<svg fill="#ffffff" xmlns="http://www.w3.org/2000/svg" viewBox="0 0 1024 1024"><title>new icon</title><g id="Layer_4" data-name="Layer 4"><path d="M512,86A426.13,426.13,0,0,1,677.79,904.56,426.13,426.13,0,0,1,346.21,119.44,423.27,423.27,0,0,1,512,86m0-80C232.54,6,6,232.54,6,512s226.54,506,506,506,506-226.54,506-506S791.46,6,512,6Z"/><path d="M791.43,490.77l-54.75-35.32-385.1,254v65.06c0,18.9,18.32,30.71,33,21.27L791.43,533.3c7.33-4.72,11-13,11-21.26S798.76,495.49,791.43,490.77ZM476.57,287.68V418.35l141.12,91,100.36-66Zm-92-59.36c-14.65-9.44-33,2.37-33,21.27V684.27l91.23-59.95V265.9Z"/></g></svg>