<svg xmlns="http://www.w3.org/2000/svg" viewBox="0 0 1024 1024"><defs><style>.cls-1{fill:#f5f5f5;}</style></defs><title>icon-placement</title><g id="Layer_56" data-name="Layer 56"><path class="cls-1" d="M512,0C229.21,0,0,229.25,0,512s229.21,512,512,512,512-229.25,512-512S794.75,0,512,0ZM215.36,212.58l40.79-35.43h44V337.37h-44V224.12l-40.79,35.43ZM320.63,796.1a52.86,52.86,0,0,1-14,18.25,59,59,0,0,1-20.26,10.87,80.17,80.17,0,0,1-24.15,3.62A81.89,81.89,0,0,1,239,825.49,59.72,59.72,0,0,1,218.65,815a51.86,51.86,0,0,1-14.49-18.52q-5.5-11.4-5.5-27.51h44q0,10.2,5.64,15.16a20.33,20.33,0,0,0,14,5q8.59,0,14.09-5.1t5.5-15.3a19.5,19.5,0,0,0-5.77-14.36,19.83,19.83,0,0,0-14.63-5.77h-6.17V710.49h6.17q9.93,0,14.09-5.77a20.54,20.54,0,0,0,4.16-12.21q0-9.12-5.23-13.69a18,18,0,0,0-12.21-4.56A17.72,17.72,0,0,0,250,679q-5.23,4.7-5.23,13.28h-44a58.23,58.23,0,0,1,4.83-24.15,54.28,54.28,0,0,1,13.15-18.25,56.48,56.48,0,0,1,19.46-11.41,72.37,72.37,0,0,1,24-3.89,69.74,69.74,0,0,1,24.56,4.16,60.18,60.18,0,0,1,19.46,11.67,51.92,51.92,0,0,1,12.88,18,56.5,56.5,0,0,1,4.56,22.81A49.94,49.94,0,0,1,322,705a40.3,40.3,0,0,1-4.56,10.47A35.14,35.14,0,0,1,311.1,723a59.71,59.71,0,0,1-7.25,5.5,62.93,62.93,0,0,1,7.92,6.31,42,42,0,0,1,7,8.59,49.06,49.06,0,0,1,5.1,11.54,51.9,51.9,0,0,1,2,15.16Q325.86,785.11,320.63,796.1Zm7.65-224.73H202.68V531.65L262,485.22a106.17,106.17,0,0,0,14.49-13q5.09-5.77,5.1-11.94,0-7.51-4.56-11.94T264.4,443.9a25.44,25.44,0,0,0-6.17.81,14.21,14.21,0,0,0-5.77,3,16,16,0,0,0-4.16,5.64,22,22,0,0,0-1.61,9.12h-44q0-14.22,5-25a55,55,0,0,1,13.42-18.25,56,56,0,0,1,19.73-11.27,77.38,77.38,0,0,1,47.64,0,58.39,58.39,0,0,1,19.46,10.87,50,50,0,0,1,13,17.31,54.61,54.61,0,0,1,4.7,23.08,39.75,39.75,0,0,1-2.82,15,54.65,54.65,0,0,1-8.05,13.55,105.11,105.11,0,0,1-12.48,13q-7.25,6.44-16.1,13.15l-23.08,17.71h65.21Zm511.07,154a35.5,35.5,0,0,1-35.5,35.5h-379a35.5,35.5,0,0,1-35.5-35.5v-19a35.5,35.5,0,0,1,35.5-35.5h379a35.5,35.5,0,0,1,35.5,35.5Zm0-226a35.5,35.5,0,0,1-35.5,35.5h-379a35.5,35.5,0,0,1-35.5-35.5v-19a35.5,35.5,0,0,1,35.5-35.5h379a35.5,35.5,0,0,1,35.5,35.5Zm0-234a35.5,35.5,0,0,1-35.5,35.5h-379a35.5,35.5,0,0,1-35.5-35.5v-19a35.5,35.5,0,0,1,35.5-35.5h379a35.5,35.5,0,0,1,35.5,35.5Z"/></g></svg>