<svg id="Layer_1" data-name="Layer 1" xmlns="http://www.w3.org/2000/svg" viewBox="0 0 24 24"><title>Padiplay Icon</title><path d="M11.48,13.38,1.6,7.7a1.05,1.05,0,0,1,0-1.82L11.47.14a1.05,1.05,0,0,1,1.06,0L22.4,5.88a1.05,1.05,0,0,1,0,1.82l-9.87,5.69A1.05,1.05,0,0,1,11.48,13.38Z"/><path d="M22.4,18.17l-9.87,5.69a1.05,1.05,0,0,1-1,0L1.6,18.17a1.05,1.05,0,0,1,0-1.82h0a2.77,2.77,0,0,1,2.77,0L10.7,20a2.61,2.61,0,0,0,2.6,0l6.33-3.65a2.77,2.77,0,0,1,2.77,0h0A1.05,1.05,0,0,1,22.4,18.17Z"/><path d="M22.4,13l-9.87,5.69a1.05,1.05,0,0,1-1,0L1.6,13a1.05,1.05,0,0,1,0-1.82l0,0a2.77,2.77,0,0,1,2.77,0l6.29,3.62a2.61,2.61,0,0,0,2.6,0l6.29-3.62a2.77,2.77,0,0,1,2.77,0l0,0A1.05,1.05,0,0,1,22.4,13Z"/></svg>