<svg xmlns="http://www.w3.org/2000/svg" viewBox="0 0 996 684"><defs><style>.cls-1,.cls-2{fill:#fff;}.cls-1{stroke:#fff;stroke-miterlimit:10;stroke-width:0.5px;opacity:0.2;}</style></defs><title>icon-joystick-outline</title><g id="Layer_5" data-name="Layer 5"><circle class="cls-1" cx="357.67" cy="375.67" r="53.64"/><circle class="cls-1" cx="640.49" cy="375.67" r="53.64"/><circle class="cls-1" cx="777.02" cy="180.62" r="24.38"/><circle class="cls-1" cx="777.02" cy="297.65" r="24.38"/><circle class="cls-1" cx="718.51" cy="239.14" r="24.38"/><circle class="cls-1" cx="835.54" cy="239.14" r="24.38"/><rect class="cls-1" x="196.75" y="156.24" width="39.01" height="165.79" rx="2" ry="2"/><rect class="cls-1" x="196.75" y="156.24" width="39.01" height="165.79" rx="2" ry="2" transform="translate(-22.88 455.4) rotate(-90)"/><circle class="cls-1" cx="357.67" cy="375.67" r="53.64"/><circle class="cls-1" cx="640.49" cy="375.67" r="53.64"/><circle class="cls-1" cx="777.02" cy="180.62" r="24.38"/><circle class="cls-1" cx="777.02" cy="297.65" r="24.38"/><circle class="cls-1" cx="718.51" cy="239.14" r="24.38"/><circle class="cls-1" cx="835.54" cy="239.14" r="24.38"/><circle class="cls-2" cx="777.02" cy="178.68" r="24.38"/><circle class="cls-2" cx="777.02" cy="295.71" r="24.38"/><circle class="cls-2" cx="718.51" cy="237.19" r="24.38"/><circle class="cls-2" cx="835.54" cy="237.19" r="24.38"/><rect class="cls-1" x="196.75" y="156.24" width="39.01" height="165.79" rx="2" ry="2"/><rect class="cls-1" x="196.75" y="156.24" width="39.01" height="165.79" rx="2" ry="2" transform="translate(-22.88 455.4) rotate(-90)"/></g><g id="Layer_6" data-name="Layer 6"><path d="M770,46.09c37.65,0,68.27,13.14,68.27,29.23H848s108.51,162.82,99.17,462.27c-1,32.84-16.1,64.39-42.83,83.44-13,9.21-29.8,16.87-48.68,16.87-20,0-42.32-8.6-64.83-33.06l-2.5-2.78c-8.6-9.81-20.17-24.61-25.81-39.41C749.26,528.16,722.16,457.76,708.56,429a10.3,10.3,0,0,0-9.32-6,10.09,10.09,0,0,0-3.72.71,10.88,10.88,0,0,0-3,1.76c-10.73,9-30.15,21.59-54.4,21.59-18.79,0-40.49-7.6-63.28-30.38H421c-22.75,22.79-44.42,30.38-63.2,30.38-24.22,0-43.65-12.63-54.38-21.59a8.47,8.47,0,0,0-3.05-1.76,10.11,10.11,0,0,0-13,5.27c-13.69,28.77-40.8,99.17-53.93,133.68-5.64,14.8-17.3,29.6-25.9,39.41l-2.5,2.78c-22.46,24.46-44.78,33.06-64.78,33.06-18.88,0-35.7-7.66-48.64-16.87C65,602,49.89,570.44,48.87,537.59,39.44,238.14,148,75.33,148,75.33h9.81c0-16.1,30.53-29.23,68.27-29.23S294.3,59.23,294.3,75.33H701.71c0-16.1,30.53-29.23,68.27-29.23m0-40c-23.53,0-46.28,4.2-64.05,11.82C694.17,23,685.5,29,679.13,35.33H316.87C310.48,29,301.81,22.95,290,17.91c-17.78-7.62-40.51-11.81-64-11.81S179.74,10.29,162,17.91c-11.76,5-20.42,11.09-26.8,17.41h-8.63L114.67,53.14C113.44,55,84.24,99.27,56.91,181.56A932.78,932.78,0,0,0,20.84,332.94C10.68,398.82,6.66,468.1,8.89,538.85a152.88,152.88,0,0,0,16,63.62,140.43,140.43,0,0,0,43.57,51.13c22.34,15.9,47.18,24.3,71.85,24.3a112.2,112.2,0,0,0,48.73-11.27c16.12-7.71,31.43-19.39,45.52-34.73l.14-.15.14-.15,2.49-2.77.17-.19.17-.19c15.91-18.14,27.09-35.48,33.21-51.54,15.92-41.82,29.37-76,39.42-100.29a115.69,115.69,0,0,0,47.52,10.44,113.15,113.15,0,0,0,46.45-10.13,142.11,142.11,0,0,0,32.17-20.25h123a142.36,142.36,0,0,0,32.22,20.25,113.29,113.29,0,0,0,46.46,10.13,115.57,115.57,0,0,0,47.5-10.37c14.35,34.73,32.28,81.51,39.45,100.22h0c6.17,16.18,17.31,33.52,33.12,51.54l.16.19.17.18,1,1.13,1.48,1.64.15.17.16.17c14.1,15.33,29.42,27,45.54,34.7a112.24,112.24,0,0,0,48.72,11.27c24.63,0,49.47-8.38,71.83-24.24l0,0,0,0a140.43,140.43,0,0,0,43.57-51.13,152.91,152.91,0,0,0,16-63.64c2.21-70.75-1.83-140-12-205.9A933.33,933.33,0,0,0,939,181.55C911.68,99.26,882.48,55,881.25,53.14L869.38,35.33h-8.56C854.44,29,845.76,22.95,834,17.91c-17.78-7.62-40.51-11.81-64-11.81Z"/><path d="M230.9,134.09a18.56,18.56,0,0,1,18.5,18.5v44.89h44.89a18.56,18.56,0,0,1,18.5,18.5v2a18.56,18.56,0,0,1-18.5,18.5H249.4v44.89a18.56,18.56,0,0,1-18.5,18.5h-2a18.56,18.56,0,0,1-18.5-18.5V236.49H165.5A18.56,18.56,0,0,1,147,218v-2a18.56,18.56,0,0,1,18.5-18.5h44.89V152.6a18.56,18.56,0,0,1,18.5-18.5h2m0-30h-2a48.56,48.56,0,0,0-48.5,48.5v14.89H165.5A48.56,48.56,0,0,0,117,216v2a48.56,48.56,0,0,0,48.5,48.5h14.89v14.89a48.56,48.56,0,0,0,48.5,48.5h2a48.56,48.56,0,0,0,48.5-48.5V266.49h14.89a48.56,48.56,0,0,0,48.5-48.5v-2a48.56,48.56,0,0,0-48.5-48.5H279.4V152.6a48.56,48.56,0,0,0-48.5-48.5Z"/><path d="M357.67,317.09a35.33,35.33,0,1,1-35.33,35.33,35.33,35.33,0,0,1,35.33-35.33m0-30A65.33,65.33,0,1,0,423,352.42a65.4,65.4,0,0,0-65.33-65.33Z"/><path d="M637.67,318.09a34.33,34.33,0,1,1-34.33,34.33,34.33,34.33,0,0,1,34.33-34.33m0-30A64.33,64.33,0,1,0,702,352.42a64.4,64.4,0,0,0-64.33-64.33Z"/><path d="M710.59,250.37A31.38,31.38,0,1,1,742,219,31.42,31.42,0,0,1,710.59,250.37Z"/><path d="M710.59,194.61A24.38,24.38,0,1,1,686.21,219a24.38,24.38,0,0,1,24.38-24.38m0-14A38.38,38.38,0,1,0,749,219a38.42,38.42,0,0,0-38.38-38.38Z"/><path d="M774.1,316.88a31.38,31.38,0,1,1,31.38-31.38A31.42,31.42,0,0,1,774.1,316.88Z"/><path d="M774.1,261.12a24.38,24.38,0,1,1-24.38,24.38,24.38,24.38,0,0,1,24.38-24.38m0-14a38.38,38.38,0,1,0,38.38,38.38,38.42,38.42,0,0,0-38.38-38.38Z"/><path d="M774.1,180.86a31.38,31.38,0,1,1,31.38-31.38A31.42,31.42,0,0,1,774.1,180.86Z"/><path d="M774.1,125.09a24.38,24.38,0,1,1-24.38,24.38,24.38,24.38,0,0,1,24.38-24.38m0-14a38.38,38.38,0,1,0,38.38,38.38,38.42,38.42,0,0,0-38.38-38.38Z"/><path d="M837.62,250.37A31.38,31.38,0,1,1,869,219,31.42,31.42,0,0,1,837.62,250.37Z"/><path d="M837.62,194.61A24.38,24.38,0,1,1,813.24,219a24.38,24.38,0,0,1,24.38-24.38m0-14A38.38,38.38,0,1,0,876,219a38.42,38.42,0,0,0-38.38-38.38Z"/></g></svg>