<?xml version="1.0" encoding="utf-8"?>
<!-- Generator: Adobe Illustrator 21.0.0, SVG Export Plug-In . SVG Version: 6.00 Build 0)  -->
<svg version="1.1" id="Layer_1" xmlns="http://www.w3.org/2000/svg" xmlns:xlink="http://www.w3.org/1999/xlink" x="0px" y="0px"
	 viewBox="0 0 1024 1024" style="enable-background:new 0 0 1024 1024;" xml:space="preserve">
<style type="text/css">
	.st0{fill:#FFFFFF;}
</style>
<title>toornamen icon</title>
<g id="Layer_14">
	<g>
		<path class="st0" d="M428.3,802.7c-4.6,0-9.3-0.1-13.5-0.2l-0.1,0c-53.1-1.9-104.2-14.1-152-36.2c-46.1-21.4-87.2-51.2-122.1-88.6
			c-34.9-37.4-61.8-80.4-79.9-127.9c-18.8-49.2-27.4-101-25.6-154.1c3.6-102.6,46.2-198.3,120.1-269.6
			C228.9,55,325.7,15.9,427.9,15.9c4.6,0,9.3,0.1,14,0.2c53.1,1.9,104.2,14,152,36.2c46.1,21.4,87.2,51.2,122,88.6
			c34.9,37.4,61.7,80.4,79.9,127.9c18.8,49.2,27.4,101.1,25.6,154.1c-3.5,102.4-46.1,198-119.8,269.3
			C627.9,763.4,530.8,802.7,428.3,802.7L428.3,802.7z M427.9,107.2c-80.9,0.1-156.9,31.7-214,88.9c-57.1,57.3-88.5,133.3-88.4,214.2
			c0.2,163.8,128.6,296.6,292.2,302.2c3.3,0.1,7,0.2,10.6,0.2l0.8,0c76.6,0,149.6-28.9,205.7-81.5c122-114,128.5-306.1,14.5-428.1
			c-56.8-61-137.3-95.9-220.7-95.9L427.9,107.2z"/>
		<path class="st0" d="M427.9,25.9c4.5,0,9.1,0.1,13.6,0.2c211.6,7.4,377.2,184.8,369.9,396.5c-7.1,206.4-176.5,370-383.1,370.1
			c-4.4,0-8.9-0.1-13.3-0.2C203.4,785.1,37.7,607.6,45.1,396C52.3,189,222.4,25.9,427.9,25.9 M429.1,722.7
			c78.9,0,154.9-30.2,212.5-84.2c126-117.8,132.8-316.1,15-442.2c-58.9-63.2-141.5-99.1-228-99.1c-0.2,0-0.5,0-0.7,0
			c-172.7,0.2-312.6,140.4-312.4,313.1c0.2,168.4,133.6,306.4,301.9,312.2c3.6,0.1,7.3,0.2,10.9,0.2
			C428.6,722.7,428.8,722.7,429.1,722.7 M427.9,5.9L427.9,5.9L427.9,5.9c-53,0-104.5,10.2-153.2,30.2
			c-47.1,19.4-89.7,47.3-126.5,82.8c-36.9,35.6-66.3,77.2-87.4,123.6C39,290.7,27,342.1,25.1,395.3c-1.9,54.4,6.9,107.6,26.2,158
			c18.6,48.7,46.2,92.8,82,131.1c35.7,38.3,77.9,68.9,125.2,90.8c49,22.8,101.4,35.3,155.8,37.2l0.1,0l0.1,0c4.2,0.1,9,0.2,13.8,0.2
			c53.2,0,104.9-10.2,153.6-30.4c47.2-19.5,89.8-47.4,126.6-82.9c36.8-35.6,66.2-77.2,87.3-123.7c21.8-48,33.7-99.3,35.6-152.5
			c1.9-54.4-7-107.6-26.3-158.1c-18.6-48.7-46.2-92.8-82-131.1C687.4,95.8,645.3,65.2,598,43.3C549,20.5,496.6,8,442.2,6.1
			C437.4,5.9,432.7,5.9,427.9,5.9L427.9,5.9z M418,702.5C259.8,697,135.7,568.7,135.5,410.3c-0.1-78.2,30.3-151.7,85.5-207.1
			c55.2-55.4,128.7-85.9,206.9-86l0.7,0c80.6,0,158.4,33.8,213.3,92.7c110.2,118,103.9,303.7-14,414
			c-54.2,50.8-124.8,78.8-198.9,78.8l-0.7,0l0,0h0C424.9,702.7,421.3,702.6,418,702.5L418,702.5z"/>
	</g>
	<g>
		<path class="st0" d="M943.8,1007c-12.5,0-24.5-5.2-32.9-14.3L632.6,694.8c-17.3-17.8-17-46.2,0.7-63.6
			c8.5-8.3,19.7-12.8,31.5-12.8c12.2,0,23.6,4.8,32.1,13.5c0.4,0.4,1,1,1.6,1.7l278.1,297.7c8.2,8.8,12.5,20.2,12.1,32.3
			c-0.4,12-5.5,23.2-14.2,31.4C966.1,1002.7,955.2,1007,943.8,1007z"/>
		<path class="st0" d="M664.8,628.4c9.1,0,18.1,3.5,25,10.5c0.4,0.4,0.8,0.8,1.1,1.2l278.4,298c13.2,14.1,12.4,36.3-1.7,49.5
			c-6.4,6-14.9,9.4-23.8,9.4c-9.7,0-19-4-25.6-11.1l-278.4-298c-13.5-13.8-13.3-36,0.5-49.5C647.1,631.7,656,628.4,664.8,628.4
			 M664.8,608.4v20V608.4L664.8,608.4L664.8,608.4c-14.5,0-28.2,5.6-38.5,15.7c-10.5,10.3-16.4,24-16.5,38.7
			c-0.1,14.6,5.4,28.4,15.5,38.9l278.3,297.9c10.3,11.1,25,17.4,40.2,17.4c14,0,27.3-5.3,37.5-14.8c22.2-20.7,23.3-55.6,2.6-77.8
			L706,626.9c-0.8-0.9-1.5-1.6-2-2.1C693.6,614.2,679.7,608.4,664.8,608.4L664.8,608.4z"/>
	</g>
</g>
</svg>
