<svg xmlns="http://www.w3.org/2000/svg" viewBox="0 0 1024 1024"><title>icon-checkbox</title><g id="Layer_74" data-name="Layer 74"><path d="M512,0C229.21,0,0,229.25,0,512s229.21,512,512,512,512-229.25,512-512S794.75,0,512,0ZM801.5,715.91a85.69,85.69,0,0,1-85.59,85.59H308.09a85.69,85.69,0,0,1-85.59-85.59V308.09a85.69,85.69,0,0,1,85.59-85.59H715.91a85.69,85.69,0,0,1,85.59,85.59Z"/><path d="M715.91,282.5a25.62,25.62,0,0,1,25.59,25.59V715.91a25.62,25.62,0,0,1-25.59,25.59H308.09a25.62,25.62,0,0,1-25.59-25.59V308.09a25.62,25.62,0,0,1,25.59-25.59H715.91m0-30H308.09a55.65,55.65,0,0,0-55.59,55.59V715.91a55.65,55.65,0,0,0,55.59,55.59H715.91a55.65,55.65,0,0,0,55.59-55.59V308.09a55.65,55.65,0,0,0-55.59-55.59Z"/><path d="M456.19,627.18A35.37,35.37,0,0,1,430,615.58l-79.74-87.71a35.44,35.44,0,1,1,52.45-47.68l56.91,62.6L624.87,405a35.44,35.44,0,0,1,45.38,54.45L478.87,619A35.32,35.32,0,0,1,456.19,627.18Z"/></g></svg>